<svg width="50" height="50" viewBox="0 0 50 50" fill="none" xmlns="http://www.w3.org/2000/svg">
<circle cx="25" cy="25" r="25" fill="white"/>
<path d="M29.9996 15.0042L27.406 15C24.4923 15 22.6093 16.9319 22.6093 19.922V22.1914H20.0016C19.7762 22.1914 19.5938 22.3741 19.5938 22.5994V25.8875C19.5938 26.1128 19.7764 26.2953 20.0016 26.2953H22.6093V34.5922C22.6093 34.8175 22.7917 35 23.0171 35H26.4194C26.6447 35 26.8272 34.8173 26.8272 34.5922V26.2953H29.8762C30.1015 26.2953 30.284 26.1128 30.284 25.8875L30.2853 22.5994C30.2853 22.4912 30.2422 22.3876 30.1658 22.311C30.0895 22.2345 29.9854 22.1914 29.8772 22.1914H26.8272V20.2676C26.8272 19.343 27.0475 18.8736 28.252 18.8736L29.9992 18.873C30.2243 18.873 30.4068 18.6903 30.4068 18.4651V15.412C30.4068 15.1871 30.2245 15.0046 29.9996 15.0042Z" fill="#FD8BA3"/>
</svg>
