<svg width="18" height="19" viewBox="0 0 18 19" fill="none" xmlns="http://www.w3.org/2000/svg">
<path d="M5.22 0.012207H12.78C15.66 0.012207 18 2.35298 18 5.23394V12.7965C18 14.1813 17.45 15.5095 16.4711 16.4888C15.4922 17.468 14.1644 18.0182 12.78 18.0182H5.22C2.34 18.0182 0 15.6774 0 12.7965V5.23394C0 3.84905 0.549963 2.52088 1.5289 1.54162C2.50784 0.562352 3.83557 0.012207 5.22 0.012207ZM5.04 1.8128C4.1807 1.8128 3.35659 2.15427 2.74897 2.76209C2.14136 3.36991 1.8 4.19429 1.8 5.05388V12.9765C1.8 14.7681 3.249 16.2176 5.04 16.2176H12.96C13.8193 16.2176 14.6434 15.8761 15.251 15.2683C15.8586 14.6605 16.2 13.8361 16.2 12.9765V5.05388C16.2 3.26229 14.751 1.8128 12.96 1.8128H5.04ZM13.725 3.16325C14.0234 3.16325 14.3095 3.28182 14.5205 3.49287C14.7315 3.70392 14.85 3.99016 14.85 4.28863C14.85 4.58709 14.7315 4.87334 14.5205 5.08439C14.3095 5.29543 14.0234 5.414 13.725 5.414C13.4266 5.414 13.1405 5.29543 12.9295 5.08439C12.7185 4.87334 12.6 4.58709 12.6 4.28863C12.6 3.99016 12.7185 3.70392 12.9295 3.49287C13.1405 3.28182 13.4266 3.16325 13.725 3.16325ZM9 4.5137C10.1935 4.5137 11.3381 4.98796 12.182 5.83216C13.0259 6.67635 13.5 7.82133 13.5 9.0152C13.5 10.2091 13.0259 11.354 12.182 12.1982C11.3381 13.0424 10.1935 13.5167 9 13.5167C7.80653 13.5167 6.66193 13.0424 5.81802 12.1982C4.97411 11.354 4.5 10.2091 4.5 9.0152C4.5 7.82133 4.97411 6.67635 5.81802 5.83216C6.66193 4.98796 7.80653 4.5137 9 4.5137ZM9 6.3143C8.28392 6.3143 7.59716 6.59886 7.09081 7.10537C6.58446 7.61189 6.3 8.29887 6.3 9.0152C6.3 9.73152 6.58446 10.4185 7.09081 10.925C7.59716 11.4315 8.28392 11.7161 9 11.7161C9.71608 11.7161 10.4028 11.4315 10.9092 10.925C11.4155 10.4185 11.7 9.73152 11.7 9.0152C11.7 8.29887 11.4155 7.61189 10.9092 7.10537C10.4028 6.59886 9.71608 6.3143 9 6.3143Z" fill="#F1ECDC"/>
</svg>
