<svg width="50" height="50" viewBox="0 0 50 50" fill="none" xmlns="http://www.w3.org/2000/svg">
<circle cx="25" cy="25" r="25" fill="white"/>
<path d="M28.75 15H21.25C17.7988 15 15 17.7988 15 21.25V28.75C15 32.2013 17.7988 35 21.25 35H28.75C32.2013 35 35 32.2013 35 28.75V21.25C35 17.7988 32.2013 15 28.75 15ZM33.125 28.75C33.125 31.1625 31.1625 33.125 28.75 33.125H21.25C18.8375 33.125 16.875 31.1625 16.875 28.75V21.25C16.875 18.8375 18.8375 16.875 21.25 16.875H28.75C31.1625 16.875 33.125 18.8375 33.125 21.25V28.75Z" fill="#FD8BA3"/>
<path d="M25 20C22.2387 20 20 22.2387 20 25C20 27.7613 22.2387 30 25 30C27.7613 30 30 27.7613 30 25C30 22.2387 27.7613 20 25 20ZM25 28.125C23.2775 28.125 21.875 26.7225 21.875 25C21.875 23.2763 23.2775 21.875 25 21.875C26.7225 21.875 28.125 23.2763 28.125 25C28.125 26.7225 26.7225 28.125 25 28.125Z" fill="#FD8BA3"/>
<path d="M30.3752 20.291C30.7432 20.291 31.0415 19.9927 31.0415 19.6247C31.0415 19.2568 30.7432 18.9585 30.3752 18.9585C30.0073 18.9585 29.709 19.2568 29.709 19.6247C29.709 19.9927 30.0073 20.291 30.3752 20.291Z" fill="#FD8BA3"/>
</svg>
