<svg width="181" height="28" viewBox="0 0 181 28" fill="none" xmlns="http://www.w3.org/2000/svg">
<g opacity="0.95">
<path d="M96.5961 22.7995C96.2067 22.7995 95.7957 22.7132 95.5145 22.4977C95.3415 22.3468 95.1035 22.045 95.1035 21.5493V11.2676H97.2882V20.45C97.2882 20.5793 97.2666 20.7948 97.4397 20.9457C97.5046 20.9888 97.6343 21.0751 97.9804 21.0751H104.34V22.7995H96.5961Z" fill="#4F4F4F"/>
<path d="M107.888 12.432C108.299 11.462 108.753 11.1387 109.791 11.1387C110.786 11.1387 111.284 11.462 111.695 12.432L116.064 22.7999H113.771L112.582 19.89H107.001L105.833 22.7999H103.54L107.888 12.432ZM107.563 18.338H112.019L110.137 13.639C110.073 13.4666 109.964 13.1648 109.813 13.1648C109.662 13.1648 109.553 13.4882 109.489 13.639L107.563 18.338Z" fill="#4F4F4F"/>
<path d="M123.851 11.2676C124.478 11.2676 125.344 11.3322 125.949 11.9573C126.598 12.6255 126.685 13.6817 126.685 14.4361C126.685 15.0612 126.641 15.7079 126.144 16.3114C125.819 16.6994 125.473 16.8719 125.062 16.915V16.9796C125.603 17.0227 126.057 17.2814 126.339 17.5832C126.879 18.1867 126.879 19.0058 126.879 19.6524C126.879 20.4069 126.879 21.3337 126.209 22.0666C125.538 22.7995 124.803 22.7995 124.089 22.7995H118.551C117.967 22.7995 117.448 22.8641 116.972 22.3468C116.864 22.2175 116.583 21.8295 116.583 21.1828V12.9273C116.583 12.4962 116.691 12.0436 116.951 11.7418C117.297 11.3322 117.816 11.2676 118.184 11.2676H123.851ZM118.746 16.0959H122.986C123.418 16.0959 123.873 16.0959 124.175 15.6863C124.262 15.5786 124.413 15.2983 124.413 14.5224C124.413 14.199 124.392 13.6386 124.024 13.2937C123.7 12.992 123.31 12.992 122.943 12.992H119.373C119.2 12.992 119.006 12.9704 118.876 13.1213C118.746 13.2722 118.724 13.5093 118.724 13.6386L118.746 16.0959ZM118.746 20.2129C118.746 20.6009 118.789 20.7948 118.876 20.8811C119.049 21.0751 119.417 21.0535 119.59 21.0535H123.029C123.375 21.0535 123.981 21.032 124.305 20.644C124.543 20.3422 124.608 19.8464 124.608 19.48C124.608 19.1567 124.565 18.6178 124.37 18.316C124.24 18.1436 123.916 17.8418 123.202 17.8418H118.768L118.746 20.2129Z" fill="#4F4F4F"/>
<path d="M128.155 21.0751H134.58C135.618 21.0751 135.661 20.2129 135.661 19.8249C135.661 19.3722 135.553 18.8334 134.536 18.5316L129.972 17.0874C129.799 17.0443 129.064 16.7856 128.61 16.2252C128.09 15.6001 128.004 14.6948 128.004 14.0482C128.004 13.3584 128.09 12.5178 128.739 11.9142C129.345 11.3538 130.08 11.2676 130.643 11.2676H137.305V12.992H131.4C131.097 12.992 130.751 13.0135 130.491 13.2506C130.21 13.5093 130.189 13.9188 130.189 14.1344C130.189 14.6517 130.34 15.1475 131.27 15.4277L135.51 16.7641C136.289 17.0012 136.808 17.2598 137.154 17.5832C137.846 18.2514 137.911 19.2644 137.911 19.8033C137.911 20.5362 137.803 21.3337 137.327 21.9373C136.743 22.6701 136.029 22.7563 135.25 22.7563H128.155V21.0751Z" fill="#4F4F4F"/>
<path d="M142.281 12.432C142.692 11.462 143.147 11.1387 144.185 11.1387C145.18 11.1387 145.677 11.462 146.088 12.432L150.458 22.7999H148.165L146.975 19.89H141.395L140.226 22.7999H137.934L142.281 12.432ZM141.957 18.338H146.413L144.531 13.639C144.466 13.4666 144.358 13.1648 144.207 13.1648C144.055 13.1648 143.947 13.4882 143.882 13.639L141.957 18.338Z" fill="#4F4F4F"/>
<path d="M152.448 22.7995C152.058 22.7995 151.647 22.7132 151.366 22.4977C151.193 22.3468 150.955 22.045 150.955 21.5493V11.2676H153.14V20.45C153.14 20.5793 153.118 20.7948 153.291 20.9457C153.356 20.9888 153.486 21.0751 153.832 21.0751H160.192V22.7995H152.448Z" fill="#4F4F4F"/>
<path d="M162.613 22.7995C162.116 22.7995 161.662 22.7995 161.294 22.4331C160.905 22.0451 160.861 21.5278 160.861 21.0751V12.9058C160.861 12.4532 161.013 11.979 161.251 11.6987C161.64 11.2892 162.202 11.2461 162.635 11.2461H170.054V12.9705H163.803C163.608 12.9705 163.371 12.992 163.197 13.1429C163.024 13.3154 163.024 13.5309 163.024 13.7034V16.0313H169.903V17.7557H163.046V20.45C163.046 20.6225 163.111 20.8165 163.219 20.9027C163.349 21.032 163.608 21.0536 163.955 21.0536H170.141V22.778H162.613V22.7995Z" fill="#4F4F4F"/>
<path d="M171.288 21.0751H177.691C178.729 21.0751 178.773 20.2129 178.773 19.8249C178.773 19.3722 178.664 18.8334 177.648 18.5316L173.084 17.0874C172.911 17.0443 172.175 16.7856 171.721 16.2252C171.202 15.6001 171.115 14.6948 171.115 14.0482C171.115 13.3584 171.202 12.5178 171.851 11.9142C172.456 11.3538 173.192 11.2676 173.754 11.2676H180.416V12.992H174.49C174.187 12.992 173.841 13.0135 173.581 13.2506C173.3 13.5093 173.278 13.9188 173.278 14.1344C173.278 14.6517 173.43 15.1475 174.36 15.4277L178.599 16.7641C179.378 17.0012 179.897 17.2598 180.243 17.5832C180.936 18.2514 181 19.2645 181 19.8033C181 20.5362 180.892 21.3337 180.416 21.9373C179.832 22.6701 179.119 22.7563 178.34 22.7563H171.223V21.0751H171.288Z" fill="#4F4F4F"/>
<path d="M90.6042 10.5347L86.7971 1.3954C86.6673 1.09363 86.5592 0.878082 86.4294 0.770307C86.278 0.619423 86.0616 0.533203 85.8021 0.533203C85.5425 0.533203 85.3262 0.619423 85.1748 0.770307C85.045 0.878082 84.9368 1.09363 84.8071 1.3954L81 10.5562V21.1181C81 21.6786 81.1082 22.0666 81.3461 22.3252C81.584 22.5839 81.9301 22.6916 82.3844 22.6916H89.2414C89.6957 22.6916 90.0417 22.5623 90.2797 22.3252C90.5176 22.0666 90.6258 21.6786 90.6258 21.1181L90.6042 10.5347ZM89.674 10.5347V12.1729C89.5226 12.0866 89.3496 12.022 89.1549 12.0004C88.8304 11.9573 88.5276 12.0435 88.2896 12.216L86.5159 10.3622C86.5808 10.2329 86.6241 10.1036 86.6457 9.97425C86.7322 9.28449 86.2563 8.6594 85.5641 8.57318C84.8719 8.48696 84.2446 8.96117 84.1581 9.65093C84.1149 10.0605 84.2663 10.4485 84.5475 10.7287L83.7471 12.3884C83.7039 12.3884 83.6606 12.3668 83.6173 12.3668C83.4227 12.3453 83.2064 12.3668 83.0333 12.4315L82.0167 10.3407L85.4992 1.56784C85.5858 1.35229 85.6939 1.24452 85.8021 1.24452C85.9102 1.24452 85.9968 1.35229 86.1049 1.56784L89.674 10.5347Z" fill="#4F4F4F"/>
<path d="M89.6736 14.2847V21.1822C89.6736 21.4409 89.6303 21.6133 89.5438 21.6995C89.4573 21.7858 89.2842 21.8289 89.0463 21.8289H82.557C82.319 21.8289 82.146 21.7858 82.0595 21.6995C81.9729 21.6133 81.9297 21.4409 81.9297 21.1822V11.6118L82.4921 12.7758C82.3407 12.9482 82.2542 13.1638 82.2109 13.4225C82.1244 14.1122 82.6002 14.7373 83.2924 14.8235C83.9846 14.9097 84.6119 14.4355 84.6985 13.7458C84.7417 13.3362 84.5903 12.9482 84.3307 12.6896L85.1311 11.0299C85.1743 11.0299 85.2176 11.0514 85.2609 11.0514C85.5637 11.0945 85.8665 11.0083 86.1045 10.8574L87.8998 12.7111C87.8349 12.8189 87.8133 12.9482 87.7917 13.0776C87.7052 13.7673 88.181 14.3924 88.8732 14.4786C89.1544 14.5002 89.4356 14.4355 89.6736 14.2847Z" fill="#EA524E"/>
</g>
<path opacity="0.95" d="M6.21387 13.4346C5.11556 13.4346 4.2474 13.8014 3.60938 14.5352C2.97591 15.2643 2.65918 16.2646 2.65918 17.5361C2.65918 18.8441 2.96452 19.8558 3.5752 20.5713C4.19043 21.2822 5.06543 21.6377 6.2002 21.6377C6.89746 21.6377 7.69271 21.5124 8.58594 21.2617V22.2803C7.89323 22.54 7.03874 22.6699 6.02246 22.6699C4.55046 22.6699 3.41341 22.2233 2.61133 21.3301C1.8138 20.4368 1.41504 19.1676 1.41504 17.5225C1.41504 16.4925 1.60645 15.5902 1.98926 14.8154C2.37663 14.0407 2.93262 13.4437 3.65723 13.0244C4.38639 12.6051 5.24316 12.3955 6.22754 12.3955C7.27572 12.3955 8.19173 12.5869 8.97559 12.9697L8.4834 13.9678C7.72689 13.6123 6.97038 13.4346 6.21387 13.4346ZM17.1035 25.124H16.0029V22.5332H10.7666V25.124H9.67285V21.5557H10.2607C10.8714 20.7262 11.3499 19.7533 11.6963 18.6367C12.0426 17.5202 12.2227 16.3216 12.2363 15.041H16.0303V21.5557H17.1035V25.124ZM14.9365 21.5557V15.9365H13.2549C13.1956 16.9482 12.9997 17.9736 12.667 19.0127C12.3389 20.0472 11.9287 20.8949 11.4365 21.5557H14.9365ZM21.7725 22.6699C20.665 22.6699 19.79 22.3327 19.1475 21.6582C18.5094 20.9837 18.1904 20.0472 18.1904 18.8486C18.1904 17.641 18.4867 16.6816 19.0791 15.9707C19.6761 15.2598 20.4759 14.9043 21.4785 14.9043C22.4173 14.9043 23.1602 15.2142 23.707 15.834C24.2539 16.4492 24.5273 17.2627 24.5273 18.2744V18.9922H19.3662C19.389 19.8717 19.61 20.5394 20.0293 20.9951C20.4531 21.4508 21.0479 21.6787 21.8135 21.6787C22.6201 21.6787 23.4176 21.5101 24.2061 21.1729V22.1846C23.805 22.3577 23.4245 22.4808 23.0645 22.5537C22.709 22.6312 22.2783 22.6699 21.7725 22.6699ZM21.4648 15.8545C20.8633 15.8545 20.3825 16.0505 20.0225 16.4424C19.667 16.8343 19.4574 17.3766 19.3936 18.0693H23.3105C23.3105 17.3538 23.151 16.807 22.832 16.4287C22.513 16.0459 22.0573 15.8545 21.4648 15.8545ZM32.0537 22.5332H30.9053V16.0117H28.6562C28.5332 17.6341 28.3623 18.9215 28.1436 19.874C27.9248 20.8265 27.64 21.5238 27.2891 21.9658C26.9427 22.4079 26.5007 22.6289 25.9629 22.6289C25.7168 22.6289 25.5208 22.6016 25.375 22.5469V21.7061C25.4753 21.7334 25.5892 21.7471 25.7168 21.7471C26.2409 21.7471 26.6579 21.1934 26.9678 20.0859C27.2777 18.9785 27.5124 17.2969 27.6719 15.041H32.0537V22.5332ZM39.0742 22.5332L38.8486 21.4668H38.7939C38.4202 21.9362 38.0465 22.2552 37.6729 22.4238C37.3037 22.5879 36.8411 22.6699 36.2852 22.6699C35.5423 22.6699 34.959 22.4785 34.5352 22.0957C34.1159 21.7129 33.9062 21.1683 33.9062 20.4619C33.9062 18.9489 35.1162 18.1559 37.5361 18.083L38.8076 18.042V17.5771C38.8076 16.9893 38.68 16.5563 38.4248 16.2783C38.1742 15.9958 37.7708 15.8545 37.2148 15.8545C36.5905 15.8545 35.8841 16.0459 35.0957 16.4287L34.7471 15.5605C35.1162 15.36 35.5195 15.2028 35.957 15.0889C36.3991 14.9749 36.8411 14.918 37.2832 14.918C38.1764 14.918 38.8372 15.1162 39.2656 15.5127C39.6986 15.9092 39.915 16.5449 39.915 17.4199V22.5332H39.0742ZM36.5107 21.7334C37.2171 21.7334 37.7708 21.5397 38.1719 21.1523C38.5775 20.765 38.7803 20.2227 38.7803 19.5254V18.8486L37.6455 18.8965C36.7432 18.9284 36.0915 19.0697 35.6904 19.3203C35.2939 19.5664 35.0957 19.9515 35.0957 20.4756C35.0957 20.8857 35.2188 21.1979 35.4648 21.4121C35.7155 21.6263 36.0641 21.7334 36.5107 21.7334ZM43.3945 15.041V18.1787H47.5918V15.041H48.7266V22.5332H47.5918V19.1562H43.3945V22.5332H42.2598V15.041H43.3945ZM57.5996 18.7803C57.5996 20.0016 57.292 20.9564 56.6768 21.6445C56.0615 22.3281 55.2116 22.6699 54.127 22.6699C53.457 22.6699 52.8623 22.5127 52.3428 22.1982C51.8232 21.8838 51.4222 21.4326 51.1396 20.8447C50.8571 20.2568 50.7158 19.5687 50.7158 18.7803C50.7158 17.5589 51.0212 16.6087 51.6318 15.9297C52.2425 15.2461 53.0902 14.9043 54.1748 14.9043C55.223 14.9043 56.0547 15.2529 56.6699 15.9502C57.2897 16.6475 57.5996 17.5908 57.5996 18.7803ZM51.8916 18.7803C51.8916 19.7373 52.083 20.4665 52.4658 20.9678C52.8486 21.4691 53.4115 21.7197 54.1543 21.7197C54.8971 21.7197 55.46 21.4714 55.8428 20.9746C56.2301 20.4733 56.4238 19.7419 56.4238 18.7803C56.4238 17.8278 56.2301 17.1055 55.8428 16.6133C55.46 16.1165 54.8926 15.8682 54.1406 15.8682C53.3978 15.8682 52.8372 16.112 52.459 16.5996C52.0807 17.0872 51.8916 17.8141 51.8916 18.7803ZM69.3096 16.9209C69.3096 17.4085 69.1683 17.7799 68.8857 18.0352C68.6077 18.2858 68.2158 18.4544 67.71 18.541V18.6025C68.348 18.6891 68.8128 18.876 69.1045 19.1631C69.4007 19.4502 69.5488 19.8467 69.5488 20.3525C69.5488 21.0498 69.2913 21.5876 68.7764 21.9658C68.266 22.3441 67.5186 22.5332 66.5342 22.5332H63.2324V15.041H66.5205C68.3799 15.041 69.3096 15.6676 69.3096 16.9209ZM68.4141 20.2773C68.4141 19.8717 68.2591 19.5778 67.9492 19.3955C67.6439 19.2087 67.1357 19.1152 66.4248 19.1152H64.3672V21.583H66.4521C67.7601 21.583 68.4141 21.1478 68.4141 20.2773ZM68.2021 17.0303C68.2021 16.6657 68.0609 16.4082 67.7783 16.2578C67.5003 16.1029 67.0765 16.0254 66.5068 16.0254H64.3672V18.1377H66.2881C66.9899 18.1377 67.4844 18.0511 67.7715 17.8779C68.0586 17.7048 68.2021 17.4222 68.2021 17.0303Z" fill="#4F4F4F"/>
</svg>
