<svg width="156" height="27" viewBox="0 0 156 27" fill="none" xmlns="http://www.w3.org/2000/svg">
<g opacity="0.95">
<path d="M71.5961 22.2828C71.2067 22.2828 70.7957 22.1965 70.5145 21.9809C70.3415 21.83 70.1035 21.5281 70.1035 21.0322V10.7471H72.2882V19.9325C72.2882 20.0619 72.2666 20.2775 72.4397 20.4284C72.5046 20.4716 72.6343 20.5578 72.9804 20.5578H79.3399V22.2828H71.5961Z" fill="#F9FAFA"/>
<path d="M82.8869 11.908C83.2979 10.9377 83.7521 10.6143 84.7904 10.6143C85.7854 10.6143 86.283 10.9377 86.6939 11.908L91.0634 22.2793H88.7705L87.5808 19.3685H82L80.8319 22.2793H78.5391L82.8869 11.908ZM82.5624 17.816H87.0184L85.1365 13.1155C85.0716 12.943 84.9635 12.6411 84.812 12.6411C84.6606 12.6411 84.5525 12.9645 84.4876 13.1155L82.5624 17.816Z" fill="#F1ECDC"/>
<path d="M98.85 10.7471C99.4773 10.7471 100.343 10.8118 100.948 11.4371C101.597 12.1055 101.684 13.162 101.684 13.9167C101.684 14.542 101.64 15.1889 101.143 15.7926C100.818 16.1807 100.472 16.3532 100.061 16.3963V16.461C100.602 16.5041 101.056 16.7629 101.338 17.0648C101.878 17.6685 101.878 18.4879 101.878 19.1347C101.878 19.8894 101.878 20.8166 101.208 21.5497C100.537 22.2828 99.8018 22.2828 99.088 22.2828H93.5505C92.9664 22.2828 92.4473 22.3475 91.9714 21.83C91.8632 21.7006 91.582 21.3125 91.582 20.6656V12.4073C91.582 11.9761 91.6902 11.5233 91.9498 11.2214C92.2959 10.8118 92.815 10.7471 93.1827 10.7471H98.85ZM93.7451 15.577H97.9848C98.4174 15.577 98.8717 15.577 99.1745 15.1673C99.261 15.0595 99.4124 14.7792 99.4124 14.0029C99.4124 13.6795 99.3908 13.1189 99.0231 12.7739C98.6986 12.472 98.3093 12.472 97.9415 12.472H94.3724C94.1994 12.472 94.0047 12.4505 93.8749 12.6014C93.7451 12.7523 93.7235 12.9895 93.7235 13.1189L93.7451 15.577ZM93.7451 19.6953C93.7451 20.0834 93.7884 20.2775 93.8749 20.3638C94.048 20.5578 94.4157 20.5362 94.5887 20.5362H98.0281C98.3742 20.5362 98.9798 20.5147 99.3043 20.1266C99.5422 19.8247 99.6071 19.3288 99.6071 18.9622C99.6071 18.6388 99.5639 18.0997 99.3692 17.7979C99.2394 17.6254 98.9149 17.3235 98.2011 17.3235H93.7668L93.7451 19.6953Z" fill="#F1ECDC"/>
<path d="M103.154 20.5578H109.579C110.617 20.5578 110.66 19.6953 110.66 19.3072C110.66 18.8544 110.552 18.3154 109.535 18.0135L104.971 16.5688C104.798 16.5257 104.063 16.267 103.609 15.7063C103.089 15.081 103.003 14.1754 103.003 13.5286C103.003 12.8386 103.089 11.9977 103.738 11.3939C104.344 10.8333 105.08 10.7471 105.642 10.7471H112.304V12.472H106.399C106.096 12.472 105.75 12.4936 105.49 12.7308C105.209 12.9895 105.188 13.3992 105.188 13.6148C105.188 14.1323 105.339 14.6282 106.269 14.9085L110.509 16.2454C111.288 16.4826 111.807 16.7413 112.153 17.0648C112.845 17.7332 112.91 18.7466 112.91 19.2856C112.91 20.0188 112.802 20.8166 112.326 21.4203C111.742 22.1534 111.028 22.2396 110.249 22.2396H103.154V20.5578Z" fill="#F1ECDC"/>
<path d="M117.279 11.908C117.69 10.9377 118.145 10.6143 119.183 10.6143C120.178 10.6143 120.676 10.9377 121.087 11.908L125.456 22.2793H123.163L121.973 19.3685H116.393L115.225 22.2793H112.932L117.279 11.908ZM116.955 17.816H121.411L119.529 13.1155C119.464 12.943 119.356 12.6411 119.205 12.6411C119.053 12.6411 118.945 12.9645 118.88 13.1155L116.955 17.816Z" fill="#F1ECDC"/>
<path d="M127.447 22.2828C127.057 22.2828 126.646 22.1965 126.365 21.9809C126.192 21.83 125.954 21.5281 125.954 21.0322V10.7471H128.139V19.9325C128.139 20.0619 128.117 20.2775 128.29 20.4284C128.355 20.4716 128.485 20.5578 128.831 20.5578H135.191V22.2828H127.447Z" fill="#F1ECDC"/>
<path d="M137.613 22.2829C137.115 22.2829 136.661 22.2829 136.293 21.9163C135.904 21.5282 135.861 21.0107 135.861 20.5579V12.3859C135.861 11.9331 136.012 11.4587 136.25 11.1784C136.64 10.7687 137.202 10.7256 137.635 10.7256H145.054V12.4506H138.803C138.608 12.4506 138.37 12.4721 138.197 12.623C138.024 12.7955 138.024 13.0112 138.024 13.1837V15.5124H144.903V17.2373H138.046V19.9326C138.046 20.1051 138.11 20.2991 138.219 20.3854C138.348 20.5148 138.608 20.5363 138.954 20.5363H145.141V22.2613H137.613V22.2829Z" fill="#F1ECDC"/>
<path d="M146.287 20.5578H152.69C153.728 20.5578 153.772 19.6953 153.772 19.3072C153.772 18.8544 153.663 18.3154 152.647 18.0135L148.083 16.5688C147.91 16.5257 147.174 16.267 146.72 15.7063C146.201 15.081 146.114 14.1754 146.114 13.5286C146.114 12.8386 146.201 11.9977 146.85 11.3939C147.455 10.8333 148.191 10.7471 148.753 10.7471H155.416V12.472H149.489C149.186 12.472 148.84 12.4936 148.58 12.7308C148.299 12.9895 148.277 13.3992 148.277 13.6148C148.277 14.1323 148.429 14.6282 149.359 14.9085L153.599 16.2454C154.377 16.4826 154.896 16.7413 155.243 17.0648C155.935 17.7332 156 18.7466 156 19.2856C156 20.0188 155.891 20.8166 155.416 21.4203C154.832 22.1534 154.118 22.2396 153.339 22.2396H146.222V20.5578H146.287Z" fill="#F1ECDC"/>
<path d="M65.6042 10.0136L61.7971 0.871272C61.6673 0.569403 61.5592 0.353782 61.4294 0.245972C61.278 0.0950373 61.0616 0.00878906 60.8021 0.00878906C60.5425 0.00878906 60.3262 0.0950373 60.1748 0.245972C60.045 0.353782 59.9368 0.569403 59.8071 0.871272L56 10.0351V20.6006C56 21.1612 56.1082 21.5493 56.3461 21.808C56.584 22.0668 56.9301 22.1746 57.3844 22.1746H64.2414C64.6957 22.1746 65.0417 22.0452 65.2797 21.808C65.5176 21.5493 65.6258 21.1612 65.6258 20.6006L65.6042 10.0136ZM64.674 10.0136V11.6523C64.5226 11.5661 64.3496 11.5014 64.1549 11.4798C63.8304 11.4367 63.5276 11.5229 63.2896 11.6954L61.5159 9.84109C61.5808 9.71172 61.6241 9.58234 61.6457 9.45297C61.7322 8.76299 61.2563 8.13769 60.5641 8.05144C59.8719 7.96519 59.2446 8.43956 59.1581 9.12954C59.1149 9.53922 59.2663 9.92734 59.5475 10.2076L58.7471 11.8679C58.7039 11.8679 58.6606 11.8464 58.6173 11.8464C58.4227 11.8248 58.2064 11.8464 58.0333 11.911L57.0167 9.81953L60.4992 1.04377C60.5858 0.828147 60.6939 0.720337 60.8021 0.720337C60.9102 0.720337 60.9968 0.828147 61.1049 1.04377L64.674 10.0136Z" fill="#F1ECDC"/>
<path d="M64.6736 13.7663V20.6661C64.6736 20.9249 64.6303 21.0974 64.5438 21.1836C64.4573 21.2699 64.2842 21.313 64.0463 21.313H57.557C57.319 21.313 57.146 21.2699 57.0595 21.1836C56.9729 21.0974 56.9297 20.9249 56.9297 20.6661V11.0926L57.4921 12.2569C57.3407 12.4294 57.2542 12.645 57.2109 12.9038C57.1244 13.5938 57.6002 14.2191 58.2924 14.3053C58.9846 14.3916 59.6119 13.9172 59.6985 13.2272C59.7417 12.8175 59.5903 12.4294 59.3307 12.1707L60.1311 10.5104C60.1743 10.5104 60.2176 10.5319 60.2609 10.5319C60.5637 10.5751 60.8665 10.4888 61.1045 10.3379L62.8998 12.1922C62.8349 12.3 62.8133 12.4294 62.7917 12.5588C62.7052 13.2488 63.181 13.8741 63.8732 13.9603C64.1544 13.9819 64.4356 13.9172 64.6736 13.7663Z" fill="#EA524E"/>
</g>
<path opacity="0.95" d="M4.104 14.2847C4.496 14.2847 4.872 14.3407 5.232 14.4527C5.592 14.5567 5.916 14.7127 6.204 14.9207L6.072 15.4847L5.976 15.4967C5.416 15.0487 4.784 14.8247 4.08 14.8247C3.224 14.8247 2.568 15.1127 2.112 15.6887C1.664 16.2647 1.44 17.0967 1.44 18.1847C1.44 19.2727 1.66 20.1047 2.1 20.6807C2.54 21.2487 3.172 21.5327 3.996 21.5327C4.364 21.5327 4.728 21.4687 5.088 21.3407C5.448 21.2047 5.784 21.0167 6.096 20.7767L6.192 20.8127L6.144 21.4007C5.456 21.8567 4.728 22.0847 3.96 22.0847C2.952 22.0847 2.172 21.7527 1.62 21.0887C1.076 20.4167 0.804 19.4607 0.804 18.2207C0.804 16.9647 1.088 15.9967 1.656 15.3167C2.232 14.6287 3.048 14.2847 4.104 14.2847ZM12.1372 23.2367L11.6812 23.2967L11.6212 22.0127H7.44516L7.37316 23.2367L6.91716 23.2967V21.5327H7.37316C7.61316 21.3807 7.80116 21.1567 7.93716 20.8607C8.08116 20.5647 8.19716 20.1527 8.28516 19.6247C8.38116 19.0887 8.46916 18.3527 8.54916 17.4167L8.63316 16.5527H11.2972L11.2732 19.6367L11.2852 21.5327H12.1372V23.2367ZM10.7092 19.6727L10.6972 16.9967H9.10116L9.05316 17.5127C8.94916 18.7287 8.81716 19.6407 8.65716 20.2487C8.49716 20.8487 8.26916 21.2767 7.97316 21.5327H10.6972L10.7092 19.6727ZM15.4785 16.4687C16.0785 16.4687 16.5425 16.6487 16.8705 17.0087C17.2065 17.3607 17.3745 17.8567 17.3745 18.4967C17.3745 18.6567 17.3625 18.8207 17.3385 18.9887L17.2425 19.0967L13.6905 19.1207V19.3007C13.6905 20.0127 13.8505 20.5687 14.1705 20.9687C14.4985 21.3687 14.9545 21.5687 15.5385 21.5687C15.8265 21.5687 16.1105 21.5247 16.3905 21.4367C16.6705 21.3407 16.9185 21.2127 17.1345 21.0527L17.2185 21.1007L17.1345 21.6407C16.6145 21.9367 16.0585 22.0847 15.4665 22.0847C14.7385 22.0847 14.1625 21.8407 13.7385 21.3527C13.3225 20.8567 13.1145 20.1807 13.1145 19.3247C13.1145 18.7487 13.2105 18.2447 13.4025 17.8127C13.5945 17.3807 13.8705 17.0487 14.2305 16.8167C14.5905 16.5847 15.0065 16.4687 15.4785 16.4687ZM16.7985 18.4127C16.7985 17.9487 16.6825 17.5887 16.4505 17.3327C16.2185 17.0687 15.8905 16.9367 15.4665 16.9367C15.0105 16.9367 14.6305 17.0927 14.3265 17.4047C14.0225 17.7087 13.8265 18.1287 13.7385 18.6647L16.7745 18.6167L16.7985 18.4127ZM22.3323 19.6367L22.3563 22.0127H21.7443L21.7683 19.6727L21.7563 16.9967H20.1003L20.0523 17.5127C19.9563 18.6087 19.8403 19.4687 19.7043 20.0927C19.5763 20.7167 19.4083 21.1807 19.2003 21.4847C19.0003 21.7807 18.7403 21.9807 18.4203 22.0847L18.2403 22.1207L18.1203 21.6407C18.4243 21.5287 18.6643 21.3367 18.8403 21.0647C19.0243 20.7847 19.1683 20.3647 19.2723 19.8047C19.3843 19.2447 19.4843 18.4487 19.5723 17.4167L19.6443 16.5527H22.3563L22.3323 19.6367ZM26.1132 16.4687C26.6012 16.4687 26.9812 16.5927 27.2532 16.8407C27.5252 17.0887 27.6612 17.4327 27.6612 17.8727C27.6612 18.0407 27.6532 18.2647 27.6372 18.5447C27.6212 18.8167 27.6092 19.1087 27.6012 19.4207C27.5532 20.3327 27.5292 20.8487 27.5292 20.9687C27.5292 21.1767 27.5572 21.3247 27.6132 21.4127C27.6772 21.4927 27.7812 21.5327 27.9252 21.5327C28.0692 21.5327 28.2212 21.4927 28.3812 21.4127L28.4652 21.4727L28.3932 21.8687C28.2012 21.9887 27.9972 22.0527 27.7812 22.0607C27.3012 22.0447 27.0492 21.7447 27.0252 21.1607H26.9652C26.5092 21.6807 26.0372 21.9887 25.5492 22.0847C25.0692 22.0847 24.6932 21.9607 24.4212 21.7127C24.1492 21.4567 24.0132 21.1047 24.0132 20.6567C24.0132 20.0087 24.3652 19.6047 25.0692 19.4447L27.0612 18.9767L27.0852 18.0047C27.0852 17.6607 26.9932 17.4007 26.8092 17.2247C26.6252 17.0407 26.3652 16.9487 26.0292 16.9487C25.5172 16.9487 24.9572 17.2087 24.3492 17.7287L24.2772 17.6927L24.1812 17.2487C24.8372 16.7287 25.4812 16.4687 26.1132 16.4687ZM25.1892 19.8647C24.7812 19.9607 24.5772 20.2007 24.5772 20.5847C24.5772 20.8887 24.6612 21.1287 24.8292 21.3047C24.9972 21.4727 25.2292 21.5567 25.5252 21.5567C25.7652 21.5567 26.0092 21.4727 26.2572 21.3047C26.5132 21.1367 26.7612 20.8967 27.0012 20.5847L27.0492 19.4207L25.1892 19.8647ZM33.8955 19.6367L33.9195 22.0127H33.3075L33.3315 19.6727V19.4927L30.3675 19.5047V19.6367L30.3915 22.0127H29.7795L29.8035 19.6727L29.7795 16.5527H30.3915L30.3675 19.0007L33.3315 19.0127L33.3195 16.5527H33.9195L33.8955 19.6367ZM37.8973 16.4687C38.6173 16.4687 39.1773 16.7127 39.5773 17.2007C39.9853 17.6807 40.1893 18.3527 40.1893 19.2167C40.1893 20.1207 39.9773 20.8247 39.5533 21.3287C39.1293 21.8327 38.5413 22.0847 37.7893 22.0847C37.0693 22.0847 36.5093 21.8447 36.1093 21.3647C35.7093 20.8767 35.5093 20.2047 35.5093 19.3487C35.5093 18.4447 35.7173 17.7407 36.1333 17.2367C36.5573 16.7247 37.1453 16.4687 37.8973 16.4687ZM37.8733 16.9367C37.3133 16.9367 36.8773 17.1367 36.5653 17.5367C36.2533 17.9367 36.0973 18.5007 36.0973 19.2287C36.0973 19.9967 36.2453 20.5887 36.5413 21.0047C36.8453 21.4127 37.2693 21.6167 37.8133 21.6167C38.3813 21.6167 38.8213 21.4207 39.1333 21.0287C39.4453 20.6287 39.6013 20.0647 39.6013 19.3367C39.6013 18.5687 39.4493 17.9767 39.1453 17.5607C38.8413 17.1447 38.4173 16.9367 37.8733 16.9367ZM46.3846 19.1567C46.8086 19.2367 47.1286 19.3887 47.3446 19.6127C47.5606 19.8367 47.6686 20.1287 47.6686 20.4887C47.6686 21.0007 47.4646 21.3887 47.0566 21.6527C46.6486 21.9087 46.0566 22.0367 45.2806 22.0367C45.0486 22.0367 44.5886 22.0287 43.9006 22.0127L43.9246 19.6727L43.9006 16.5527L45.5206 16.5407C46.1126 16.5407 46.5686 16.6527 46.8886 16.8767C47.2086 17.1007 47.3686 17.4207 47.3686 17.8367C47.3686 18.1407 47.2846 18.4087 47.1166 18.6407C46.9486 18.8647 46.7046 19.0367 46.3846 19.1567ZM46.7806 17.8967C46.7806 17.6007 46.6606 17.3727 46.4206 17.2127C46.1886 17.0527 45.8526 16.9727 45.4126 16.9727H44.4886L44.4646 18.9887L45.6766 19.0127C46.0366 18.9567 46.3086 18.8327 46.4926 18.6407C46.6846 18.4487 46.7806 18.2007 46.7806 17.8967ZM45.3046 21.6287C45.8806 21.6287 46.3206 21.5287 46.6246 21.3287C46.9286 21.1287 47.0806 20.8407 47.0806 20.4647C47.0806 19.8567 46.6526 19.5087 45.7966 19.4207L44.4646 19.4327V19.6367L44.4886 21.5927C44.7206 21.6167 44.9926 21.6287 45.3046 21.6287Z" fill="#F1ECDC"/>
</svg>
