<svg width="113" height="51" viewBox="0 0 113 51" fill="none" xmlns="http://www.w3.org/2000/svg">
<path d="M49.2526 27.3175C49.1603 25.1007 47.5444 23.2764 44.9359 21.2213C42.7429 19.4432 36.6026 14.4092 36.6026 14.4092C38.3108 13.0468 38.7032 12.585 40.019 11.5458C44.0126 8.35919 43.4816 5.31109 43.0892 4.1565C42.3274 2.00898 40.1114 0.554199 37.5721 0.554199H27.0227H22.8676H9.17876C5.13905 0.554199 1.72262 2.84028 0.476078 6.37331C-0.862795 10.2065 0.66075 14.3861 4.56195 17.5266C6.29325 18.9121 9.4096 21.406 12.6414 23.9923C11.4872 24.3155 10.3099 24.9159 9.22492 25.9551C7.70138 27.4098 6.91652 29.3957 7.00886 31.5663C7.12428 34.2912 8.60166 36.9467 11.1871 39.0019L24.9451 50.0166L46.1363 33.0211C48.2831 31.2662 49.345 29.3495 49.2526 27.3175ZM27.0227 4.7107H37.5721C38.3339 4.7107 39.0033 5.05708 39.1649 5.51891C39.3496 6.00384 38.9802 7.04296 37.4336 8.28992C34.5943 10.5529 30.116 14.1552 27.0227 16.626V4.7107ZM7.14736 14.2476C4.67737 12.2617 3.63859 9.81397 4.37728 7.71262C5.02363 5.86529 6.89344 4.68761 9.15567 4.68761H22.8445V26.7864C18.2969 23.161 10.356 16.8107 7.14736 14.2476ZM13.7956 35.6998C12.1797 34.4066 11.2332 32.8133 11.164 31.3354C11.1178 30.3887 11.441 29.5343 12.1104 28.9108C14.4881 26.694 16.9119 27.3175 19.405 29.3264C20.2591 29.9961 21.9673 31.3585 22.8676 32.0975V42.9736L13.7956 35.6998ZM43.32 29.9268L26.9996 42.9736V21.9371C27.5998 21.4522 29.308 20.2514 30.393 19.3739C32.1935 17.9192 34.2942 17.8037 36.0486 19.2123C38.6801 21.3136 40.5961 23.0686 42.6275 24.7312C44.0587 25.9089 44.8667 26.8787 44.8897 27.6638C44.9359 28.5182 43.9433 29.4419 43.32 29.9268Z" fill="#F1ECDC"/>
<path d="M58.8329 1.63916C61.4183 1.63916 63.1727 2.56283 63.1727 4.5718C63.1727 5.58784 62.3186 6.62697 61.6953 7.18117C63.1496 7.85083 63.9345 8.93614 63.9345 10.2755C63.9345 12.5384 62.5494 14.201 59.3177 14.201H55.7627V3.64814L55.5088 1.73153L58.8329 1.63916ZM58.1865 6.65006C59.6408 6.65006 60.0794 6.74242 60.3103 6.76551C60.6104 6.32677 60.9104 5.63402 60.9104 4.96437C60.9104 3.83287 60.3103 3.44031 58.9483 3.44031C58.7175 3.44031 58.4635 3.46341 58.1865 3.4865V6.65006ZM58.1865 12.3999H59.3407C60.7027 12.3999 61.4645 11.6379 61.4645 10.3678C61.4645 9.23633 60.7489 8.45121 58.8791 8.45121H58.1865V12.3999Z" fill="#F1ECDC"/>
<path d="M71.9219 7.2507C71.9219 7.2507 71.3909 6.74268 70.6753 6.74268C69.7058 6.74268 68.5516 7.94345 68.5516 9.39822V12.608L68.7593 14.2244H66.2432V6.71959L65.9893 4.82607L68.5747 4.54897V6.25776C68.5747 6.25776 69.498 4.52588 71.1139 4.52588C71.691 4.52588 72.2219 4.7568 72.6605 5.21863L71.9219 7.2507Z" fill="#F1ECDC"/>
<path d="M76.4002 12.608L76.608 14.2245H74.0918V6.67348L73.8379 4.77996L76.4233 4.50286V12.608H76.4002ZM75.2229 0.715823C75.8924 0.715823 76.4695 1.29311 76.4695 2.03205C76.4695 2.7248 75.8924 3.279 75.2229 3.279C74.5073 3.279 73.9071 2.7248 73.9071 2.03205C73.9071 1.29311 74.5073 0.715823 75.2229 0.715823Z" fill="#F1ECDC"/>
<path d="M85.5879 7.43557C84.8954 6.58118 83.9721 6.28099 83.3026 6.28099C81.6867 6.28099 80.9942 7.80504 80.9942 9.49074C80.9942 11.061 81.7098 12.5619 83.2334 12.5619C84.8493 12.5619 86.3035 11.061 86.3035 11.061L86.6498 13.0007C86.6498 13.0007 85.2417 14.4555 82.7948 14.4555C80.0016 14.4555 78.6396 12.0539 78.6396 9.65238C78.6396 6.92756 80.2555 4.50293 83.2795 4.50293C85.5649 4.50293 86.696 5.74988 86.696 5.74988L85.5879 7.43557Z" fill="#F1ECDC"/>
<path d="M90.8738 9.05194L93.4362 5.79602L93.8748 4.77998H96.9911L93.2053 9.05194L97.1758 14.2014H94.2903L90.8738 9.4676V12.585L91.0816 14.2014H88.5654V2.17062L88.3115 0.277097L90.8969 1.40941e-06V9.05194H90.8738Z" fill="#F1ECDC"/>
<path d="M73.1919 18.3579V23.5304C73.1919 23.5304 74.0921 22.8377 75.2463 22.8377C77.2316 22.8377 79.1937 24.431 79.1937 27.6177C79.1937 30.4118 77.1854 32.7902 74.2537 32.7902C72.684 32.7902 71.2759 32.0282 70.8604 31.1738V20.5285L70.6064 18.635L73.1919 18.3579ZM73.1919 30.5734C73.5381 30.8967 74.0229 31.1045 74.5769 31.1045C75.7542 31.1045 76.7237 29.6497 76.7237 27.7793C76.7237 25.9089 75.7542 24.6158 74.5769 24.6158C73.8151 24.6158 73.1919 25.0545 73.1919 25.0545V30.5734Z" fill="#F1ECDC"/>
<path d="M87.0429 25.5853C87.0429 25.5853 86.512 25.0773 85.7964 25.0773C84.8269 25.0773 83.6727 26.2781 83.6727 27.7328V30.9426L83.8804 32.559H81.3643V25.0311L81.1103 23.1376L83.6958 22.8605V24.5693C83.6958 24.5693 84.6191 22.8374 86.235 22.8374C86.8121 22.8374 87.343 23.0683 87.7816 23.5302L87.0429 25.5853Z" fill="#F1ECDC"/>
<path d="M91.5438 30.9425L91.7515 32.5589H89.2354V25.0079L88.9815 23.1144L91.5669 22.8373V30.9425H91.5438ZM90.3434 19.0503C91.0128 19.0503 91.5899 19.6276 91.5899 20.3665C91.5899 21.0593 91.0128 21.6135 90.3434 21.6135C89.6278 21.6135 89.0276 21.0593 89.0276 20.3665C89.0507 19.6276 89.6509 19.0503 90.3434 19.0503Z" fill="#F1ECDC"/>
<path d="M100.709 25.77C100.017 24.9157 99.0931 24.6155 98.4237 24.6155C96.8078 24.6155 96.1153 26.1395 96.1153 27.8252C96.1153 29.3954 96.8309 30.8964 98.3545 30.8964C99.9703 30.8964 101.425 29.3954 101.425 29.3954L101.771 31.3351C101.771 31.3351 100.363 32.7899 97.9159 32.7899C95.1227 32.7899 93.7607 30.3884 93.7607 27.9868C93.7607 25.262 95.3766 22.8374 98.4006 22.8374C100.686 22.8374 101.817 24.0844 101.817 24.0844L100.709 25.77Z" fill="#F1ECDC"/>
<path d="M106.017 27.3635L108.58 24.1075L109.018 23.0915H112.135L108.349 27.3635L112.319 32.5129H109.434L106.017 27.7791V30.8965L106.225 32.5129H103.709V20.4821L103.455 18.5886L106.04 18.3115V27.3635H106.017Z" fill="#F1ECDC"/>
<path d="M56.5701 23.3688H58.4168L58.0244 24.5234H56.547V27.8255C56.547 28.2643 56.7779 28.4028 57.078 28.4028C57.5397 28.4028 58.2322 28.0564 58.5092 27.8255L58.6708 29.1879C58.6708 29.1879 57.9782 29.8345 56.6163 29.8345C55.5544 29.8345 55.0235 29.2803 55.0235 27.8255V24.5465H54.2617V23.3919H55.0235V22.2604L56.6855 22.0757L56.5701 23.3688Z" fill="#BE5E33"/>
<path d="M61.9724 29.8111C60.0795 29.8111 59.0869 28.1485 59.0869 26.5782C59.0869 24.7309 60.2642 23.1606 62.3879 23.1606C64.0269 23.1606 65.2504 24.1536 65.2504 26.3473C65.2504 28.2177 64.05 29.8111 61.9724 29.8111ZM62.1571 28.7026C63.0574 28.7026 63.5883 27.7328 63.5883 26.4858C63.5883 25.2389 63.0574 24.2921 62.1571 24.2921C61.2568 24.2921 60.7259 25.262 60.7259 26.4858C60.7259 27.7328 61.2799 28.7026 62.1571 28.7026Z" fill="#BE5E33"/>
<path d="M65.2492 31.3354L64.9491 32.4896H54.6074V31.3354H65.2492Z" fill="#BE5E33"/>
<path d="M27.0234 4.71045H37.5728C38.3346 4.71045 39.004 5.05682 39.1656 5.51866C39.3503 6.00358 38.981 7.04271 37.4343 8.28966C34.595 10.5526 30.1167 14.155 27.0234 16.6258V4.71045Z" fill="#6C5D2D"/>
<path d="M7.14806 14.2475C4.67807 12.2616 3.63929 9.81386 4.37798 7.71251C5.02433 5.86518 6.89414 4.6875 9.15637 4.6875H22.8452V26.7863C18.2976 23.1609 10.3567 16.8106 7.14806 14.2475Z" fill="#BE5E33"/>
<path d="M13.7961 35.6992C12.1802 34.4061 11.2337 32.8127 11.1645 31.3349C11.1183 30.3881 11.4415 29.5337 12.1109 28.9102C14.4886 26.6934 16.9124 27.3169 19.4055 29.3259C20.2596 29.9955 21.9678 31.358 22.8681 32.0969V42.9731L13.7961 35.6992Z" fill="#6C5D2D"/>
<path d="M43.3204 29.9268L27 42.9736V21.9371C27.6002 21.4521 29.3084 20.2514 30.3934 19.3739C32.1939 17.9191 34.2946 17.8037 36.0489 19.2122C38.6805 21.3136 40.5965 23.0686 42.6279 24.7312C44.0591 25.9088 44.867 26.8787 44.8901 27.6638C44.9363 28.5182 43.9437 29.4419 43.3204 29.9268Z" fill="#68B8B8"/>
<path d="M55.1625 44.0352H54.6777V42.7651L54.9317 42.719C55.024 42.6497 55.0932 42.5804 55.1625 42.488C55.2087 42.3957 55.2548 42.2571 55.301 42.0955C55.3241 41.9338 55.3472 41.7491 55.3703 41.4951C55.3933 41.2642 55.3933 40.964 55.3933 40.6407L55.4395 38.8857H57.7248C57.7248 39.5323 57.7248 40.1789 57.7248 40.8023C57.7248 41.4489 57.7248 42.0724 57.7248 42.719H58.0249V44.0352H57.5402V43.1577H55.1394V44.0352H55.1625ZM57.2401 42.719V39.3245H55.9474L55.9012 40.8023C55.8781 41.2873 55.855 41.6798 55.8319 41.98C55.8088 42.3033 55.7165 42.5342 55.6011 42.719H57.2401Z" fill="#F1ECDC"/>
<path d="M58.9941 43.158V38.8629H59.502V42.1189H59.5251L60.1714 40.8257L61.1871 38.8398H61.695V43.1349H61.1871V39.8559H61.164L60.5639 41.0566L59.502 43.1349H58.9941V43.158Z" fill="#F1ECDC"/>
<path d="M63.8188 43.2041C63.6572 43.2041 63.5187 43.181 63.3571 43.1348C63.2186 43.0887 63.0801 43.0425 62.9878 42.9501C62.8724 42.8808 62.78 42.7654 62.7108 42.6499C62.6415 42.5345 62.5953 42.3959 62.5723 42.2343L63.057 42.0726C63.1032 42.2804 63.1725 42.4421 63.311 42.5575C63.4495 42.673 63.611 42.7192 63.8188 42.7192C64.0266 42.7192 64.2112 42.6499 64.3497 42.5345C64.4882 42.419 64.5575 42.1881 64.5575 41.911C64.5575 41.6801 64.5113 41.4953 64.3959 41.3568C64.2805 41.2182 64.1189 41.1259 63.8881 41.1259H63.5187V40.664H63.8881C64.0958 40.664 64.2574 40.5947 64.3728 40.4562C64.4882 40.3176 64.5344 40.156 64.5344 39.9482C64.5344 39.7173 64.4652 39.5556 64.3497 39.4402C64.2343 39.3478 64.0727 39.2785 63.865 39.2785C63.6572 39.2785 63.4956 39.3478 63.3802 39.4402C63.2648 39.5556 63.1724 39.6942 63.1263 39.8789L62.6415 39.7173C62.7108 39.4171 62.8493 39.1862 63.057 39.0245C63.2879 38.8629 63.5418 38.7705 63.865 38.7705C64.2574 38.7705 64.5575 38.8629 64.7422 39.0476C64.9499 39.2323 65.0423 39.5094 65.0423 39.8789C65.0423 39.9482 65.0423 40.0405 65.0192 40.1329C64.9961 40.2253 64.973 40.3177 64.9268 40.41C64.8807 40.5024 64.8345 40.5717 64.7652 40.664C64.696 40.7333 64.6267 40.8026 64.5344 40.8257V40.8488C64.6498 40.8949 64.7422 40.9642 64.8114 41.0335C64.8807 41.1028 64.9268 41.1951 64.973 41.2875C65.0192 41.3799 65.0423 41.4722 65.0423 41.5646C65.0653 41.657 65.0653 41.7493 65.0653 41.8417C65.0653 42.2343 64.9499 42.5345 64.7422 42.7654C64.5344 43.0887 64.2343 43.2041 63.8188 43.2041Z" fill="#F1ECDC"/>
<path d="M68.2969 43.1578L68.0199 42.188H66.6579L66.404 43.1578H65.873L67.1196 38.8628H67.5813L68.8278 43.1578H68.2969ZM67.6043 40.6178L67.3735 39.671H67.3504L67.1196 40.6178L66.7964 41.7262H67.9275L67.6043 40.6178Z" fill="#F1ECDC"/>
<path d="M69.7051 43.1583V38.8632H70.2129V42.1191H70.236L70.8824 40.826L71.8981 38.8401H72.4059V43.1352H71.8981V39.8561H71.875L71.2748 41.0569L70.2129 43.1352H69.7051V43.1583ZM70.6054 37.8472C70.6054 37.8934 70.6284 37.9395 70.6515 37.9857C70.6746 38.0319 70.6977 38.0781 70.7439 38.1012C70.79 38.1474 70.8362 38.1705 70.8824 38.1935C70.9285 38.2166 70.9978 38.2397 71.044 38.2397C71.1132 38.2397 71.1825 38.2166 71.2286 38.1935C71.2748 38.1705 71.321 38.1474 71.3671 38.1012C71.4133 38.055 71.4364 38.0088 71.4595 37.9857C71.4825 37.9395 71.4825 37.8934 71.4825 37.8472H71.8981C71.8981 37.9395 71.875 38.0088 71.8288 38.1012C71.8057 38.1935 71.7596 38.2859 71.6903 38.3552C71.6211 38.4245 71.5518 38.4937 71.4364 38.5399C71.321 38.5861 71.2055 38.6092 71.044 38.6092C70.8824 38.6092 70.7439 38.5861 70.6515 38.5399C70.5361 38.4937 70.4668 38.4245 70.3976 38.3552C70.3283 38.2859 70.2822 38.1935 70.2591 38.1012C70.236 38.0088 70.2129 37.9164 70.2129 37.8472H70.6054Z" fill="#F1ECDC"/>
<path d="M75.5686 43.1578V41.1951H74.1143V43.1578H73.6064V38.8628H74.1143V40.7563H75.5686V38.8628H76.0764V43.1578H75.5686Z" fill="#F1ECDC"/>
<path d="M79.0312 43.158V38.8629H79.5391V42.1189H79.5622L80.2085 40.8257L81.2242 38.8398H81.7321V43.1349H81.2242V39.8559H81.2012L80.601 41.0566L79.5391 43.1349H79.0312V43.158Z" fill="#F1ECDC"/>
<path d="M84.8951 43.1578V41.1951H83.4639V43.1578H82.9561V38.8628H83.4639V40.7563H84.9182V38.8628H85.426V43.1578H84.8951Z" fill="#F1ECDC"/>
<path d="M87.7576 39.3476V43.1808H87.2498V39.3476H86.2803V38.8857H88.7503V39.3476H87.7576Z" fill="#F1ECDC"/>
<path d="M89.5811 43.1578V38.8628H91.8664V39.3477H90.112V40.7563H91.6124V41.2181H90.112V42.6729H91.8664V43.1809H89.5811V43.1578Z" fill="#F1ECDC"/>
<path d="M95.2825 40.1558C95.2825 40.3174 95.2594 40.4791 95.2132 40.6407C95.1671 40.8024 95.0978 40.9409 95.0055 41.0564C94.9131 41.1718 94.7746 41.2642 94.6361 41.3335C94.4746 41.4027 94.2899 41.4489 94.059 41.4489H93.3204V43.1808H92.8125V38.8857H94.036C94.4284 38.8857 94.7516 39.0012 94.9593 39.209C95.1671 39.3938 95.2825 39.717 95.2825 40.1558ZM94.7516 40.1558C94.7516 39.9018 94.7054 39.717 94.59 39.5785C94.4746 39.4399 94.2899 39.3707 94.0129 39.3707H93.3204V40.964H94.0129C94.1514 40.964 94.2668 40.9409 94.3591 40.8947C94.4515 40.8485 94.5207 40.7793 94.59 40.71C94.6361 40.6407 94.6823 40.5483 94.7054 40.456C94.7516 40.3636 94.7516 40.2482 94.7516 40.1558Z" fill="#F1ECDC"/>
<path d="M96.2061 43.1578V38.8628H96.7139V40.6409H97.4064C97.6373 40.6409 97.8219 40.6639 97.9835 40.7332C98.1451 40.8025 98.2836 40.8718 98.3759 40.9872C98.4683 41.1027 98.5606 41.2181 98.6068 41.3798C98.653 41.5414 98.6761 41.7031 98.6761 41.8647C98.6761 42.2804 98.5606 42.6036 98.3529 42.8346C98.1451 43.0424 97.8219 43.1578 97.4295 43.1578H96.2061ZM96.737 42.696H97.4295C97.7065 42.696 97.8912 42.6267 98.0066 42.4882C98.122 42.3496 98.1682 42.1649 98.1682 41.9109C98.1682 41.8185 98.1451 41.7262 98.122 41.6338C98.0989 41.5414 98.0528 41.4491 98.0066 41.3798C97.9604 41.3105 97.8681 41.2643 97.7758 41.2181C97.6834 41.172 97.568 41.1489 97.4064 41.1489H96.7139V42.696H96.737Z" fill="#F1ECDC"/>
<path d="M99.6221 43.1578V38.8628H101.907V39.3477H100.153V40.7563H101.653V41.2181H100.153V42.6729H101.907V43.1809H99.6221V43.1578Z" fill="#F1ECDC"/>
<path d="M105.347 40.1558C105.347 40.3174 105.324 40.4791 105.278 40.6407C105.232 40.8024 105.162 40.9409 105.07 41.0564C104.978 41.1718 104.839 41.2642 104.701 41.3335C104.539 41.4027 104.354 41.4489 104.123 41.4489H103.385V43.1808H102.877V38.8857H104.1C104.493 38.8857 104.816 39.0012 105.024 39.209C105.232 39.3938 105.347 39.717 105.347 40.1558ZM104.816 40.1558C104.816 39.9018 104.77 39.717 104.654 39.5785C104.539 39.4399 104.354 39.3707 104.077 39.3707H103.385V40.964H104.077C104.216 40.964 104.331 40.9409 104.424 40.8947C104.516 40.8485 104.585 40.7793 104.654 40.71C104.701 40.6407 104.747 40.5483 104.77 40.456C104.816 40.3636 104.816 40.2482 104.816 40.1558Z" fill="#F1ECDC"/>
<path d="M108.671 41.911C108.671 42.1189 108.648 42.2805 108.578 42.4421C108.509 42.6038 108.44 42.7423 108.325 42.8578C108.209 42.9733 108.071 43.0656 107.932 43.1118C107.771 43.1811 107.609 43.2042 107.424 43.2042C107.193 43.2042 107.009 43.158 106.847 43.0887C106.686 43.0194 106.547 42.904 106.455 42.7885C106.362 42.6731 106.27 42.5114 106.247 42.3498C106.201 42.1881 106.178 42.0034 106.178 41.8418V40.1099C106.178 39.9713 106.201 39.8097 106.247 39.6711C106.293 39.5095 106.362 39.371 106.455 39.2555C106.547 39.14 106.686 39.0246 106.847 38.9553C107.009 38.886 107.193 38.8398 107.424 38.8398C107.632 38.8398 107.84 38.886 107.978 38.9553C108.14 39.0246 108.278 39.1169 108.371 39.2555C108.463 39.371 108.555 39.5095 108.602 39.6711C108.648 39.8328 108.671 39.9713 108.671 40.133V41.911ZM108.14 40.133C108.14 40.0637 108.14 39.9944 108.117 39.9021C108.094 39.8097 108.048 39.7173 108.001 39.6481C107.955 39.5557 107.863 39.4864 107.771 39.4402C107.678 39.371 107.563 39.3479 107.401 39.3479C107.263 39.3479 107.124 39.371 107.032 39.4402C106.94 39.4864 106.87 39.5557 106.801 39.6481C106.732 39.7173 106.709 39.8097 106.686 39.9021C106.662 39.9944 106.662 40.0868 106.662 40.1561V41.8418C106.662 41.9572 106.686 42.0727 106.709 42.1881C106.732 42.3036 106.778 42.396 106.847 42.4652C106.916 42.5345 106.986 42.6038 107.078 42.65C107.17 42.6962 107.286 42.7192 107.424 42.7192C107.517 42.7192 107.609 42.6962 107.701 42.6731C107.794 42.6269 107.863 42.5807 107.932 42.5114C108.001 42.4422 108.048 42.3729 108.094 42.2805C108.14 42.1881 108.163 42.0727 108.163 41.9572V40.133H108.14Z" fill="#F1ECDC"/>
<path d="M112.249 41.934C112.249 42.3265 112.134 42.6498 111.949 42.8577C111.741 43.0655 111.464 43.1578 111.118 43.1578H109.779V38.8628H111.003C111.395 38.8628 111.695 38.9552 111.88 39.163C112.065 39.3708 112.157 39.6479 112.157 39.9943C112.157 40.2021 112.111 40.3638 112.042 40.5254C111.972 40.687 111.834 40.8025 111.603 40.918V40.941C111.718 40.9641 111.811 41.0103 111.88 41.0796C111.949 41.1489 112.018 41.2181 112.065 41.3105C112.111 41.4029 112.157 41.4952 112.18 41.6107C112.226 41.7031 112.249 41.8185 112.249 41.934ZM110.287 39.3477V40.7332H110.957C111.211 40.7332 111.372 40.6639 111.488 40.5485C111.603 40.4099 111.649 40.2483 111.649 40.0405C111.649 39.8326 111.603 39.671 111.488 39.5555C111.372 39.4401 111.187 39.3708 110.957 39.3708H110.287V39.3477ZM110.287 41.172V42.6729H111.026C111.164 42.6729 111.28 42.6498 111.372 42.6036C111.464 42.5575 111.534 42.5113 111.58 42.442C111.626 42.3727 111.672 42.2804 111.695 42.188C111.718 42.0956 111.718 42.0033 111.718 41.8878C111.718 41.68 111.672 41.4952 111.557 41.3567C111.441 41.2181 111.257 41.1489 111.003 41.1489H110.287V41.172Z" fill="#F1ECDC"/>
</svg>
