<svg width="297" height="22" viewBox="0 0 297 22" fill="none" xmlns="http://www.w3.org/2000/svg">
<path d="M9.54492 18H8.38281V9.03809H3.24902V18H2.08691V8.00586H9.54492V18ZM15.6152 18.1367C15.1276 18.1367 14.681 18.0479 14.2754 17.8701C13.8743 17.6878 13.5371 17.4098 13.2637 17.0361H13.1816C13.2363 17.4736 13.2637 17.8883 13.2637 18.2803V21.3633H12.1289V10.5078H13.0518L13.209 11.5332H13.2637C13.5553 11.123 13.8949 10.8268 14.2822 10.6445C14.6696 10.4622 15.1139 10.3711 15.6152 10.3711C16.6087 10.3711 17.3743 10.7106 17.9121 11.3896C18.4544 12.0687 18.7256 13.0212 18.7256 14.2471C18.7256 15.4775 18.4499 16.4346 17.8984 17.1182C17.3516 17.7972 16.5905 18.1367 15.6152 18.1367ZM15.4512 11.335C14.6855 11.335 14.1318 11.5469 13.79 11.9707C13.4482 12.3945 13.2728 13.069 13.2637 13.9941V14.2471C13.2637 15.2998 13.4391 16.054 13.79 16.5098C14.141 16.9609 14.7038 17.1865 15.4785 17.1865C16.1257 17.1865 16.6315 16.9245 16.9961 16.4004C17.3652 15.8763 17.5498 15.154 17.5498 14.2334C17.5498 13.2992 17.3652 12.5837 16.9961 12.0869C16.6315 11.5856 16.1165 11.335 15.4512 11.335ZM21.7812 10.5078V15.2588L21.7334 16.5029L21.7129 16.8926L25.7666 10.5078H27.1816V18H26.1221V13.4199L26.1426 12.5176L26.1768 11.6289L22.1299 18H20.7148V10.5078H21.7812ZM30.7227 10.5078V13.6455H34.9199V10.5078H36.0547V18H34.9199V14.623H30.7227V18H29.5879V10.5078H30.7227ZM39.5273 10.5078V15.2588L39.4795 16.5029L39.459 16.8926L43.5127 10.5078H44.9277V18H43.8682V13.4199L43.8887 12.5176L43.9229 11.6289L39.876 18H38.4609V10.5078H39.5273ZM51.2236 16.9062L51.4355 16.2705L51.7295 15.4639L53.7598 10.5215H55.2021V18H54.1973V11.8135L54.0605 12.21L53.6641 13.2559L51.7295 18H50.7793L48.8447 13.2422C48.6032 12.6315 48.4368 12.1553 48.3457 11.8135V18H47.334V10.5215H48.7217L50.6836 15.2725C50.8796 15.7738 51.0596 16.3184 51.2236 16.9062ZM62.2363 18L62.0107 16.9336H61.9561C61.5824 17.403 61.2087 17.722 60.835 17.8906C60.4658 18.0547 60.0033 18.1367 59.4473 18.1367C58.7044 18.1367 58.1211 17.9453 57.6973 17.5625C57.278 17.1797 57.0684 16.6351 57.0684 15.9287C57.0684 14.4157 58.2783 13.6227 60.6982 13.5498L61.9697 13.5088V13.0439C61.9697 12.4561 61.8421 12.0231 61.5869 11.7451C61.3363 11.4626 60.9329 11.3213 60.377 11.3213C59.7526 11.3213 59.0462 11.5127 58.2578 11.8955L57.9092 11.0273C58.2783 10.8268 58.6816 10.6696 59.1191 10.5557C59.5612 10.4417 60.0033 10.3848 60.4453 10.3848C61.3385 10.3848 61.9993 10.583 62.4277 10.9795C62.8607 11.376 63.0771 12.0117 63.0771 12.8867V18H62.2363ZM59.6729 17.2002C60.3792 17.2002 60.9329 17.0065 61.334 16.6191C61.7396 16.2318 61.9424 15.6895 61.9424 14.9922V14.3154L60.8076 14.3633C59.9053 14.3952 59.2536 14.5365 58.8525 14.7871C58.4561 15.0332 58.2578 15.4183 58.2578 15.9424C58.2578 16.3525 58.3809 16.6647 58.627 16.8789C58.8776 17.0931 59.2262 17.2002 59.6729 17.2002ZM68.5869 18.1367C67.4795 18.1367 66.6045 17.7995 65.9619 17.125C65.3239 16.4505 65.0049 15.514 65.0049 14.3154C65.0049 13.1077 65.3011 12.1484 65.8936 11.4375C66.4906 10.7266 67.2904 10.3711 68.293 10.3711C69.2318 10.3711 69.9746 10.681 70.5215 11.3008C71.0684 11.916 71.3418 12.7295 71.3418 13.7412V14.459H66.1807C66.2035 15.3385 66.4245 16.0062 66.8438 16.4619C67.2676 16.9176 67.8623 17.1455 68.6279 17.1455C69.4346 17.1455 70.2321 16.9769 71.0205 16.6396V17.6514C70.6195 17.8245 70.2389 17.9476 69.8789 18.0205C69.5234 18.098 69.0928 18.1367 68.5869 18.1367ZM68.2793 11.3213C67.6777 11.3213 67.1969 11.5173 66.8369 11.9092C66.4814 12.3011 66.2718 12.8434 66.208 13.5361H70.125C70.125 12.8206 69.9655 12.2738 69.6465 11.8955C69.3275 11.5127 68.8717 11.3213 68.2793 11.3213ZM77.1729 16.9062L77.3848 16.2705L77.6787 15.4639L79.709 10.5215H81.1514V18H80.1465V11.8135L80.0098 12.21L79.6133 13.2559L77.6787 18H76.7285L74.7939 13.2422C74.5524 12.6315 74.3861 12.1553 74.2949 11.8135V18H73.2832V10.5215H74.6709L76.6328 15.2725C76.8288 15.7738 77.0088 16.3184 77.1729 16.9062ZM91.583 10.5078H92.8271L89.5938 14.124L93.0938 18H91.7676L88.3496 14.2061V18H87.2148V10.5078H88.3496V14.1514L91.583 10.5078ZM104.592 14.2471C104.592 15.4684 104.284 16.4232 103.669 17.1113C103.054 17.7949 102.204 18.1367 101.119 18.1367C100.449 18.1367 99.8545 17.9795 99.335 17.665C98.8154 17.3506 98.4144 16.8994 98.1318 16.3115C97.8493 15.7236 97.708 15.0355 97.708 14.2471C97.708 13.0257 98.0133 12.0755 98.624 11.3965C99.2347 10.7129 100.082 10.3711 101.167 10.3711C102.215 10.3711 103.047 10.7197 103.662 11.417C104.282 12.1143 104.592 13.0576 104.592 14.2471ZM98.8838 14.2471C98.8838 15.2041 99.0752 15.9333 99.458 16.4346C99.8408 16.9359 100.404 17.1865 101.146 17.1865C101.889 17.1865 102.452 16.9382 102.835 16.4414C103.222 15.9401 103.416 15.2087 103.416 14.2471C103.416 13.2946 103.222 12.5723 102.835 12.0801C102.452 11.5833 101.885 11.335 101.133 11.335C100.39 11.335 99.8294 11.5788 99.4512 12.0664C99.0729 12.554 98.8838 13.2809 98.8838 14.2471ZM107.723 18H106.588V10.5078H112.877V18H111.729V11.4922H107.723V18ZM120.868 18H119.72V11.4785H117.471C117.348 13.1009 117.177 14.3883 116.958 15.3408C116.739 16.2933 116.454 16.9906 116.104 17.4326C115.757 17.8747 115.315 18.0957 114.777 18.0957C114.531 18.0957 114.335 18.0684 114.189 18.0137V17.1729C114.29 17.2002 114.404 17.2139 114.531 17.2139C115.055 17.2139 115.472 16.6602 115.782 15.5527C116.092 14.4453 116.327 12.7637 116.486 10.5078H120.868V18ZM127.889 18L127.663 16.9336H127.608C127.235 17.403 126.861 17.722 126.487 17.8906C126.118 18.0547 125.656 18.1367 125.1 18.1367C124.357 18.1367 123.773 17.9453 123.35 17.5625C122.93 17.1797 122.721 16.6351 122.721 15.9287C122.721 14.4157 123.931 13.6227 126.351 13.5498L127.622 13.5088V13.0439C127.622 12.4561 127.494 12.0231 127.239 11.7451C126.989 11.4626 126.585 11.3213 126.029 11.3213C125.405 11.3213 124.699 11.5127 123.91 11.8955L123.562 11.0273C123.931 10.8268 124.334 10.6696 124.771 10.5557C125.214 10.4417 125.656 10.3848 126.098 10.3848C126.991 10.3848 127.652 10.583 128.08 10.9795C128.513 11.376 128.729 12.0117 128.729 12.8867V18H127.889ZM125.325 17.2002C126.032 17.2002 126.585 17.0065 126.986 16.6191C127.392 16.2318 127.595 15.6895 127.595 14.9922V14.3154L126.46 14.3633C125.558 14.3952 124.906 14.5365 124.505 14.7871C124.108 15.0332 123.91 15.4183 123.91 15.9424C123.91 16.3525 124.033 16.6647 124.279 16.8789C124.53 17.0931 124.879 17.2002 125.325 17.2002ZM136.126 11.4785H133.692V18H132.558V11.4785H130.151V10.5078H136.126V11.4785ZM140.774 18.1367C139.667 18.1367 138.792 17.7995 138.149 17.125C137.511 16.4505 137.192 15.514 137.192 14.3154C137.192 13.1077 137.489 12.1484 138.081 11.4375C138.678 10.7266 139.478 10.3711 140.48 10.3711C141.419 10.3711 142.162 10.681 142.709 11.3008C143.256 11.916 143.529 12.7295 143.529 13.7412V14.459H138.368C138.391 15.3385 138.612 16.0062 139.031 16.4619C139.455 16.9176 140.05 17.1455 140.815 17.1455C141.622 17.1455 142.42 16.9769 143.208 16.6396V17.6514C142.807 17.8245 142.426 17.9476 142.066 18.0205C141.711 18.098 141.28 18.1367 140.774 18.1367ZM140.467 11.3213C139.865 11.3213 139.384 11.5173 139.024 11.9092C138.669 12.3011 138.459 12.8434 138.396 13.5361H142.312C142.312 12.8206 142.153 12.2738 141.834 11.8955C141.515 11.5127 141.059 11.3213 140.467 11.3213ZM145.307 17.2754C145.307 16.9701 145.375 16.7399 145.512 16.585C145.653 16.4255 145.854 16.3457 146.113 16.3457C146.378 16.3457 146.583 16.4255 146.729 16.585C146.879 16.7399 146.954 16.9701 146.954 17.2754C146.954 17.5716 146.879 17.7995 146.729 17.959C146.578 18.1185 146.373 18.1982 146.113 18.1982C145.881 18.1982 145.687 18.1276 145.532 17.9863C145.382 17.8405 145.307 17.6035 145.307 17.2754ZM145.307 11.2393C145.307 10.624 145.576 10.3164 146.113 10.3164C146.674 10.3164 146.954 10.624 146.954 11.2393C146.954 11.5355 146.879 11.7633 146.729 11.9229C146.578 12.0824 146.373 12.1621 146.113 12.1621C145.881 12.1621 145.687 12.0915 145.532 11.9502C145.382 11.8044 145.307 11.5674 145.307 11.2393Z" fill="#4F4F4F"/>
<g clip-path="url(#clip0)">
<path d="M165.166 21.8907V20.4346C165.166 19.8763 164.825 19.5124 164.24 19.5124C163.947 19.5124 163.631 19.6094 163.411 19.925C163.241 19.658 162.997 19.5124 162.632 19.5124C162.388 19.5124 162.144 19.5851 161.949 19.8521V19.5609H161.438V21.8907H161.949V20.6044C161.949 20.1919 162.169 19.9977 162.51 19.9977C162.851 19.9977 163.022 20.2161 163.022 20.6044V21.8907H163.533V20.6044C163.533 20.1919 163.777 19.9977 164.094 19.9977C164.435 19.9977 164.605 20.2161 164.605 20.6044V21.8907H165.166ZM172.744 19.5609H171.916V18.8571H171.404V19.5609H170.941V20.0219H171.404V21.0898C171.404 21.6238 171.623 21.9392 172.208 21.9392C172.427 21.9392 172.671 21.8665 172.842 21.7694L172.695 21.3325C172.549 21.4296 172.379 21.4539 172.257 21.4539C172.013 21.4539 171.916 21.3083 171.916 21.0655V20.0219H172.744V19.5609ZM177.082 19.5123C176.789 19.5123 176.594 19.658 176.472 19.8521V19.5609H175.961V21.8907H176.472V20.5802C176.472 20.1919 176.643 19.9735 176.96 19.9735C177.057 19.9735 177.179 19.9978 177.277 20.022L177.423 19.5367C177.325 19.5124 177.179 19.5124 177.082 19.5124V19.5123ZM170.527 19.755C170.283 19.5851 169.942 19.5124 169.576 19.5124C168.992 19.5124 168.602 19.8036 168.602 20.2647C168.602 20.6531 168.894 20.8714 169.406 20.9442L169.649 20.9686C169.918 21.017 170.064 21.0898 170.064 21.2112C170.064 21.381 169.869 21.5024 169.528 21.5024C169.186 21.5024 168.918 21.381 168.748 21.2598L168.504 21.648C168.772 21.8422 169.138 21.9392 169.503 21.9392C170.186 21.9392 170.575 21.6238 170.575 21.1869C170.575 20.7743 170.259 20.5559 169.771 20.4831L169.528 20.4588C169.308 20.4345 169.138 20.3861 169.138 20.2405C169.138 20.0705 169.308 19.9735 169.576 19.9735C169.869 19.9735 170.161 20.0948 170.307 20.1676L170.527 19.755ZM184.124 19.5124C183.832 19.5124 183.637 19.658 183.515 19.8521V19.5609H183.003V21.8907H183.515V20.5802C183.515 20.1919 183.685 19.9735 184.002 19.9735C184.1 19.9735 184.221 19.9978 184.319 20.022L184.465 19.5367C184.368 19.5124 184.221 19.5124 184.124 19.5124ZM177.593 20.7258C177.593 21.4296 178.081 21.9392 178.836 21.9392C179.177 21.9392 179.421 21.8665 179.665 21.6723L179.421 21.2598C179.226 21.4054 179.031 21.4781 178.812 21.4781C178.397 21.4781 178.105 21.1869 178.105 20.7258C178.105 20.289 178.397 19.9977 178.812 19.9735C179.031 19.9735 179.226 20.0462 179.421 20.1919L179.665 19.7794C179.421 19.5851 179.177 19.5124 178.836 19.5124C178.081 19.5124 177.593 20.022 177.593 20.7258ZM182.321 20.7258V19.5609H181.809V19.8521C181.638 19.6338 181.395 19.5124 181.078 19.5124C180.42 19.5124 179.908 20.022 179.908 20.7258C179.908 21.4296 180.42 21.9392 181.078 21.9392C181.419 21.9392 181.663 21.8179 181.809 21.5995V21.8907H182.321V20.7258ZM180.444 20.7258C180.444 20.3132 180.712 19.9735 181.151 19.9735C181.565 19.9735 181.858 20.289 181.858 20.7258C181.858 21.1384 181.565 21.4781 181.151 21.4781C180.712 21.4538 180.444 21.1384 180.444 20.7258ZM174.328 19.5124C173.646 19.5124 173.158 19.9977 173.158 20.7258C173.158 21.4539 173.646 21.9392 174.352 21.9392C174.694 21.9392 175.035 21.8422 175.303 21.6238L175.059 21.2598C174.864 21.4054 174.621 21.5024 174.377 21.5024C174.06 21.5024 173.743 21.3568 173.67 20.9441H175.4V20.7501C175.425 19.9977 174.986 19.5124 174.328 19.5124H174.328ZM174.328 19.9492C174.645 19.9492 174.864 20.1434 174.913 20.5075H173.695C173.743 20.1919 173.963 19.9492 174.328 19.9492ZM187.024 20.7258V18.6387H186.512V19.8521C186.341 19.6338 186.098 19.5124 185.781 19.5124C185.123 19.5124 184.611 20.022 184.611 20.7258C184.611 21.4296 185.123 21.9392 185.781 21.9392C186.122 21.9392 186.366 21.8179 186.512 21.5995V21.8907H187.024V20.7258ZM185.147 20.7258C185.147 20.3132 185.415 19.9735 185.854 19.9735C186.268 19.9735 186.561 20.289 186.561 20.7258C186.561 21.1384 186.268 21.4781 185.854 21.4781C185.415 21.4538 185.147 21.1384 185.147 20.7258ZM168.041 20.7258V19.5609H167.529V19.8521C167.359 19.6338 167.115 19.5124 166.798 19.5124C166.14 19.5124 165.629 20.022 165.629 20.7258C165.629 21.4296 166.14 21.9392 166.798 21.9392C167.14 21.9392 167.383 21.8179 167.529 21.5995V21.8907H168.041V20.7258ZM166.14 20.7258C166.14 20.3132 166.409 19.9735 166.847 19.9735C167.261 19.9735 167.554 20.289 167.554 20.7258C167.554 21.1384 167.261 21.4781 166.847 21.4781C166.409 21.4538 166.14 21.1384 166.14 20.7258Z" fill="black"/>
<path d="M170.356 1.86865H178.032V15.6049H170.356V1.86865Z" fill="#FF5F00"/>
<path d="M170.844 8.73687C170.844 5.94597 172.16 3.47047 174.182 1.86867C172.696 0.703779 170.819 0 168.773 0C163.923 0 160 3.90727 160 8.73687C160 13.5664 163.923 17.4737 168.772 17.4737C170.819 17.4737 172.696 16.77 174.182 15.605C172.16 14.0275 170.844 11.5278 170.844 8.73687Z" fill="#EB001B"/>
<path d="M188.388 8.73687C188.388 13.5664 184.465 17.4737 179.616 17.4737C177.569 17.4737 175.692 16.77 174.206 15.605C176.253 14.0033 177.544 11.5278 177.544 8.73687C177.544 5.94597 176.229 3.47047 174.206 1.86867C175.692 0.703779 177.569 0 179.616 0C184.465 0 188.388 3.93159 188.388 8.73687H188.388Z" fill="#F79E1B"/>
</g>
<g clip-path="url(#clip1)">
<path d="M209.217 15.6226H201.533V1.86963H209.217L209.217 15.6226Z" fill="#6C6BBD"/>
<path d="M202.021 8.74649C202.021 5.95669 203.333 3.47158 205.375 1.87011C203.882 0.699025 201.996 0 199.948 0C195.098 0 191.167 3.91589 191.167 8.74649C191.167 13.5772 195.098 17.4931 199.948 17.4931C201.997 17.4931 203.882 16.7941 205.375 15.623C203.333 14.0215 202.021 11.5364 202.021 8.7466" fill="#D32011"/>
<path d="M219.584 8.74649C219.584 13.5772 215.652 17.4931 210.803 17.4931C208.754 17.4931 206.869 16.7941 205.375 15.623C207.418 14.0215 208.729 11.5364 208.729 8.7466C208.729 5.95669 207.418 3.47158 205.375 1.87011C206.869 0.699025 208.754 0 210.803 0C215.652 0 219.584 3.91589 219.584 8.74649Z" fill="#0099DF"/>
<path d="M211.818 19.509C211.92 19.509 212.067 19.5284 212.179 19.5723L212.023 20.0484C211.915 20.0044 211.808 19.99 211.705 19.99C211.374 19.99 211.208 20.2035 211.208 20.5872V21.8895H210.7V19.5673H211.203V19.8493C211.335 19.6452 211.525 19.509 211.818 19.509ZM209.943 20.0289H209.113V21.0782C209.113 21.3112 209.196 21.4669 209.45 21.4669C209.582 21.4669 209.748 21.423 209.899 21.3356L210.045 21.7677C209.884 21.8794 209.631 21.9479 209.411 21.9479C208.811 21.9479 208.602 21.6271 208.602 21.0877V20.0289H208.128V19.5673H208.602V18.8628H209.113V19.5673H209.943V20.0289ZM203.45 20.5243C203.504 20.189 203.708 19.9605 204.07 19.9605C204.396 19.9605 204.606 20.1646 204.66 20.5243H203.45ZM205.187 20.7284C205.182 20.0044 204.733 19.509 204.079 19.509C203.396 19.509 202.918 20.0044 202.918 20.7284C202.918 21.4663 203.416 21.9473 204.114 21.9473C204.465 21.9473 204.786 21.86 205.069 21.6221L204.82 21.2477C204.626 21.4035 204.377 21.4907 204.143 21.4907C203.816 21.4907 203.518 21.3401 203.445 20.9225H205.177C205.182 20.859 205.187 20.7963 205.187 20.7284H205.187ZM207.416 20.1601C207.274 20.0722 206.987 19.9605 206.689 19.9605C206.411 19.9605 206.245 20.0627 206.245 20.233C206.245 20.3881 206.421 20.432 206.64 20.4609L206.879 20.4949C207.387 20.5683 207.694 20.7818 207.694 21.1899C207.694 21.6321 207.303 21.9479 206.631 21.9479C206.25 21.9479 205.899 21.8506 205.62 21.6465L205.86 21.2528C206.03 21.3841 206.284 21.4958 206.636 21.4958C206.982 21.4958 207.167 21.3941 207.167 21.2139C207.167 21.0831 207.035 21.0098 206.757 20.9714L206.518 20.9375C205.996 20.8641 205.713 20.6311 205.713 20.2524C205.713 19.7909 206.094 19.509 206.684 19.509C207.055 19.509 207.392 19.5919 207.635 19.752L207.416 20.1601H207.416ZM213.672 19.9888C213.567 19.9888 213.471 20.0071 213.381 20.0433C213.294 20.0784 213.215 20.1306 213.149 20.1968C213.082 20.2646 213.03 20.3449 212.995 20.4331C212.957 20.5248 212.939 20.6261 212.939 20.7362C212.939 20.8468 212.957 20.9475 212.995 21.0392C213.032 21.131 213.083 21.2099 213.149 21.2756C213.215 21.3418 213.294 21.394 213.381 21.4291C213.471 21.4658 213.567 21.4836 213.672 21.4836C213.776 21.4836 213.873 21.4659 213.963 21.4291C214.05 21.3941 214.129 21.3419 214.196 21.2756C214.263 21.2099 214.314 21.131 214.352 21.0392C214.389 20.9475 214.408 20.8469 214.408 20.7362C214.408 20.6261 214.389 20.5248 214.352 20.4331C214.314 20.3413 214.263 20.2624 214.196 20.1968C214.129 20.1305 214.05 20.0782 213.963 20.0433C213.87 20.0065 213.771 19.988 213.672 19.9888H213.672ZM213.672 19.509C213.853 19.509 214.02 19.54 214.174 19.6029C214.328 19.6652 214.462 19.7514 214.574 19.861C214.687 19.9715 214.777 20.1034 214.838 20.249C214.902 20.3987 214.934 20.561 214.934 20.7362C214.934 20.9113 214.902 21.0737 214.838 21.2233C214.777 21.3692 214.687 21.5013 214.574 21.612C214.462 21.7215 214.328 21.8073 214.174 21.8701C214.02 21.9323 213.853 21.9635 213.672 21.9635C213.491 21.9635 213.323 21.9323 213.169 21.8701C213.015 21.8073 212.883 21.7216 212.771 21.612C212.659 21.501 212.569 21.3689 212.508 21.2233C212.445 21.0737 212.413 20.9113 212.413 20.7362C212.413 20.561 212.445 20.3987 212.508 20.2491C212.569 20.1037 212.659 19.9718 212.771 19.861C212.885 19.7495 213.021 19.6618 213.169 19.6029C213.323 19.54 213.491 19.509 213.672 19.509ZM200.486 20.7284C200.486 20.3202 200.755 19.9849 201.194 19.9849C201.613 19.9849 201.896 20.3058 201.896 20.7284C201.896 21.151 201.613 21.4713 201.194 21.4713C200.755 21.4713 200.486 21.1365 200.486 20.7284ZM202.374 20.7284V19.5673H201.867V19.8493C201.706 19.6402 201.462 19.509 201.13 19.509C200.477 19.509 199.965 20.0188 199.965 20.7284C199.965 21.4375 200.477 21.9479 201.13 21.9479C201.462 21.9479 201.705 21.8167 201.867 21.6076V21.8895H202.374V20.7284ZM199.516 21.8895V20.432C199.516 19.8832 199.164 19.5139 198.599 19.5089C198.301 19.5039 197.994 19.5962 197.779 19.9221C197.618 19.6646 197.364 19.509 197.008 19.509C196.76 19.509 196.516 19.5818 196.325 19.8537V19.5673H195.818V21.8895H196.33V20.6022C196.33 20.199 196.555 19.9849 196.901 19.9849C197.238 19.9849 197.408 20.2035 197.408 20.5971V21.8895H197.921V20.6022C197.921 20.199 198.155 19.9849 198.491 19.9849C198.838 19.9849 199.004 20.2035 199.004 20.5971V21.8895H199.516Z" fill="#110F0D"/>
</g>
<g clip-path="url(#clip2)">
<path d="M242.213 6.79452C242.192 8.44792 243.683 9.37053 244.806 9.91913C245.96 10.4819 246.348 10.8429 246.343 11.3463C246.334 12.1165 245.423 12.4565 244.569 12.4697C243.081 12.4928 242.215 12.0669 241.527 11.7447L240.991 14.26C241.681 14.5788 242.96 14.8569 244.285 14.8691C247.397 14.8691 249.433 13.3294 249.444 10.9422C249.456 7.91253 245.263 7.74484 245.292 6.39065C245.302 5.98002 245.692 5.54184 246.549 5.43042C246.973 5.37414 248.143 5.33107 249.47 5.94356L249.991 3.50997C249.277 3.24953 248.36 3.00014 247.218 3.00014C244.29 3.00014 242.23 4.56079 242.213 6.79452ZM254.995 3.20976C254.427 3.20976 253.948 3.54199 253.734 4.05182L249.289 14.6904H252.399L253.018 12.9763H256.817L257.176 14.6904H259.917L257.525 3.20976H254.995ZM255.43 6.31111L256.327 10.6222H253.87L255.43 6.31111ZM238.443 3.2099L235.992 14.6902H238.955L241.405 3.20961H238.443V3.2099ZM234.06 3.20961L230.976 11.0239L229.728 4.37975C229.582 3.63804 229.004 3.20976 228.362 3.20976H223.321L223.25 3.54314C224.285 3.76826 225.461 4.13136 226.173 4.51987C226.609 4.7572 226.734 4.96467 226.877 5.52863L229.24 14.6904H232.371L237.171 3.20976H234.06" fill="url(#paint0_linear)"/>
</g>
<g clip-path="url(#clip3)">
<path fill-rule="evenodd" clip-rule="evenodd" d="M292.878 3.9165H286.615C286.952 5.94627 288.972 7.84508 291.195 7.84508H296.178C296.246 7.64865 296.246 7.38674 296.246 7.19031C296.246 5.35698 294.764 3.9165 292.878 3.9165Z" fill="url(#paint1_linear)"/>
<path fill-rule="evenodd" clip-rule="evenodd" d="M287.154 8.17236V13.0831H290.185V10.464H292.879C294.36 10.464 295.64 9.48189 296.044 8.17236H287.154Z" fill="#4DB45F"/>
<path fill-rule="evenodd" clip-rule="evenodd" d="M276.379 3.9165V13.0832H279.073C279.073 13.0832 279.746 13.0832 280.083 12.4284C281.901 8.89269 282.44 7.84508 282.44 7.84508H282.777V13.0832H285.807V3.9165H283.114C283.114 3.9165 282.44 3.98198 282.103 4.57127C280.554 7.58317 279.746 9.1546 279.746 9.1546H279.41V3.9165H276.379Z" fill="#4DB45F"/>
<path fill-rule="evenodd" clip-rule="evenodd" d="M263.583 13.0832V3.9165H266.614C266.614 3.9165 267.489 3.9165 267.961 5.22603C269.173 8.69627 269.307 9.1546 269.307 9.1546C269.307 9.1546 269.577 8.30341 270.654 5.22603C271.126 3.9165 272.001 3.9165 272.001 3.9165H275.032V13.0832H272.001V8.17246H271.665L269.981 13.0832H268.634L266.95 8.17246H266.614V13.0832H263.583Z" fill="#4DB45F"/>
</g>
<defs>
<linearGradient id="paint0_linear" x1="240.107" y1="15.1072" x2="240.452" y2="2.91764" gradientUnits="userSpaceOnUse">
<stop stop-color="#222357"/>
<stop offset="1" stop-color="#254AA5"/>
</linearGradient>
<linearGradient id="paint1_linear" x1="286.598" y1="5.88079" x2="296.246" y2="5.88079" gradientUnits="userSpaceOnUse">
<stop stop-color="#00B4E6"/>
<stop offset="1" stop-color="#088CCB"/>
</linearGradient>
<clipPath id="clip0">
<rect width="28.4167" height="22" fill="white" transform="translate(160)"/>
</clipPath>
<clipPath id="clip1">
<rect width="28.4167" height="22" fill="white" transform="translate(191.167)"/>
</clipPath>
<clipPath id="clip2">
<rect width="36.6667" height="11.9167" fill="white" transform="translate(223.25 3)"/>
</clipPath>
<clipPath id="clip3">
<rect width="33" height="9.16667" fill="white" transform="translate(263.583 3.9165)"/>
</clipPath>
</defs>
</svg>
