<svg width="80" height="80" viewBox="0 0 80 80" fill="none" xmlns="http://www.w3.org/2000/svg">
<rect x="1" y="79" width="78" height="78" rx="39" transform="rotate(-90 1 79)" fill="white" stroke="#F2F2F2" stroke-width="2"/>
<path d="M41.001 28.6475L40.1475 27.7939L40.1475 29.001L40.1475 52.5418C40.1475 52.6252 40.0837 52.689 40.0003 52.689C39.9169 52.689 39.8531 52.6252 39.8531 52.5418L39.8531 29.001L39.8531 27.7939L38.9995 28.6475L34.1685 33.4785C34.1088 33.5382 34.0201 33.5382 33.9604 33.4785C33.9007 33.4188 33.9007 33.3301 33.9604 33.2704L39.8962 27.3345C39.9232 27.3076 39.9645 27.2914 40.0003 27.2914C40.0361 27.2914 40.0773 27.3076 40.1043 27.3345L46.0402 33.2704C46.0999 33.3301 46.0999 33.4188 46.0402 33.4785C45.9805 33.5382 45.8918 33.5382 45.8321 33.4785L41.001 28.6475Z" stroke="#4F4F4F"/>
</svg>
