<svg width="50" height="50" viewBox="0 0 50 50" fill="none" xmlns="http://www.w3.org/2000/svg">
<circle cx="25" cy="25" r="25" fill="white"/>
<g clip-path="url(#clip0)">
<path fill-rule="evenodd" clip-rule="evenodd" d="M32.2129 26.5374C32.8763 27.1852 33.5765 27.7946 34.1715 28.5076C34.4344 28.8245 34.6832 29.1515 34.8736 29.5192C35.1433 30.0419 34.899 30.6172 34.4303 30.6484L31.5166 30.6471C30.7652 30.7094 30.1657 30.4069 29.6616 29.8931C29.2582 29.4822 28.8846 29.0449 28.4967 28.6201C28.3377 28.4465 28.1713 28.2831 27.9724 28.154C27.5747 27.8958 27.2294 27.9749 27.0021 28.3897C26.7706 28.8117 26.7181 29.2789 26.6954 29.7491C26.6642 30.4352 26.4568 30.6156 25.7676 30.647C24.2947 30.7164 22.8969 30.4936 21.5984 29.7506C20.4536 29.0956 19.5658 28.1709 18.7931 27.124C17.2886 25.0856 16.1365 22.8457 15.101 20.543C14.8679 20.0242 15.0384 19.7457 15.6108 19.7359C16.5613 19.7174 17.5117 19.7187 18.4633 19.7346C18.8497 19.7402 19.1054 19.9618 19.2546 20.3268C19.7688 21.5913 20.3981 22.7943 21.1879 23.9094C21.3983 24.2063 21.6128 24.5032 21.9182 24.7122C22.2561 24.9435 22.5133 24.8668 22.6723 24.4905C22.7732 24.2518 22.8173 23.9947 22.8401 23.7391C22.9154 22.8597 22.9253 21.9818 22.7932 21.1054C22.7121 20.5585 22.4041 20.2045 21.8583 20.101C21.5798 20.0482 21.6213 19.9446 21.7562 19.7856C21.9903 19.5115 22.2106 19.3408 22.6497 19.3408H25.9426C26.461 19.4431 26.5761 19.676 26.6471 20.1976L26.6499 23.8553C26.6442 24.0573 26.7508 24.6565 27.1145 24.7902C27.4056 24.8853 27.5975 24.6524 27.7721 24.4678C28.5605 23.6311 29.1232 22.6422 29.6259 21.6182C29.849 21.1679 30.0408 20.7003 30.2267 20.2331C30.3644 19.8864 30.5806 19.7158 30.9711 19.7234L34.1403 19.7262C34.2343 19.7262 34.3294 19.7276 34.4204 19.7432C34.9544 19.8342 35.1007 20.0639 34.9358 20.5854C34.6759 21.4036 34.1703 22.0854 33.6759 22.7704C33.1473 23.5017 32.5821 24.208 32.058 24.9436C31.5764 25.6154 31.6147 25.954 32.2129 26.5374Z" fill="#FD8BA3"/>
</g>
<defs>
<clipPath id="clip0">
<rect width="20" height="20" fill="white" transform="translate(15 15)"/>
</clipPath>
</defs>
</svg>
