<svg width="18" height="18" viewBox="0 0 18 18" fill="none" xmlns="http://www.w3.org/2000/svg">
<path d="M12.9847 10.7383C12.7692 10.6275 11.6954 10.1015 11.4956 10.0303C11.2959 9.95515 11.1496 9.91955 11.0052 10.141C10.8589 10.3605 10.4436 10.849 10.3131 10.9973C10.1865 11.1437 10.058 11.1614 9.84241 11.0527C8.56096 10.412 7.72051 9.90967 6.8761 8.46013C6.65264 8.07451 7.09956 8.1022 7.51682 7.26965C7.58801 7.12332 7.55242 6.99873 7.49705 6.88799C7.44168 6.77725 7.00662 5.70542 6.82468 5.26838C6.64868 4.84321 6.46675 4.90254 6.33425 4.89463C6.20769 4.88672 6.06333 4.88672 5.91699 4.88672C5.77065 4.88672 5.53533 4.94209 5.3356 5.15764C5.13586 5.37715 4.57227 5.90515 4.57227 6.97698C4.57227 8.0488 5.35339 9.08701 5.46018 9.23335C5.57092 9.37969 6.99673 11.5787 9.18587 12.526C10.5701 13.1232 11.112 13.1746 11.8041 13.0718C12.2253 13.0085 13.0935 12.5457 13.2734 12.0335C13.4534 11.5233 13.4534 11.0863 13.4 10.9953C13.3466 10.8984 13.2003 10.8431 12.9847 10.7383Z" fill="white"/>
<path d="M17.1713 5.56699C16.7244 4.50505 16.0837 3.55188 15.2669 2.73318C14.4502 1.91646 13.497 1.27375 12.4331 0.828809C11.3455 0.371997 10.1906 0.140625 9.00011 0.140625H8.96056C7.76217 0.146558 6.60136 0.383862 5.50976 0.850562C4.45573 1.30144 3.51046 1.94216 2.70165 2.75889C1.89284 3.57561 1.25805 4.52483 0.819033 5.58281C0.364199 6.67837 0.134805 7.84314 0.140737 9.04153C0.14667 10.4139 0.474941 11.7765 1.08996 12.9946V16.0005C1.08996 16.5028 1.49733 16.9102 1.99962 16.9102H5.00746C6.22563 17.5252 7.58815 17.8534 8.96056 17.8594H9.00209C10.1866 17.8594 11.3356 17.63 12.4173 17.1811C13.4753 16.7401 14.4265 16.1073 15.2412 15.2985C16.0579 14.4896 16.7006 13.5444 17.1496 12.4904C17.6162 11.3988 17.8536 10.2379 17.8595 9.03955C17.8654 7.83523 17.6321 6.6665 17.1713 5.56699V5.56699ZM14.1832 14.2286C12.797 15.601 10.9579 16.3564 9.00011 16.3564H8.96649C7.77404 16.3505 6.58949 16.0539 5.54337 15.4962L5.37726 15.4072H2.59289V12.6229L2.5039 12.4567C1.94623 11.4106 1.6496 10.2261 1.64367 9.03362C1.63576 7.06201 2.3892 5.21104 3.7715 3.81687C5.15182 2.4227 6.99687 1.65146 8.96847 1.64355H9.00209C9.99086 1.64355 10.95 1.83538 11.8537 2.21506C12.7357 2.58486 13.5267 3.11682 14.207 3.79709C14.8853 4.47539 15.4192 5.26838 15.789 6.15037C16.1726 7.06399 16.3645 8.03298 16.3605 9.03362C16.3486 11.0032 15.5754 12.8483 14.1832 14.2286V14.2286Z" fill="white"/>
</svg>
