<svg width="61" height="61" fill="none" xmlns="http://www.w3.org/2000/svg"><circle cx="30.5" cy="30.5" r="30" stroke="#005176"/><path d="M46.25 16.076h-31.5a1.75 1.75 0 00-1.75 1.75v15.166c0 .967.784 1.75 1.75 1.75h31.5a1.75 1.75 0 001.75-1.75V17.826a1.75 1.75 0 00-1.75-1.75zm.583 16.916a.583.583 0 01-.583.584h-31.5a.583.583 0 01-.583-.584V17.826c0-.322.26-.584.583-.584h31.5c.322 0 .583.262.583.584v15.166z" fill="#023E5A"/><path d="M45.083 21.326a2.333 2.333 0 01-2.333-2.334.583.583 0 00-.583-.583H18.833a.583.583 0 00-.583.584 2.333 2.333 0 01-2.333 2.333.583.583 0 00-.584.583v7c0 .322.261.584.584.584a2.333 2.333 0 012.333 2.333c0 .322.261.583.583.583h23.334a.583.583 0 00.583-.583 2.333 2.333 0 012.333-2.334.583.583 0 00.584-.583v-7a.583.583 0 00-.584-.583zM19.37 31.242a3.5 3.5 0 00-2.87-2.87v-5.955a3.5 3.5 0 002.87-2.865h7.268a7 7 0 000 11.667l-7.268.023zM30.5 19.576a5.833 5.833 0 110 11.666 5.833 5.833 0 010-11.666zm14 8.796a3.5 3.5 0 00-2.87 2.87h-7.268a7 7 0 000-11.666h7.268a3.5 3.5 0 002.87 2.84v5.956z" fill="#023E5A"/><path d="M30.5 28.326a1.167 1.167 0 01-1.167-1.167.583.583 0 10-1.166 0c0 1.064.72 1.992 1.75 2.258v.67a.583.583 0 101.166 0v-.67a2.333 2.333 0 00-.583-4.58 1.167 1.167 0 111.167-1.166.583.583 0 101.166 0 2.333 2.333 0 00-1.75-2.252v-.677a.583.583 0 10-1.166 0v.665a2.333 2.333 0 00.583 4.585 1.167 1.167 0 010 2.334zM23.792 41.16a.875.875 0 00.875-.876v-3.5a.875.875 0 00-.875-.875h-5.25a.875.875 0 00-.875.875v3.5c0 .483.391.875.875.875h5.25zm-4.959-4.084H23.5v2.916h-4.667v-2.916zm14.292 6.416a.875.875 0 00.875-.874v-5.834a.875.875 0 00-.875-.875h-5.25a.875.875 0 00-.875.875v5.834c0 .483.392.874.875.874h5.25zm-4.958-6.416h4.666v5.25h-4.666v-5.25zm14.291-1.166h-5.25a.875.875 0 00-.875.874v7.875h-.519a.875.875 0 00-.647 1.453l4.019 4.52a.875.875 0 001.306 0l4.008-4.52a.875.875 0 00-.653-1.453h-.514v-7.875a.875.875 0 00-.875-.875zm-2.625 13.702l-3.365-3.786h.157a.875.875 0 00.875-.875v-7.875h4.667v7.875c0 .483.391.875.875.875h.157l-3.366 3.786z" fill="#023E5A"/></svg>