<svg width="61" height="61" fill="none" xmlns="http://www.w3.org/2000/svg"><circle cx="30.5" cy="30.5" r="30" stroke="#005176"/><path d="M45.346 18.154H15.654A2.657 2.657 0 0013 20.808v20.504a2.657 2.657 0 002.654 2.654h23.59v4.197a.684.684 0 00.948.63l2.657-1.116 2.657 1.116a.684.684 0 00.949-.63v-5.096L46.56 43c.246-.152.553-.341.75-.685.197-.34.207-.7.216-.988.004-.126.007-.256.028-.333.018-.067.077-.177.134-.283.14-.257.312-.577.312-.981V20.808a2.657 2.657 0 00-2.654-2.654zM14.367 41.312V20.808c0-.71.577-1.287 1.287-1.287h29.692c.71 0 1.287.578 1.287 1.287v15.698l-.073-.045c-.105-.065-.214-.132-.267-.185-.052-.053-.119-.162-.184-.267-.151-.248-.34-.556-.682-.755a1.462 1.462 0 00-.435-.164v-9.453a.684.684 0 00-.683-.683 2.85 2.85 0 01-2.84-3.059.684.684 0 00-.681-.733H20.212a.684.684 0 00-.681.733 2.85 2.85 0 01-2.84 3.059.684.684 0 00-.683.683v10.846c0 .377.306.683.684.683a2.85 2.85 0 012.839 3.059.684.684 0 00.681.733h17.92c.006.014.01.026.013.037.02.077.024.207.028.334.008.288.019.647.215.987.062.108.136.201.215.283h-22.95a1.288 1.288 0 01-1.286-1.287zm24.02-4.166c-.195.34-.206.699-.214.987-.004.126-.008.257-.028.334a1.713 1.713 0 01-.135.283c-.122.227-.27.502-.304.841H20.885a4.224 4.224 0 00-3.51-3.736v-9.59a4.224 4.224 0 003.51-3.736h19.23a4.224 4.224 0 003.51 3.736v8.502a1.717 1.717 0 00-.776-.206c-.404 0-.723.174-.98.314a1.727 1.727 0 01-.28.134 1.75 1.75 0 01-.33.028c-.289.009-.647.02-.987.217-.343.2-.531.507-.683.755a1.74 1.74 0 01-.184.267c-.052.053-.16.12-.266.185-.246.152-.553.341-.751.685zm4.727 9.159a.684.684 0 00-.53 0l-1.973.829v-2.785c.23.063.454.07.647.076.125.003.255.007.33.028.067.017.176.077.281.134.257.14.576.314.98.314s.724-.174.98-.314c.105-.057.215-.117.281-.135a1.73 1.73 0 01.33-.027c.193-.006.418-.013.648-.076v2.785l-1.974-.83zm3.372-6.243c-.091.168-.194.358-.253.582-.061.23-.068.45-.074.644-.003.118-.008.296-.032.345-.03.047-.19.146-.285.205-.165.1-.351.216-.517.383-.166.167-.28.354-.382.519-.058.095-.156.255-.202.285-.05.024-.225.03-.341.033a2.726 2.726 0 00-.644.074 2.62 2.62 0 00-.58.254c-.102.055-.27.147-.327.147-.055 0-.225-.092-.326-.147-.167-.09-.357-.194-.58-.254a2.726 2.726 0 00-.644-.074c-.116-.004-.291-.009-.34-.032-.047-.03-.145-.19-.203-.286a2.745 2.745 0 00-.382-.52 2.682 2.682 0 00-.517-.383c-.095-.058-.255-.157-.284-.203-.025-.05-.03-.228-.034-.346a2.757 2.757 0 00-.073-.645 2.64 2.64 0 00-.253-.581c-.058-.109-.147-.273-.147-.331 0-.059.089-.223.147-.331.09-.168.194-.358.253-.582.061-.23.068-.45.073-.644.004-.118.01-.296.033-.345.03-.047.19-.146.285-.205a2.68 2.68 0 00.517-.383c.166-.167.28-.354.382-.519.058-.096.156-.256.202-.285.05-.025.225-.03.341-.033.195-.006.415-.013.644-.074.224-.06.413-.164.58-.255.101-.055.27-.147.326-.147.056 0 .226.092.327.147.167.091.357.195.58.255.23.061.45.068.644.074.116.003.291.008.34.032.047.03.145.19.203.286.101.165.216.352.382.519.166.167.352.282.517.383.095.059.255.157.284.203.025.05.03.23.034.347.005.194.012.415.073.644.06.224.162.414.253.582.058.108.147.273.147.33 0 .06-.089.223-.147.332z" fill="#023E5A"/><path d="M23.801 28.807h13.398a.684.684 0 00.684-.683v-3.24a.684.684 0 00-.684-.683H23.8a.684.684 0 00-.684.684v3.238c0 .378.306.684.684.684zm.684-3.238h12.03v1.87h-12.03v-1.87zm13.86 6.185h-15.69a.684.684 0 100 1.367h15.69a.684.684 0 000-1.367zm-2.65 3.288H33.59a.684.684 0 000 1.367h2.105a.684.684 0 100-1.367zm-8.285 0h-2.105a.684.684 0 100 1.367h2.105a.684.684 0 100-1.367zm3.734.423a.69.69 0 00-.68-.42.689.689 0 00-.608.493.69.69 0 00.258.744.69.69 0 00.778.013.69.69 0 00.252-.83z" fill="#023E5A"/></svg>