<svg width="61" height="61" fill="none" xmlns="http://www.w3.org/2000/svg"><circle cx="30.5" cy="30.5" r="30" stroke="#005176"/><g clip-path="url(#clip0)" fill-rule="evenodd" clip-rule="evenodd" fill="#023E5A"><path d="M37.235 35.973V20.235A4.24 4.24 0 0033 16a4.24 4.24 0 00-4.235 4.235v15.738a8.133 8.133 0 00-3.326 3.981.684.684 0 101.274.495 6.766 6.766 0 013.063-3.482c.22-.12.356-.35.356-.6V20.235A2.871 2.871 0 0133 17.367a2.871 2.871 0 012.868 2.868v16.132c0 .25.137.48.356.6a6.745 6.745 0 013.519 5.923A6.75 6.75 0 0133 49.633a6.702 6.702 0 01-6.287-4.302.683.683 0 10-1.275.495 8.078 8.078 0 002.98 3.757A8.081 8.081 0 0033 51c4.472 0 8.11-3.638 8.11-8.11a8.111 8.111 0 00-3.875-6.917z"/><path d="M33 21.973a.684.684 0 00-.684.684V38.22a4.726 4.726 0 00-4.036 4.67A4.725 4.725 0 0033 47.61a4.725 4.725 0 004.72-4.72 4.727 4.727 0 00-4.036-4.67V22.658a.684.684 0 00-.684-.684zm3.352 20.917A3.356 3.356 0 0133 46.243a3.356 3.356 0 01-3.352-3.353A3.356 3.356 0 0133 39.538a3.356 3.356 0 013.352 3.352zm3.464-19.03h3.551a.684.684 0 100-1.367h-3.551a.684.684 0 100 1.367zm3.551 1.79h-3.551a.684.684 0 100 1.368h3.551a.684.684 0 000-1.367zm0 3.158h-3.551a.684.684 0 100 1.367h3.551a.684.684 0 100-1.367zm0 3.157h-3.551a.684.684 0 000 1.367h3.551a.684.684 0 100-1.367zm-25.001-9.188A5.153 5.153 0 0014.2 24.91a.684.684 0 001.109.8 3.782 3.782 0 013.057-1.565 3.772 3.772 0 013.768 3.768 3.772 3.772 0 01-3.768 3.768 3.782 3.782 0 01-3.057-1.566.684.684 0 10-1.109.8 5.152 5.152 0 004.166 2.133 5.141 5.141 0 005.135-5.135 5.14 5.14 0 00-5.135-5.136zm0-1.177a.684.684 0 00.684-.684v-1.618a.684.684 0 00-1.367 0v1.618c0 .378.306.684.683.684zm-5.43 1.849a.682.682 0 00.966 0 .683.683 0 000-.967l-1.144-1.144a.683.683 0 10-.966.967l1.144 1.144zm11.744 4.464c0 .377.305.683.683.683h1.618a.684.684 0 100-1.367h-1.618a.684.684 0 00-.684.684zm-1.366-4.263c.174 0 .35-.068.483-.2l1.144-1.145a.683.683 0 10-.967-.967l-1.144 1.144a.684.684 0 00.484 1.167zm-11.261 4.263a.684.684 0 00-.683-.684H9.752a.684.684 0 100 1.367h1.618a.684.684 0 00.684-.683zm6.313 6.312a.684.684 0 00-.683.684v1.618a.684.684 0 101.367 0v-1.618a.684.684 0 00-.684-.684zm6.574-.705l-1.143-1.143a.683.683 0 10-.967.967l1.144 1.143a.682.682 0 00.967 0 .684.684 0 000-.966zm-12.004-1.143l-1.144 1.144a.683.683 0 10.966.966l1.144-1.144a.683.683 0 10-.966-.966zM26.258 42.89a.685.685 0 00-1.368 0 .685.685 0 001.367 0z"/><path d="M13.231 27.913a.685.685 0 001.367 0 .685.685 0 00-.683-.684.685.685 0 00-.684.684z"/></g><defs><clipPath id="clip0"><path fill="#fff" transform="translate(9 16)" d="M0 0h35v35H0z"/></clipPath></defs></svg>