<svg width="61" height="61" fill="none" xmlns="http://www.w3.org/2000/svg"><circle cx="30.5" cy="30.5" r="30" stroke="#005176"/><path fill-rule="evenodd" clip-rule="evenodd" d="M44.048 33.694a9.165 9.165 0 00-7.546 3.599 9.457 9.457 0 00-6.245-4.164 7.773 7.773 0 003.083-3.917 3.052 3.052 0 003.03-3.046 3.053 3.053 0 00-2.592-3.013v-1.066c.58-.59 1.83-2.236 1.568-5.257-.11-1.263-.585-2.253-1.415-2.945-1.057-.88-2.39-1-3.005-1.003-.765-.681-3.283-2.581-6.66-1.612-1.476.424-2.52 1.056-3.44 1.614-1.42.86-2.541 1.54-4.837 1.248a.706.706 0 00-.79.745c.063.92.603 2.47 2.12 3.067-.457.256-1.119.468-2.04.44a.702.702 0 00-.575 1.135c.072.091 1.688 2.13 3.582 2.867v.767a3.053 3.053 0 00-2.591 3.013 3.053 3.053 0 003.029 3.046 7.774 7.774 0 003.081 3.916 9.358 9.358 0 00-4.656 2.287.702.702 0 00-.047.992.704.704 0 00.994.047 7.957 7.957 0 015.106-2.062l.533 2.36-1.297 7.822a19.713 19.713 0 01-6.933-2.804 7.956 7.956 0 01.983-3.294.704.704 0 00-1.229-.684 9.352 9.352 0 00-1.06 3.054c-.092.651.058 1.763.293 1.945a20.961 20.961 0 008.49 3.298c1.095.17 2.19.253 3.28.253 2.931 0 5.817-.61 8.514-1.802.799 4.241 4.535 7.46 9.011 7.46a9.169 9.169 0 004.746-1.32.702.702 0 10-.73-1.201 7.757 7.757 0 01-4.016 1.116c-4.28 0-7.762-3.477-7.762-7.75 0-4.274 3.482-7.751 7.762-7.751 4.28 0 7.763 3.477 7.763 7.75a7.753 7.753 0 01-1.79 4.952.704.704 0 001.082.898 9.158 9.158 0 002.115-5.85c0-4.455-3.205-8.177-7.434-8.99a7.555 7.555 0 00-1.475-.16zm-10.35-5.932a1.644 1.644 0 001.265-1.596c0-.746-.501-1.377-1.185-1.576v2.061c0 .378-.028.748-.08 1.111zM18.285 24.59c-.683.2-1.184.83-1.184 1.576 0 .775.54 1.424 1.265 1.596a7.75 7.75 0 01-.081-1.11V24.59zm.738-3.434a.657.657 0 00.171.028c.336.01 3.351.004 5.663-2.601a.704.704 0 011.065.015c.039.046.754.911.91 2.04.852-.252 2.188-.85 2.932-2.23a.704.704 0 01.61-.369h.01c.252 0 .485.135.61.354.287.5 1.125 1.77 1.988 2.474a3.95 3.95 0 00.41-.632c.476-.91.662-2.015.552-3.284-.106-1.222-.638-2.009-1.627-2.405a3.94 3.94 0 00-1.6-.254.71.71 0 01-.572-.215c-.092-.095-2.334-2.364-5.49-1.457-1.297.372-2.214.928-3.101 1.465-1.327.804-2.59 1.568-4.736 1.518.254.57.8 1.215 1.974 1.178a.701.701 0 01.643 1.03c-.036.069-.764 1.402-2.699 1.841.61.584 1.447 1.254 2.287 1.504zm.669 1.416v4.08c0 3.49 2.844 6.33 6.34 6.329 3.495 0 6.338-2.84 6.338-6.33v-4.485c-.802-.57-1.524-1.472-2.003-2.154-1.62 1.935-4.07 2.183-4.188 2.194a.705.705 0 01-.753-.845c.088-.416-.025-.839-.174-1.177-2.093 1.924-4.49 2.314-5.56 2.388zm7.356 13.457l.372-1.643h-2.778l.371 1.643h2.035zm-3.221 8.766a19.733 19.733 0 004.416.044l-1.229-7.405H25.05l-1.221 7.361zm10.793-1.727a9.087 9.087 0 011.033-4.447 8.023 8.023 0 00-6.792-4.23l-.534 2.36 1.31 7.896a19.74 19.74 0 004.982-1.58z" fill="#023E5A"/><path d="M48.416 42.676a1.49 1.49 0 00.38-1.541 1.495 1.495 0 00-1.214-1.023l-1.638-.237a.099.099 0 01-.074-.054l-.733-1.482a1.496 1.496 0 00-1.35-.838c-.577 0-1.094.321-1.35.838l-.732 1.482a.099.099 0 01-.074.054l-1.638.237a1.495 1.495 0 00-1.215 1.023 1.492 1.492 0 00.38 1.54l1.186 1.154a.098.098 0 01.028.087l-.28 1.63a1.493 1.493 0 00.6 1.47 1.5 1.5 0 001.584.114l1.465-.77a.098.098 0 01.092 0l1.465.77a1.497 1.497 0 001.585-.115c.467-.339.697-.902.6-1.47l-.28-1.629a.098.098 0 01.028-.087l1.185-1.153zm-2.167.147a1.5 1.5 0 00-.433 1.33l.28 1.63a.09.09 0 01-.04.096.09.09 0 01-.103.007l-1.465-.769a1.507 1.507 0 00-1.401 0l-1.465.77a.09.09 0 01-.104-.008c-.05-.036-.042-.08-.04-.096l.28-1.63a1.501 1.501 0 00-.432-1.33L40.14 41.67c-.012-.012-.044-.043-.025-.1a.09.09 0 01.08-.068l1.638-.237c.49-.071.914-.379 1.133-.822l.733-1.482a.09.09 0 01.088-.055c.061 0 .08.04.088.055l.733 1.481c.22.444.643.752 1.133.822l1.638.238a.09.09 0 01.08.067.09.09 0 01-.025.1l-1.185 1.154zM26.204 29.71c1.818 0 2.534-1.127 2.705-1.458a.704.704 0 10-1.257-.63c-.325.676-1.402.684-1.448.684-.046 0-1.125-.008-1.45-.685a.704.704 0 10-1.255.631c.171.332.888 1.459 2.705 1.459zm-3.584-6.591a.703.703 0 00-.704.702v1.576a.703.703 0 001.407 0v-1.576a.703.703 0 00-.704-.703zm6.825 2.981a.703.703 0 00.703-.703v-1.576a.703.703 0 00-1.407 0v1.576c0 .388.315.703.704.703z" fill="#023E5A"/></svg>