<svg width="61" height="61" fill="none" xmlns="http://www.w3.org/2000/svg"><circle cx="30.5" cy="30.5" r="30" stroke="#005176"/><g clip-path="url(#clip0)" fill="#023E5A"><path d="M46.065 30.736h-2.943v-7.95a1.92 1.92 0 00-1.918-1.918h-4.428v-1.906c0-1.026-.834-1.86-1.86-1.86H14.86c-1.026 0-1.86.834-1.86 1.86v.82a.513.513 0 001.025 0v-.82c0-.46.375-.835.835-.835h20.056c.46 0 .835.375.835.835v16.147H14.025V22.186a.513.513 0 00-1.025 0v17.379c0 1.025.834 1.86 1.86 1.86h1.178a3.025 3.025 0 002.97 2.473 3.025 3.025 0 002.971-2.474h8.156a.513.513 0 000-1.025H21.99a3.025 3.025 0 00-2.982-2.54 3.025 3.025 0 00-2.982 2.54H14.86a.836.836 0 01-.835-.834v-3.43h21.726v4.264h-3.264a.513.513 0 000 1.026h6.649a3.025 3.025 0 002.97 2.473 3.025 3.025 0 002.97-2.473h1.005A1.92 1.92 0 0048 39.506v-6.834a1.937 1.937 0 00-1.935-1.936zm-27.056 8.148c1.1 0 1.994.895 1.994 1.994 0 1.1-.895 1.995-1.994 1.995-1.1 0-1.995-.895-1.995-1.995s.895-1.994 1.995-1.994zm23.097 3.989c-1.1 0-1.995-.895-1.995-1.995s.895-1.994 1.995-1.994 1.995.895 1.995 1.994c0 1.1-.895 1.995-1.995 1.995zm4.869-7.421H45.61a.513.513 0 010-1.026h1.365v1.026zm0-2.051H45.61a1.54 1.54 0 00-1.538 1.538c0 .848.69 1.538 1.538 1.538h1.365v3.03a.894.894 0 01-.893.892h-.994a3.025 3.025 0 00-2.982-2.54 3.025 3.025 0 00-2.982 2.54h-2.348V21.893h4.428c.492 0 .893.4.893.893v.12h-3.433a.513.513 0 00-.513.512v7.83c0 .284.23.514.513.514h7.4a.91.91 0 01.91.91v.729zm-4.878-9.47v6.805h-2.92v-6.805h2.92z"/><path d="M39.85 33.4h-1.186a.513.513 0 000 1.026h1.186a.513.513 0 000-1.025zm-11.955-7.928a.513.513 0 000-1.026h-2.05a.513.513 0 00-.512.513v4.1c0 .284.23.513.513.513h2.05a.513.513 0 000-1.025h-1.538v-1.025h1.537a.513.513 0 000-1.025h-1.537v-1.025h1.537zm4.032 0a.513.513 0 100-1.026h-2.05a.513.513 0 00-.512.513v4.1c0 .284.23.513.513.513h2.05a.513.513 0 100-1.025H30.39v-1.025h1.537a.513.513 0 100-1.025H30.39v-1.025h1.537zm-12.029 0a.513.513 0 100-1.026h-2.05a.513.513 0 00-.512.513v4.1a.513.513 0 101.026 0v-1.537h1.536a.513.513 0 100-1.025h-1.537v-1.025h1.537zm4.478 1.538v-2.05a.513.513 0 00-.513-.514h-2.05a.513.513 0 00-.512.513v4.1a.513.513 0 001.025 0v-1.38l1.11 1.665a.512.512 0 10.854-.569l-.836-1.253h.41c.282 0 .512-.23.512-.513zm-1.026-.513h-1.024v-1.025h1.024v1.025z"/></g><defs><clipPath id="clip0"><path fill="#fff" transform="translate(13 13)" d="M0 0h35v35H0z"/></clipPath></defs></svg>