<svg width="50" height="50" fill="none" xmlns="http://www.w3.org/2000/svg"><circle cx="25" cy="25" r="25" fill="#fff"/><path d="M30 15.004L27.406 15c-2.914 0-4.797 1.932-4.797 4.922v2.27h-2.607a.408.408 0 00-.408.407v3.288c0 .226.182.408.408.408h2.607v8.297c0 .226.183.408.408.408h3.402a.408.408 0 00.408-.408v-8.297h3.05a.408.408 0 00.407-.408l.001-3.288a.408.408 0 00-.408-.408h-3.05v-1.923c0-.925.22-1.394 1.425-1.394l1.747-.001a.408.408 0 00.408-.408v-3.053a.408.408 0 00-.407-.408z" fill="#FD8BA3"/></svg>