<svg width="18" height="19" fill="none" xmlns="http://www.w3.org/2000/svg"><path d="M5.22.012h7.56C15.66.012 18 2.353 18 5.234v7.563a5.223 5.223 0 01-5.22 5.221H5.22c-2.88 0-5.22-2.34-5.22-5.222V5.234A5.223 5.223 0 015.22.012zm-.18 1.8A3.24 3.24 0 001.8 5.055v7.922a3.239 3.239 0 003.24 3.242h7.92a3.24 3.24 0 003.24-3.242V5.054a3.239 3.239 0 00-3.24-3.241H5.04zm8.685 1.351a1.125 1.125 0 110 2.25 1.125 1.125 0 010-2.25zM9 4.513a4.5 4.5 0 014.5 4.502A4.502 4.502 0 019 13.517a4.5 4.5 0 01-4.5-4.502A4.502 4.502 0 019 4.514zm0 1.801a2.7 2.7 0 00-1.91 4.611A2.7 2.7 0 109 6.315z" fill="#F1ECDC"/></svg>