<svg width="50" height="50" fill="none" xmlns="http://www.w3.org/2000/svg"><circle cx="25" cy="25" r="25" fill="#fff"/><path d="M28.75 15h-7.5A6.25 6.25 0 0015 21.25v7.5A6.25 6.25 0 0021.25 35h7.5A6.25 6.25 0 0035 28.75v-7.5A6.25 6.25 0 0028.75 15zm4.375 13.75a4.38 4.38 0 01-4.375 4.375h-7.5a4.38 4.38 0 01-4.375-4.375v-7.5a4.38 4.38 0 014.375-4.375h7.5a4.38 4.38 0 014.375 4.375v7.5z" fill="#FD8BA3"/><path d="M25 20a5 5 0 100 10 5 5 0 000-10zm0 8.125A3.13 3.13 0 0121.875 25 3.129 3.129 0 0125 21.875 3.129 3.129 0 0128.125 25 3.13 3.13 0 0125 28.125zm5.375-7.834a.666.666 0 100-1.333.666.666 0 000 1.333z" fill="#FD8BA3"/></svg>