<svg width="156" height="27" fill="none" xmlns="http://www.w3.org/2000/svg"><g opacity=".95"><path d="M71.596 22.283c-.39 0-.8-.087-1.082-.302a1.224 1.224 0 01-.41-.949V10.747h2.184v9.186c0 .129-.021.345.152.495.065.044.194.13.54.13h6.36v1.725h-7.744z" fill="#F9FAFA"/><path d="M82.887 11.908c.41-.97.865-1.294 1.903-1.294.995 0 1.493.324 1.904 1.294l4.37 10.371H88.77l-1.19-2.91H82l-1.168 2.91h-2.293l4.348-10.371zm-.325 5.908h4.456l-1.882-4.7c-.064-.173-.172-.475-.324-.475-.151 0-.26.323-.324.475l-1.926 4.7zm16.288-7.069c.627 0 1.493.065 2.098.69.649.668.736 1.725.736 2.48 0 .625-.044 1.272-.541 1.876-.325.388-.671.56-1.082.603v.065c.541.043.995.302 1.277.604.54.604.54 1.423.54 2.07 0 .754 0 1.682-.67 2.415-.671.733-1.406.733-2.12.733h-5.537c-.585 0-1.104.064-1.58-.453-.108-.13-.389-.517-.389-1.164v-8.259c0-.43.108-.884.368-1.186.346-.41.865-.474 1.233-.474h5.667zm-5.105 4.83h4.24c.432 0 .887 0 1.19-.41.086-.107.237-.388.237-1.164 0-.323-.021-.884-.389-1.23-.324-.301-.714-.301-1.081-.301h-3.57c-.173 0-.367-.021-.497.13-.13.15-.151.387-.151.517l.021 2.458zm0 4.118c0 .388.043.582.13.669.173.194.54.172.714.172h3.44c.345 0 .95-.021 1.275-.41.238-.301.303-.797.303-1.164 0-.323-.043-.862-.238-1.164-.13-.173-.454-.474-1.168-.474h-4.434l-.022 2.371zm9.409.863h6.425c1.038 0 1.081-.863 1.081-1.25 0-.454-.108-.993-1.125-1.294l-4.564-1.445c-.173-.043-.908-.302-1.362-.863-.52-.625-.606-1.53-.606-2.177 0-.69.086-1.531.735-2.135.606-.56 1.342-.647 1.904-.647h6.662v1.725h-5.905c-.303 0-.649.022-.909.259-.281.258-.302.668-.302.884 0 .517.151 1.013 1.081 1.293l4.24 1.337c.779.238 1.298.496 1.644.82.692.668.757 1.682.757 2.22 0 .734-.108 1.532-.584 2.135-.584.733-1.298.82-2.077.82h-7.095v-1.682zm14.125-8.65c.411-.97.866-1.294 1.904-1.294.995 0 1.493.324 1.904 1.294l4.369 10.371h-2.293l-1.19-2.91h-5.58l-1.168 2.91h-2.293l4.347-10.371zm-.324 5.908h4.456l-1.882-4.7c-.065-.173-.173-.475-.324-.475-.152 0-.26.323-.325.475l-1.925 4.7zm10.492 4.467c-.39 0-.801-.087-1.082-.302a1.224 1.224 0 01-.411-.949V10.747h2.185v9.186c0 .129-.022.345.151.495.065.044.195.13.541.13h6.36v1.725h-7.744zm10.166 0c-.498 0-.952 0-1.32-.367-.389-.388-.432-.905-.432-1.358v-8.172c0-.453.151-.927.389-1.208.39-.41.952-.452 1.385-.452h7.419v1.725h-6.251c-.195 0-.433.021-.606.172-.173.173-.173.388-.173.56v2.33h6.879v1.724h-6.857v2.696c0 .172.064.366.173.452.129.13.389.151.735.151h6.187v1.725h-7.528v.022zm8.674-1.725h6.403c1.038 0 1.082-.863 1.082-1.25 0-.454-.109-.993-1.125-1.294l-4.564-1.445c-.173-.043-.909-.302-1.363-.863-.519-.625-.606-1.53-.606-2.177 0-.69.087-1.531.736-2.135.605-.56 1.341-.647 1.903-.647h6.663v1.725h-5.927c-.303 0-.649.022-.909.259-.281.258-.303.668-.303.884 0 .517.152 1.013 1.082 1.293l4.24 1.337c.778.238 1.297.496 1.644.82.692.668.757 1.682.757 2.22 0 .734-.109 1.532-.584 2.135-.584.733-1.298.82-2.077.82h-7.117v-1.682h.065zM65.604 10.014L61.797.87c-.13-.302-.238-.517-.368-.625a.867.867 0 00-.627-.237.867.867 0 00-.627.237c-.13.108-.238.323-.368.625L56 10.035v10.566c0 .56.108.948.346 1.207.238.259.584.367 1.038.367h6.857c.455 0 .8-.13 1.039-.367.238-.259.346-.647.346-1.207l-.022-10.587zm-.93 0v1.638a1.344 1.344 0 00-.52-.172 1.194 1.194 0 00-.864.215l-1.774-1.854c.065-.13.108-.259.13-.388a1.245 1.245 0 00-1.082-1.402 1.247 1.247 0 00-1.406 1.079c-.043.41.108.797.39 1.078l-.8 1.66c-.044 0-.087-.022-.13-.022a1.33 1.33 0 00-.585.065L57.017 9.82l3.482-8.776c.087-.216.195-.324.303-.324.108 0 .195.108.303.324l3.569 8.97z" fill="#F1ECDC"/><path d="M64.674 13.766v6.9c0 .259-.044.431-.13.518-.087.086-.26.129-.498.129h-6.489c-.238 0-.411-.043-.498-.13-.086-.086-.13-.258-.13-.517v-9.573l.563 1.164c-.151.172-.238.388-.281.647-.087.69.39 1.315 1.081 1.401a1.247 1.247 0 001.407-1.078 1.305 1.305 0 00-.368-1.056l.8-1.66c.043 0 .087.02.13.02.303.044.605-.042.843-.193l1.796 1.854a1.03 1.03 0 00-.108.367 1.244 1.244 0 001.081 1.401c.281.022.563-.043.8-.194z" fill="#EA524E"/></g><path opacity=".95" d="M4.104 14.285c.392 0 .768.056 1.128.168.36.104.684.26.972.468l-.132.564-.096.012a2.956 2.956 0 00-1.896-.672c-.856 0-1.512.288-1.968.864-.448.576-.672 1.408-.672 2.496s.22 1.92.66 2.496c.44.568 1.072.852 1.896.852.368 0 .732-.064 1.092-.192.36-.136.696-.324 1.008-.564l.096.036-.048.588c-.688.456-1.416.684-2.184.684-1.008 0-1.788-.332-2.34-.996-.544-.672-.816-1.628-.816-2.868 0-1.256.284-2.224.852-2.904.576-.688 1.392-1.032 2.448-1.032zm8.033 8.952l-.456.06-.06-1.284H7.445l-.072 1.224-.456.06v-1.764h.456a1.52 1.52 0 00.564-.672c.144-.296.26-.708.348-1.236.096-.536.184-1.272.264-2.208l.084-.864h2.664l-.024 3.084.012 1.896h.852v1.704zm-1.428-3.564l-.012-2.676H9.101l-.048.516c-.104 1.216-.236 2.128-.396 2.736-.16.6-.388 1.028-.684 1.284h2.724l.012-1.86zm4.77-3.204c.6 0 1.064.18 1.392.54.335.352.504.848.504 1.488 0 .16-.012.324-.037.492l-.096.108-3.552.024v.18c0 .712.16 1.268.48 1.668.329.4.784.6 1.369.6.287 0 .571-.044.851-.132a2.71 2.71 0 00.744-.384l.084.048-.084.54a3.318 3.318 0 01-1.668.444c-.727 0-1.303-.244-1.727-.732-.417-.496-.625-1.172-.625-2.028 0-.576.096-1.08.288-1.512a2.23 2.23 0 01.829-.996c.36-.232.776-.348 1.248-.348zm1.32 1.944c0-.464-.116-.824-.348-1.08-.233-.264-.56-.396-.985-.396a1.53 1.53 0 00-1.14.468c-.303.304-.5.724-.588 1.26l3.037-.048.024-.204zm5.533 1.224l.024 2.376h-.612l.024-2.34-.012-2.676H20.1l-.048.516c-.096 1.096-.212 1.956-.348 2.58-.128.624-.296 1.088-.504 1.392-.2.296-.46.496-.78.6l-.18.036-.12-.48c.304-.112.544-.304.72-.576.184-.28.328-.7.432-1.26.112-.56.212-1.356.3-2.388l.072-.864h2.712l-.024 3.084zm3.781-3.168c.488 0 .868.124 1.14.372.272.248.408.592.408 1.032 0 .168-.008.392-.024.672-.016.272-.028.564-.036.876a61.207 61.207 0 00-.072 1.548c0 .208.028.356.084.444.064.08.168.12.312.12s.296-.04.456-.12l.084.06-.072.396c-.192.12-.396.184-.612.192-.48-.016-.732-.316-.756-.9h-.06c-.456.52-.928.828-1.416.924-.48 0-.856-.124-1.128-.372-.272-.256-.408-.608-.408-1.056 0-.648.352-1.052 1.056-1.212l1.992-.468.024-.972c0-.344-.092-.604-.276-.78-.184-.184-.444-.276-.78-.276-.512 0-1.072.26-1.68.78l-.072-.036-.096-.444c.656-.52 1.3-.78 1.932-.78zm-.924 3.396c-.408.096-.612.336-.612.72 0 .304.084.544.252.72.168.168.4.252.696.252.24 0 .484-.084.732-.252.256-.168.504-.408.744-.72l.048-1.164-1.86.444zm8.706-.228l.024 2.376h-.611l.023-2.34v-.18l-2.964.012v.132l.024 2.376h-.611l.023-2.34-.024-3.12h.613L30.367 19l2.963.012-.012-2.46h.6l-.023 3.084zm4.002-3.168c.72 0 1.28.244 1.68.732.408.48.612 1.152.612 2.016 0 .904-.212 1.608-.636 2.112-.424.504-1.012.756-1.764.756-.72 0-1.28-.24-1.68-.72-.4-.488-.6-1.16-.6-2.016 0-.904.208-1.608.624-2.112.424-.512 1.012-.768 1.764-.768zm-.024.468c-.56 0-.996.2-1.308.6-.312.4-.468.964-.468 1.692 0 .768.148 1.36.444 1.776.304.408.728.612 1.272.612.568 0 1.008-.196 1.32-.588.312-.4.468-.964.468-1.692 0-.768-.152-1.36-.456-1.776-.304-.416-.728-.624-1.272-.624zm8.512 2.22c.424.08.744.232.96.456.216.224.324.516.324.876 0 .512-.204.9-.612 1.164-.408.256-1 .384-1.776.384-.232 0-.692-.008-1.38-.024l.024-2.34-.024-3.12 1.62-.012c.592 0 1.048.112 1.368.336.32.224.48.544.48.96 0 .304-.084.572-.252.804-.168.224-.412.396-.732.516zm.396-1.26a.774.774 0 00-.36-.684c-.232-.16-.568-.24-1.008-.24h-.924l-.024 2.016 1.212.024c.36-.056.632-.18.816-.372.192-.192.288-.44.288-.744zm-1.476 3.732c.576 0 1.016-.1 1.32-.3.304-.2.456-.488.456-.864 0-.608-.428-.956-1.284-1.044l-1.332.012v.204l.024 1.956c.232.024.504.036.816.036z" fill="#F1ECDC"/></svg>