<svg width="113" height="51" fill="none" xmlns="http://www.w3.org/2000/svg"><path d="M49.253 27.317c-.093-2.216-1.709-4.04-4.317-6.096-2.193-1.778-8.333-6.812-8.333-6.812 1.708-1.362 2.1-1.824 3.416-2.863 3.994-3.187 3.463-6.235 3.07-7.39C42.327 2.01 40.111.555 37.572.555H9.178C5.14.554 1.724 2.84.477 6.374c-1.339 3.833.185 8.012 4.086 11.153l8.08 6.465a7.995 7.995 0 00-3.417 1.963c-1.524 1.455-2.308 3.44-2.216 5.611.115 2.725 1.593 5.38 4.178 7.436l13.758 11.015 21.19-16.997c2.147-1.755 3.209-3.672 3.117-5.704zM27.023 4.711h10.55c.76 0 1.43.346 1.592.808.185.485-.185 1.524-1.731 2.77-2.84 2.264-7.318 5.866-10.411 8.337V4.711zM7.147 14.248c-2.47-1.986-3.508-4.434-2.77-6.535.647-1.848 2.516-3.025 4.779-3.025h13.688v22.098c-4.547-3.625-12.488-9.975-15.697-12.538zM13.796 35.7c-1.616-1.293-2.563-2.887-2.632-4.365-.046-.946.277-1.8.946-2.424 2.378-2.217 4.802-1.594 7.295.415.854.67 2.562 2.032 3.463 2.771v10.877L13.796 35.7zm29.524-5.773L27 42.974V21.937c.6-.485 2.308-1.686 3.393-2.563 1.8-1.455 3.901-1.57 5.656-.162 2.631 2.102 4.547 3.857 6.578 5.52 1.432 1.177 2.24 2.147 2.263 2.932.046.854-.947 1.778-1.57 2.263zM58.833 1.64c2.585 0 4.34.923 4.34 2.932 0 1.016-.854 2.055-1.478 2.61 1.455.669 2.24 1.754 2.24 3.093 0 2.263-1.386 3.926-4.617 3.926h-3.555V3.648l-.254-1.916 3.324-.093zm-.646 5.01c1.454 0 1.892.092 2.123.116.3-.44.6-1.132.6-1.802 0-1.131-.6-1.524-1.962-1.524-.23 0-.484.023-.761.046V6.65zm0 5.75h1.154c1.362 0 2.123-.762 2.123-2.032 0-1.132-.715-1.917-2.585-1.917h-.692V12.4zm13.735-5.15s-.531-.507-1.247-.507c-.97 0-2.123 1.2-2.123 2.655v3.21l.207 1.616h-2.516V6.72l-.254-1.894 2.586-.277v1.709s.923-1.732 2.539-1.732c.577 0 1.108.23 1.546.693l-.738 2.032zm4.478 5.358l.208 1.617h-2.516V6.673l-.254-1.893 2.585-.277v8.105H76.4zM75.223.716c.67 0 1.246.577 1.246 1.316 0 .693-.577 1.247-1.246 1.247-.716 0-1.316-.554-1.316-1.247 0-.739.6-1.316 1.316-1.316zm10.365 6.72c-.693-.855-1.616-1.155-2.285-1.155-1.616 0-2.309 1.524-2.309 3.21 0 1.57.716 3.07 2.24 3.07 1.615 0 3.07-1.5 3.07-1.5l.346 1.94s-1.408 1.455-3.855 1.455c-2.793 0-4.155-2.402-4.155-4.804 0-2.724 1.615-5.15 4.64-5.15 2.285 0 3.416 1.248 3.416 1.248l-1.108 1.686zm5.286 1.616l2.562-3.256.439-1.016h3.116l-3.786 4.272 3.97 5.15H94.29l-3.416-4.734v3.117l.208 1.616h-2.517V2.171L88.311.277 90.897 0v9.052h-.023zm-17.682 9.306v5.172s.9-.692 2.054-.692c1.986 0 3.948 1.593 3.948 4.78 0 2.794-2.009 5.172-4.94 5.172-1.57 0-2.978-.762-3.394-1.616V20.529l-.254-1.894 2.586-.277zm0 12.215c.346.324.83.532 1.385.532 1.177 0 2.147-1.455 2.147-3.326 0-1.87-.97-3.163-2.147-3.163-.762 0-1.385.439-1.385.439v5.518zm13.851-4.988s-.531-.508-1.247-.508c-.97 0-2.123 1.201-2.123 2.656v3.21l.207 1.616h-2.516v-7.528l-.254-1.893 2.586-.278v1.71s.923-1.733 2.539-1.733c.577 0 1.108.231 1.547.693l-.74 2.055zm4.501 5.357l.207 1.617h-2.516v-7.551l-.254-1.894 2.586-.277v8.105h-.023zm-1.2-11.892c.669 0 1.246.578 1.246 1.316 0 .693-.577 1.247-1.247 1.247-.715 0-1.315-.554-1.315-1.247.023-.738.623-1.316 1.315-1.316zm10.365 6.72c-.692-.854-1.616-1.154-2.285-1.154-1.616 0-2.309 1.524-2.309 3.21 0 1.57.716 3.07 2.24 3.07 1.615 0 3.07-1.5 3.07-1.5l.346 1.94s-1.408 1.454-3.855 1.454c-2.793 0-4.155-2.402-4.155-4.803 0-2.725 1.616-5.15 4.64-5.15 2.285 0 3.416 1.247 3.416 1.247l-1.108 1.686zm5.308 1.593l2.563-3.255.438-1.017h3.117l-3.786 4.272 3.97 5.15h-2.885l-3.417-4.734v3.117l.208 1.617h-2.516v-12.03l-.254-1.894 2.585-.277v9.051h-.023z" fill="#F1ECDC"/><path d="M56.57 23.369h1.847l-.393 1.154h-1.477v3.303c0 .438.23.577.531.577.462 0 1.154-.347 1.431-.577l.162 1.362s-.693.646-2.055.646c-1.062 0-1.593-.554-1.593-2.008v-3.28h-.761v-1.154h.761V22.26l1.662-.184-.115 1.293zm5.402 6.442c-1.892 0-2.885-1.663-2.885-3.233 0-1.847 1.177-3.417 3.3-3.417 1.64 0 2.863.993 2.863 3.186 0 1.87-1.2 3.464-3.278 3.464zm.185-1.108c.9 0 1.431-.97 1.431-2.217s-.53-2.194-1.43-2.194c-.901 0-1.432.97-1.432 2.194 0 1.247.554 2.217 1.431 2.217zm3.093 2.632l-.3 1.155H54.606v-1.155H65.25z" fill="#BE5E33"/><path d="M27.023 4.71h10.55c.762 0 1.431.347 1.593.809.184.485-.185 1.524-1.732 2.77-2.839 2.264-7.317 5.866-10.41 8.337V4.71z" fill="#6C5D2D"/><path d="M7.148 14.248c-2.47-1.986-3.509-4.434-2.77-6.535.646-1.848 2.516-3.026 4.778-3.026h13.69v22.1c-4.548-3.626-12.49-9.976-15.698-12.54z" fill="#BE5E33"/><path d="M13.796 35.7c-1.616-1.294-2.562-2.887-2.631-4.365-.047-.947.277-1.801.946-2.425 2.378-2.217 4.801-1.593 7.294.416a259.7 259.7 0 013.463 2.77v10.877L13.796 35.7z" fill="#6C5D2D"/><path d="M43.32 29.927L27 42.974V21.937c.6-.485 2.308-1.686 3.393-2.563 1.8-1.455 3.902-1.57 5.656-.162 2.632 2.102 4.547 3.857 6.579 5.52 1.431 1.177 2.239 2.147 2.262 2.932.046.854-.946 1.778-1.57 2.263z" fill="#68B8B8"/><path d="M55.163 44.035h-.485v-1.27l.254-.046a1.12 1.12 0 00.23-.231 2.34 2.34 0 00.139-.392c.023-.162.046-.347.07-.6.022-.232.022-.532.022-.855l.047-1.755h2.285v3.833h.3v1.316h-.485v-.877h-2.4v.877h.023zm2.077-1.316v-3.395h-1.293l-.046 1.478a42.15 42.15 0 01-.07 1.178 1.553 1.553 0 01-.23.739h1.64zm1.754.439v-4.295h.508v3.256h.023l.646-1.293 1.016-1.986h.508v4.295h-.508v-3.28h-.023l-.6 1.202-1.062 2.078h-.508v.023zm4.825.046c-.162 0-.3-.023-.462-.07-.138-.045-.277-.092-.37-.184a.864.864 0 01-.276-.3 1.101 1.101 0 01-.139-.416l.485-.161c.046.207.115.37.254.484.139.116.3.162.508.162.208 0 .392-.07.53-.184.14-.116.209-.347.209-.624 0-.23-.047-.416-.162-.554a.627.627 0 00-.508-.231h-.37v-.462h.37c.208 0 .37-.07.485-.208.115-.138.161-.3.161-.508 0-.23-.069-.392-.184-.508a.761.761 0 00-.485-.161.763.763 0 00-.485.161.921.921 0 00-.254.439l-.484-.162c.069-.3.207-.53.415-.692.23-.162.485-.255.808-.255.392 0 .693.093.877.278.208.184.3.461.3.83 0 .07 0 .163-.023.255s-.046.185-.092.277a1.541 1.541 0 01-.162.254c-.069.07-.138.139-.23.162v.023a.828.828 0 01.276.184.94.94 0 01.162.255c.046.092.07.184.07.277.022.092.022.184.022.277 0 .392-.115.693-.323.923-.208.324-.508.44-.923.44zm4.478-.046l-.277-.97h-1.362l-.254.97h-.531l1.247-4.295h.461l1.247 4.295h-.531zm-.693-2.54l-.23-.947h-.024l-.23.947-.324 1.108h1.131l-.323-1.108zm2.101 2.54v-4.295h.508v3.256h.023l.646-1.293 1.016-1.986h.508v4.295h-.508v-3.279h-.023l-.6 1.2-1.062 2.08h-.508v.022zm.9-5.31c0 .045.023.092.046.138.024.046.047.092.093.115.046.046.092.07.138.093a.427.427 0 00.162.046.42.42 0 00.185-.047.479.479 0 00.138-.092c.046-.046.07-.092.093-.115.023-.046.023-.093.023-.139h.415a.526.526 0 01-.07.254.55.55 0 01-.138.254.723.723 0 01-.254.185.994.994 0 01-.392.07.92.92 0 01-.392-.07.723.723 0 01-.254-.185.55.55 0 01-.139-.254 1.195 1.195 0 01-.046-.254h.392zm4.964 5.31v-1.963h-1.455v1.963h-.508v-4.295h.508v1.893h1.455v-1.893h.507v4.295h-.507zm3.462 0v-4.295h.508v3.256h.023l.647-1.293 1.015-1.986h.508v4.295h-.508v-3.28h-.023l-.6 1.202-1.062 2.078h-.508v.023zm5.864 0v-1.963h-1.431v1.963h-.508v-4.295h.508v1.893h1.454v-1.893h.508v4.295h-.53zm2.863-3.81v3.833h-.508v-3.833h-.97v-.462h2.47v.462h-.992zm1.823 3.81v-4.295h2.285v.485h-1.754v1.408h1.5v.462h-1.5v1.455h1.754v.508h-2.285v-.023zm5.701-3.002c0 .161-.023.323-.069.485-.046.161-.115.3-.207.415a1.12 1.12 0 01-.37.278 1.427 1.427 0 01-.577.115h-.739v1.732h-.507v-4.295h1.223c.392 0 .716.115.923.323.208.185.323.508.323.947zm-.53 0c0-.254-.047-.439-.162-.578-.115-.138-.3-.207-.577-.207h-.693v1.593h.693a.77.77 0 00.346-.07.904.904 0 00.231-.184.857.857 0 00.115-.254c.047-.092.047-.208.047-.3zm1.454 3.002v-4.295h.508v1.778h.692c.231 0 .416.023.578.092.161.07.3.139.392.254.092.116.185.231.23.393.047.161.07.323.07.485 0 .415-.115.739-.323.97-.208.207-.531.323-.923.323h-1.224zm.531-.462h.693c.276 0 .461-.07.577-.208.115-.138.161-.323.161-.577 0-.093-.023-.185-.046-.277a.853.853 0 00-.115-.254c-.047-.07-.139-.116-.231-.162a.81.81 0 00-.37-.07h-.692v1.548h.023zm2.885.462v-4.295h2.285v.485h-1.754v1.408h1.5v.462h-1.5v1.455h1.754v.508h-2.285v-.023zm5.725-3.002c0 .161-.023.323-.069.485-.046.161-.116.3-.208.415a1.113 1.113 0 01-.369.278 1.435 1.435 0 01-.578.115h-.738v1.732h-.508v-4.295h1.223c.393 0 .716.115.924.323.208.185.323.508.323.947zm-.531 0c0-.254-.046-.439-.162-.578-.115-.138-.3-.207-.577-.207h-.692v1.593h.692a.774.774 0 00.347-.07.9.9 0 00.23-.184.833.833 0 00.116-.254.685.685 0 00.046-.3zm3.855 1.755c0 .208-.023.37-.093.531-.069.162-.138.3-.253.416a1.045 1.045 0 01-.393.254 1.24 1.24 0 01-.508.092 1.43 1.43 0 01-.577-.115c-.161-.07-.3-.185-.392-.3a.961.961 0 01-.208-.44 1.931 1.931 0 01-.069-.507V40.11c0-.139.023-.3.069-.439a1.059 1.059 0 01.6-.716 1.43 1.43 0 01.577-.115c.208 0 .416.046.554.115.162.07.3.162.393.3.092.116.184.255.231.416.046.162.069.3.069.462v1.778zm-.531-1.778c0-.07 0-.139-.023-.23a.831.831 0 00-.116-.255.504.504 0 00-.23-.208c-.093-.069-.208-.092-.37-.092-.138 0-.277.023-.369.092a.656.656 0 00-.231.208c-.069.07-.092.162-.115.254-.024.092-.024.185-.024.254v1.686c0 .115.024.23.047.346a.527.527 0 00.138.277c.069.07.139.139.231.185a.77.77 0 00.346.07c.093 0 .185-.024.277-.047a.817.817 0 00.393-.392.74.74 0 00.069-.324v-1.824h-.023zm4.109 1.801c0 .393-.115.716-.3.924-.208.208-.485.3-.831.3h-1.339v-4.295h1.224c.392 0 .692.092.877.3.185.208.277.485.277.831 0 .208-.046.37-.115.531-.07.162-.208.278-.439.393v.023c.115.023.208.07.277.139a.926.926 0 01.185.23c.046.093.092.185.115.3a.74.74 0 01.069.324zm-1.962-2.586v1.385h.67c.254 0 .415-.07.531-.184.115-.14.161-.3.161-.508 0-.208-.046-.37-.161-.485-.116-.116-.301-.185-.531-.185h-.67v-.023zm0 1.824v1.5h.739a.77.77 0 00.346-.068.504.504 0 00.208-.162.855.855 0 00.115-.254c.023-.092.023-.185.023-.3 0-.208-.046-.393-.161-.531-.116-.139-.3-.208-.554-.208h-.716v.023z" fill="#F1ECDC"/></svg>