<svg width="297" height="22" fill="none" xmlns="http://www.w3.org/2000/svg"><path d="M9.545 18H8.383V9.038H3.249V18H2.087V8.006h7.458V18zm6.07.137c-.487 0-.934-.09-1.34-.267a2.546 2.546 0 01-1.011-.834h-.082c.054.438.082.852.082 1.244v3.083h-1.135V10.508h.923l.157 1.025h.055c.291-.41.63-.706 1.018-.888.388-.183.832-.274 1.333-.274.994 0 1.76.34 2.297 1.019.542.679.814 1.631.814 2.857 0 1.23-.276 2.188-.828 2.871-.546.68-1.308 1.019-2.283 1.019zm-.164-6.802c-.766 0-1.32.212-1.661.636-.342.424-.517 1.098-.526 2.023v.253c0 1.053.175 1.807.526 2.263.351.45.914.676 1.689.676.647 0 1.152-.262 1.517-.786.37-.524.554-1.246.554-2.167 0-.934-.185-1.65-.554-2.146-.364-.501-.88-.752-1.545-.752zm6.33-.827v4.75l-.048 1.245-.02.39 4.054-6.385h1.415V18h-1.06v-4.58l.02-.902.035-.89L22.13 18h-1.415v-7.492h1.066zm8.942 0v3.138h4.197v-3.138h1.135V18H34.92v-3.377h-4.197V18h-1.135v-7.492h1.135zm8.804 0v4.75l-.047 1.245-.021.39 4.054-6.385h1.415V18h-1.06v-4.58l.02-.902.035-.89L39.876 18h-1.415v-7.492h1.066zm11.697 6.398l.212-.636.294-.806 2.03-4.943h1.442V18h-1.005v-6.187l-.137.397-.396 1.046L51.73 18h-.95l-1.935-4.758a14.003 14.003 0 01-.5-1.429V18h-1.011v-7.479h1.388l1.962 4.752c.196.5.376 1.045.54 1.633zM62.236 18l-.225-1.066h-.055c-.374.469-.747.788-1.121.957-.37.164-.832.246-1.388.246-.743 0-1.326-.192-1.75-.575-.419-.382-.629-.927-.629-1.633 0-1.513 1.21-2.306 3.63-2.38l1.272-.04v-.465c0-.588-.128-1.02-.383-1.299-.25-.282-.654-.424-1.21-.424-.624 0-1.33.192-2.12.575l-.348-.869c.37-.2.773-.357 1.21-.471a5.29 5.29 0 011.326-.171c.894 0 1.554.198 1.983.595.433.396.65 1.032.65 1.907V18h-.842zm-2.563-.8c.706 0 1.26-.194 1.661-.58.406-.388.608-.93.608-1.628v-.677l-1.134.048c-.903.032-1.554.174-1.956.424-.396.246-.594.631-.594 1.155 0 .41.123.723.369.937.25.214.6.321 1.046.321zm8.914.937c-1.108 0-1.983-.338-2.625-1.012-.638-.674-.957-1.611-.957-2.81 0-1.207.296-2.167.889-2.877.597-.711 1.396-1.067 2.399-1.067.939 0 1.682.31 2.228.93.547.615.82 1.428.82 2.44v.718h-5.16c.023.88.243 1.547.663 2.003.424.456 1.018.683 1.784.683.807 0 1.604-.168 2.392-.505v1.011a5.805 5.805 0 01-1.141.37 6.162 6.162 0 01-1.292.116zm-.308-6.816c-.601 0-1.082.196-1.442.588-.356.392-.565.934-.629 1.627h3.917c0-.715-.16-1.262-.478-1.64-.32-.383-.775-.575-1.368-.575zm8.894 5.585l.212-.636.294-.806 2.03-4.943h1.442V18h-1.004v-6.187l-.137.397-.397 1.046L77.68 18h-.95l-1.935-4.758a14.028 14.028 0 01-.5-1.429V18h-1.01v-7.479h1.387l1.962 4.752c.196.5.376 1.045.54 1.633zm14.41-6.398h1.244l-3.233 3.616 3.5 3.876h-1.326l-3.418-3.794V18h-1.135v-7.492h1.135v3.643l3.233-3.643zm13.009 3.74c0 1.22-.308 2.175-.923 2.863-.615.684-1.465 1.026-2.55 1.026-.67 0-1.264-.157-1.784-.472a3.113 3.113 0 01-1.203-1.354c-.283-.587-.424-1.275-.424-2.064 0-1.221.305-2.171.916-2.85.61-.684 1.458-1.026 2.543-1.026 1.048 0 1.88.349 2.495 1.046.62.697.93 1.64.93 2.83zm-5.708 0c0 .956.191 1.685.574 2.187.383.5.946.752 1.688.752.743 0 1.306-.249 1.689-.746.387-.5.581-1.232.581-2.194 0-.952-.194-1.675-.581-2.167-.383-.497-.95-.745-1.702-.745-.743 0-1.304.244-1.682.731-.378.488-.567 1.215-.567 2.181zM107.723 18h-1.135v-7.492h6.289V18h-1.148v-6.508h-4.006V18zm13.145 0h-1.148v-6.521h-2.249c-.123 1.622-.294 2.91-.513 3.862-.219.952-.504 1.65-.854 2.092-.347.442-.789.663-1.327.663-.246 0-.442-.028-.588-.082v-.841c.101.027.215.04.342.04.524 0 .941-.553 1.251-1.66.31-1.108.545-2.79.704-5.045h4.382V18zm7.021 0l-.226-1.066h-.055c-.373.469-.747.788-1.121.957-.369.164-.831.246-1.387.246-.743 0-1.327-.192-1.75-.575-.42-.382-.629-.927-.629-1.633 0-1.513 1.21-2.306 3.63-2.38l1.271-.04v-.465c0-.588-.128-1.02-.383-1.299-.25-.282-.654-.424-1.21-.424-.624 0-1.33.192-2.119.575l-.348-.869c.369-.2.772-.357 1.209-.471a5.304 5.304 0 011.327-.171c.893 0 1.554.198 1.982.595.433.396.649 1.032.649 1.907V18h-.84zm-2.564-.8c.707 0 1.26-.194 1.661-.58.406-.388.609-.93.609-1.628v-.677l-1.135.048c-.902.032-1.554.174-1.955.424-.397.246-.595.631-.595 1.155 0 .41.123.723.369.937.251.214.6.321 1.046.321zm10.801-5.721h-2.434V18h-1.134v-6.521h-2.407v-.971h5.975v.97zm4.648 6.658c-1.107 0-1.982-.338-2.625-1.012-.638-.674-.957-1.611-.957-2.81 0-1.207.297-2.167.889-2.877.597-.711 1.397-1.067 2.399-1.067.939 0 1.682.31 2.229.93.547.615.82 1.428.82 2.44v.718h-5.161c.023.88.244 1.547.663 2.003.424.456 1.019.683 1.784.683.807 0 1.605-.168 2.393-.505v1.011a5.808 5.808 0 01-1.142.37 6.158 6.158 0 01-1.292.116zm-.307-6.816c-.602 0-1.083.196-1.443.588-.355.392-.565.934-.628 1.627h3.916c0-.715-.159-1.262-.478-1.64-.319-.383-.775-.575-1.367-.575zm4.84 5.954c0-.305.068-.535.205-.69.141-.16.342-.24.601-.24.265 0 .47.08.616.24.15.155.225.385.225.69 0 .297-.075.524-.225.684-.151.16-.356.24-.616.24a.83.83 0 01-.581-.213c-.15-.146-.225-.383-.225-.71zm0-6.036c0-.615.269-.923.806-.923.561 0 .841.308.841.923 0 .296-.075.524-.225.684-.151.16-.356.24-.616.24a.83.83 0 01-.581-.213c-.15-.146-.225-.383-.225-.71z" fill="#4F4F4F"/><g clip-path="url(#clip0)"><path d="M165.166 21.89v-1.455c0-.559-.341-.923-.926-.923-.293 0-.609.097-.829.413-.17-.267-.414-.413-.779-.413a.789.789 0 00-.683.34v-.291h-.511v2.33h.511v-1.287c0-.412.22-.606.561-.606.341 0 .512.218.512.606v1.287h.511v-1.287c0-.412.244-.606.561-.606.341 0 .511.218.511.606v1.287h.561zm7.578-2.33h-.828v-.703h-.512v.704h-.463v.46h.463v1.069c0 .534.219.85.804.85.219 0 .463-.074.634-.17l-.147-.438a.801.801 0 01-.438.122c-.244 0-.341-.146-.341-.389v-1.043h.828v-.461zm4.338-.048a.688.688 0 00-.61.34v-.291h-.511v2.33h.511v-1.31c0-.39.171-.607.488-.607.097 0 .219.024.317.048l.146-.485c-.098-.025-.244-.025-.341-.025zm-6.555.243c-.244-.17-.585-.243-.951-.243-.584 0-.974.292-.974.753 0 .388.292.606.804.68l.243.024c.269.048.415.12.415.242 0 .17-.195.291-.536.291-.342 0-.61-.121-.78-.242l-.244.388c.268.194.634.291.999.291.683 0 1.072-.315 1.072-.752 0-.413-.316-.631-.804-.704l-.243-.024c-.22-.024-.39-.073-.39-.218 0-.17.17-.267.438-.267.293 0 .585.12.731.194l.22-.413zm13.597-.243a.688.688 0 00-.609.34v-.291h-.512v2.33h.512v-1.31c0-.39.17-.607.487-.607.098 0 .219.024.317.048l.146-.485c-.097-.025-.244-.025-.341-.025zm-6.531 1.214c0 .704.488 1.213 1.243 1.213.341 0 .585-.073.829-.267l-.244-.412a.987.987 0 01-.609.218c-.415 0-.707-.291-.707-.752 0-.437.292-.728.707-.752.219 0 .414.072.609.218l.244-.413c-.244-.194-.488-.267-.829-.267-.755 0-1.243.51-1.243 1.214zm4.728 0V19.56h-.512v.291a.882.882 0 00-.731-.34c-.658 0-1.17.51-1.17 1.214s.512 1.213 1.17 1.213c.341 0 .585-.121.731-.34v.292h.512v-1.165zm-1.877 0c0-.413.268-.752.707-.752.414 0 .707.315.707.752 0 .412-.293.752-.707.752-.439-.024-.707-.34-.707-.752zm-6.116-1.214c-.682 0-1.17.486-1.17 1.214s.488 1.213 1.194 1.213c.342 0 .683-.097.951-.315l-.244-.364a1.166 1.166 0 01-.682.242c-.317 0-.634-.145-.707-.558h1.73v-.194c.025-.752-.414-1.238-1.072-1.238zm0 .437c.317 0 .536.194.585.558h-1.218c.048-.315.268-.558.633-.558zm12.696.777v-2.087h-.512v1.213a.882.882 0 00-.731-.34c-.658 0-1.17.51-1.17 1.214s.512 1.213 1.17 1.213c.341 0 .585-.121.731-.34v.292h.512v-1.165zm-1.877 0c0-.413.268-.752.707-.752.414 0 .707.315.707.752 0 .412-.293.752-.707.752-.439-.024-.707-.34-.707-.752zm-17.106 0V19.56h-.512v.291c-.17-.218-.414-.34-.731-.34-.658 0-1.169.51-1.169 1.214s.511 1.213 1.169 1.213c.342 0 .585-.121.731-.34v.292h.512v-1.165zm-1.901 0c0-.413.269-.752.707-.752.414 0 .707.315.707.752 0 .412-.293.752-.707.752-.438-.024-.707-.34-.707-.752z" fill="#000"/><path d="M170.356 1.869h7.676v13.736h-7.676V1.869z" fill="#FF5F00"/><path d="M170.844 8.737c0-2.791 1.316-5.267 3.338-6.868A8.74 8.74 0 00168.773 0C163.923 0 160 3.907 160 8.737s3.923 8.737 8.772 8.737a8.74 8.74 0 005.41-1.869 8.712 8.712 0 01-3.338-6.868z" fill="#EB001B"/><path d="M188.388 8.737c0 4.83-3.923 8.737-8.772 8.737a8.74 8.74 0 01-5.41-1.869 8.674 8.674 0 003.338-6.868 8.744 8.744 0 00-3.338-6.868A8.74 8.74 0 01179.616 0c4.849 0 8.772 3.932 8.772 8.737z" fill="#F79E1B"/></g><g clip-path="url(#clip1)"><path d="M209.217 15.623h-7.684V1.87h7.684v13.753z" fill="#6C6BBD"/><path d="M202.021 8.746a8.72 8.72 0 013.354-6.876A8.766 8.766 0 00199.948 0c-4.85 0-8.781 3.916-8.781 8.746 0 4.831 3.931 8.747 8.781 8.747a8.764 8.764 0 005.427-1.87 8.72 8.72 0 01-3.354-6.876" fill="#D32011"/><path d="M219.584 8.746c0 4.831-3.932 8.747-8.781 8.747a8.769 8.769 0 01-5.428-1.87 8.717 8.717 0 003.354-6.876 8.717 8.717 0 00-3.354-6.877A8.769 8.769 0 01210.803 0c4.849 0 8.781 3.916 8.781 8.746z" fill="#0099DF"/><path d="M211.818 19.509c.102 0 .249.02.361.063l-.156.476a.83.83 0 00-.318-.058c-.331 0-.497.213-.497.597v1.303h-.508v-2.323h.503v.282a.689.689 0 01.615-.34zm-1.875.52h-.83v1.05c0 .232.083.388.337.388a.94.94 0 00.449-.131l.146.432a1.2 1.2 0 01-.634.18c-.6 0-.809-.32-.809-.86v-1.06h-.474v-.46h.474v-.705h.511v.704h.83v.462zm-6.493.495c.054-.335.258-.564.62-.564.326 0 .536.205.59.564h-1.21zm1.737.204c-.005-.724-.454-1.219-1.108-1.219-.683 0-1.161.495-1.161 1.22 0 .737.498 1.218 1.196 1.218.351 0 .672-.087.955-.325l-.249-.374a1.107 1.107 0 01-.677.243c-.327 0-.625-.15-.698-.569h1.732c.005-.063.01-.126.01-.194zm2.229-.568a1.503 1.503 0 00-.727-.2c-.278 0-.444.103-.444.273 0 .155.176.199.395.228l.239.034c.508.073.815.287.815.695 0 .442-.391.758-1.063.758-.381 0-.732-.097-1.011-.302l.24-.393c.17.131.424.243.776.243.346 0 .531-.102.531-.282 0-.13-.132-.204-.41-.243l-.239-.034c-.522-.073-.805-.306-.805-.685 0-.461.381-.743.971-.743.371 0 .708.083.951.243l-.219.408zm6.256-.171a.769.769 0 00-.291.054.694.694 0 00-.386.39.785.785 0 00-.056.303c0 .11.018.212.056.303a.695.695 0 00.386.39.76.76 0 00.291.055.761.761 0 00.291-.055.706.706 0 00.389-.39.801.801 0 00.056-.303.804.804 0 00-.056-.303.699.699 0 00-.389-.39.775.775 0 00-.291-.054zm0-.48c.181 0 .348.031.502.094a1.182 1.182 0 01.664.646c.064.15.096.312.096.487a1.225 1.225 0 01-.36.876 1.23 1.23 0 01-.4.258 1.327 1.327 0 01-.502.093c-.181 0-.349-.03-.503-.093a1.219 1.219 0 01-.398-.258 1.203 1.203 0 01-.358-.876 1.2 1.2 0 01.756-1.133c.154-.063.322-.094.503-.094zm-13.186 1.22c0-.409.269-.744.708-.744.419 0 .702.32.702.743s-.283.743-.702.743c-.439 0-.708-.334-.708-.743zm1.888 0v-1.162h-.507v.282c-.161-.209-.405-.34-.737-.34-.653 0-1.165.51-1.165 1.22 0 .709.512 1.219 1.165 1.219.332 0 .575-.131.737-.34v.282h.507v-1.162zm-2.858 1.16v-1.457c0-.549-.352-.918-.917-.923-.298-.005-.605.087-.82.413-.161-.257-.415-.413-.771-.413-.248 0-.492.073-.683.345v-.287h-.507v2.323h.512v-1.288c0-.403.225-.617.571-.617.337 0 .507.218.507.612v1.293h.513v-1.288c0-.403.234-.617.57-.617.347 0 .513.218.513.612v1.293h.512z" fill="#110F0D"/></g><g clip-path="url(#clip2)"><path d="M242.213 6.795c-.021 1.653 1.47 2.576 2.593 3.124 1.154.563 1.542.924 1.537 1.427-.009.77-.92 1.11-1.774 1.124-1.488.023-2.354-.403-3.042-.725l-.536 2.515c.69.319 1.969.597 3.294.61 3.112 0 5.148-1.54 5.159-3.928.012-3.03-4.181-3.197-4.152-4.551.01-.411.4-.85 1.257-.96.424-.057 1.594-.1 2.921.513l.521-2.434a7.93 7.93 0 00-2.773-.51c-2.928 0-4.988 1.56-5.005 3.795zm12.782-3.585c-.568 0-1.047.332-1.261.842l-4.445 10.638h3.11l.619-1.714h3.799l.359 1.714h2.741l-2.392-11.48h-2.53zm.435 3.101l.897 4.311h-2.457l1.56-4.31zM238.443 3.21l-2.451 11.48h2.963l2.45-11.48h-2.962zm-4.383 0l-3.084 7.814-1.248-6.644c-.146-.742-.724-1.17-1.366-1.17h-5.041l-.071.333c1.035.225 2.211.588 2.923.977.436.237.561.445.704 1.009l2.363 9.161h3.131l4.8-11.48h-3.111" fill="url(#paint0_linear)"/></g><g clip-path="url(#clip3)" fill-rule="evenodd" clip-rule="evenodd"><path d="M292.878 3.917h-6.263c.337 2.03 2.357 3.928 4.58 3.928h4.983c.068-.196.068-.458.068-.655 0-1.833-1.482-3.274-3.368-3.274z" fill="url(#paint1_linear)"/><path d="M287.154 8.172v4.911h3.031v-2.619h2.694c1.481 0 2.761-.982 3.165-2.292h-8.89zm-10.775-4.255v9.166h2.694s.673 0 1.01-.655l2.357-4.583h.337v5.238h3.03V3.917h-2.693s-.674.065-1.011.654a65200.95 65200.95 0 00-2.357 4.584h-.336V3.917h-3.031zm-12.796 9.166V3.917h3.031s.875 0 1.347 1.309c1.212 3.47 1.346 3.929 1.346 3.929s.27-.852 1.347-3.929c.472-1.31 1.347-1.31 1.347-1.31h3.031v9.167h-3.031v-4.91h-.336l-1.684 4.91h-1.347l-1.684-4.91h-.336v4.91h-3.031z" fill="#4DB45F"/></g><defs><clipPath id="clip0"><path fill="#fff" transform="translate(160)" d="M0 0h28.417v22H0z"/></clipPath><clipPath id="clip1"><path fill="#fff" transform="translate(191.167)" d="M0 0h28.417v22H0z"/></clipPath><clipPath id="clip2"><path fill="#fff" transform="translate(223.25 3)" d="M0 0h36.667v11.917H0z"/></clipPath><clipPath id="clip3"><path fill="#fff" transform="translate(263.583 3.917)" d="M0 0h33v9.167H0z"/></clipPath><linearGradient id="paint0_linear" x1="240.107" y1="15.107" x2="240.452" y2="2.918" gradientUnits="userSpaceOnUse"><stop stop-color="#222357"/><stop offset="1" stop-color="#254AA5"/></linearGradient><linearGradient id="paint1_linear" x1="286.598" y1="5.881" x2="296.246" y2="5.881" gradientUnits="userSpaceOnUse"><stop stop-color="#00B4E6"/><stop offset="1" stop-color="#088CCB"/></linearGradient></defs></svg>