<svg width="80" height="80" fill="none" xmlns="http://www.w3.org/2000/svg"><rect x="1" y="79" width="78" height="78" rx="39" transform="rotate(-90 1 79)" fill="#fff" stroke="#F2F2F2" stroke-width="2"/><path d="M41.001 28.648l-.853-.854V52.54a.145.145 0 01-.148.148.145.145 0 01-.147-.147V27.794l-.854.854-4.83 4.83a.143.143 0 01-.209 0 .143.143 0 010-.208l5.936-5.936a.155.155 0 01.104-.043c.036 0 .077.017.104.043l5.936 5.936c.06.06.06.149 0 .208a.143.143 0 01-.208 0l-4.831-4.83z" stroke="#4F4F4F"/></svg>