<svg width="50" height="50" fill="none" xmlns="http://www.w3.org/2000/svg"><circle cx="25" cy="25" r="25" fill="#fff"/><g clip-path="url(#clip0)"><path fill-rule="evenodd" clip-rule="evenodd" d="M32.213 26.537c.663.648 1.364 1.258 1.959 1.97.262.317.511.644.702 1.012.27.523.025 1.098-.444 1.13l-2.913-.002c-.752.062-1.351-.24-1.855-.754-.404-.41-.777-.848-1.165-1.273a2.756 2.756 0 00-.525-.466c-.397-.258-.743-.18-.97.236-.231.422-.284.889-.307 1.36-.03.685-.238.866-.927.897-1.473.07-2.871-.153-4.17-.896-1.144-.655-2.032-1.58-2.805-2.627-1.504-2.038-2.656-4.278-3.692-6.581-.233-.519-.063-.797.51-.807.95-.019 1.9-.017 2.852-.001.387.005.642.227.792.592.514 1.264 1.143 2.467 1.933 3.582.21.297.425.594.73.803.338.232.595.155.754-.221a2.5 2.5 0 00.168-.752c.075-.88.085-1.757-.047-2.634-.08-.547-.389-.9-.935-1.004-.278-.053-.237-.156-.102-.315.234-.274.455-.445.894-.445h3.293c.518.102.633.335.704.857l.003 3.657c-.006.202.1.802.465.935.29.095.483-.138.657-.322.789-.837 1.351-1.826 1.854-2.85.223-.45.415-.918.6-1.385.138-.347.355-.517.745-.51l3.17.003c.093 0 .188.002.28.017.533.091.68.32.515.842-.26.819-.766 1.5-1.26 2.185-.529.732-1.094 1.438-1.618 2.174-.482.671-.443 1.01.155 1.593z" fill="#FD8BA3"/></g><defs><clipPath id="clip0"><path fill="#fff" transform="translate(15 15)" d="M0 0h20v20H0z"/></clipPath></defs></svg>