<svg width="18" height="18" fill="none" xmlns="http://www.w3.org/2000/svg"><path d="M12.985 10.738c-.216-.11-1.29-.636-1.49-.708-.2-.075-.345-.11-.49.111-.146.22-.561.708-.692.856-.127.147-.255.164-.47.056C8.56 10.412 7.72 9.91 6.875 8.46c-.223-.385.224-.358.64-1.19.072-.147.036-.271-.019-.382-.055-.11-.49-1.183-.672-1.62-.176-.425-.358-.365-.49-.373-.127-.008-.272-.008-.418-.008a.806.806 0 00-.581.27c-.2.22-.764.748-.764 1.82s.781 2.11.888 2.256c.11.147 1.537 2.346 3.726 3.293 1.384.597 1.926.649 2.618.546.421-.063 1.29-.526 1.47-1.038.18-.51.18-.948.126-1.039-.053-.097-.2-.152-.415-.257z" fill="#fff"/><path d="M17.171 5.567A8.86 8.86 0 009.001.141h-.04a8.839 8.839 0 00-8.82 8.9 8.887 8.887 0 00.949 3.954V16c0 .503.407.91.91.91h3.007a8.888 8.888 0 003.954.95h.041c1.185 0 2.334-.23 3.415-.679a8.79 8.79 0 002.824-1.883A8.84 8.84 0 0017.86 9.04a8.826 8.826 0 00-.688-3.472zm-2.988 8.662A7.317 7.317 0 019 16.356h-.034a7.382 7.382 0 01-3.423-.86l-.166-.089H2.593v-2.784l-.09-.166a7.382 7.382 0 01-.86-3.423 7.311 7.311 0 012.129-5.217 7.301 7.301 0 015.196-2.173h.034a7.32 7.32 0 015.205 2.153 7.326 7.326 0 012.153 5.237 7.328 7.328 0 01-2.177 5.195z" fill="#fff"/></svg>