<svg width="25" height="25" fill="none" xmlns="http://www.w3.org/2000/svg"><path d="M18.438 13.183c1.657-.264 3.182.132 4.574 1.186C24.337 15.424 25 16.774 25 18.422c0 1.515-.563 2.834-1.69 3.954s-2.453 1.68-3.977 1.68-2.784-.593-3.778-1.78c-.994-1.12-1.558-2.47-1.69-4.052-.265-2.833-.166-5.239.298-7.216a18.889 18.889 0 012.187-5.337c.73-1.12 1.724-2.208 2.983-3.262C20.526 1.354 21.819.629 23.21.234c.73-.198 1.16-.23 1.293-.099.066.132.1.56.1 1.285v1.088c0 .79-.034 1.252-.1 1.383-.133.198-.564.429-1.293.692-1.458.528-2.618 1.516-3.48 2.966-.861 1.45-1.292 3.328-1.292 5.634zm-13.72 0c1.657-.264 3.181.132 4.573 1.186 1.326 1.055 1.989 2.405 1.989 4.053 0 1.515-.564 2.834-1.69 3.954-1.127 1.12-2.453 1.68-3.977 1.68-1.525 0-2.784-.593-3.778-1.78-.994-1.12-1.558-2.47-1.69-4.052-.266-2.833-.166-5.239.298-7.216A18.89 18.89 0 012.63 5.671c.73-1.12 1.723-2.208 2.983-3.262C6.806 1.354 8.098.629 9.49.234c.73-.198 1.16-.23 1.293-.099.066.132.1.56.1 1.285v1.088c0 .79-.034 1.252-.1 1.383-.133.198-.564.429-1.293.692C8.032 5.111 6.872 6.1 6.01 7.55 5.149 9 4.718 10.878 4.718 13.184z" fill="#24A3FF"/></svg>