<svg width="61" height="61" viewBox="0 0 61 61" fill="none" xmlns="http://www.w3.org/2000/svg">
<circle cx="30.5" cy="30.5" r="30" stroke="#005176"/>
<path d="M46.25 16.0758H14.75C13.7835 16.0758 13 16.8593 13 17.8258V32.9925C13 33.959 13.7835 34.7425 14.75 34.7425H46.25C47.2165 34.7425 48 33.959 48 32.9925V17.8258C48 16.8593 47.2165 16.0758 46.25 16.0758ZM46.8333 32.9925C46.8333 33.3146 46.5722 33.5758 46.25 33.5758H14.75C14.4278 33.5758 14.1667 33.3146 14.1667 32.9925V17.8258C14.1667 17.5036 14.4278 17.2425 14.75 17.2425H46.25C46.5722 17.2425 46.8333 17.5036 46.8333 17.8258V32.9925Z" fill="#023E5A"/>
<path d="M45.0833 21.3258C43.7947 21.3258 42.75 20.2812 42.75 18.9925C42.75 18.6703 42.4888 18.4092 42.1667 18.4092H18.8333C18.5112 18.4092 18.25 18.6703 18.25 18.9925C18.25 19.6114 18.0042 20.2048 17.5666 20.6424C17.129 21.08 16.5355 21.3258 15.9167 21.3258C15.5945 21.3258 15.3333 21.587 15.3333 21.9092V28.9092C15.3333 29.2313 15.5945 29.4925 15.9167 29.4925C17.2053 29.4925 18.25 30.5372 18.25 31.8258C18.25 32.148 18.5112 32.4092 18.8333 32.4092H42.1667C42.4888 32.4092 42.75 32.148 42.75 31.8258C42.75 30.5372 43.7947 29.4925 45.0833 29.4925C45.4055 29.4925 45.6667 29.2313 45.6667 28.9092V21.9092C45.6667 21.587 45.4055 21.3258 45.0833 21.3258ZM19.37 31.2425C19.1223 29.7722 17.9703 28.6202 16.5 28.3725V22.4167C17.9686 22.1697 19.1201 21.0206 19.37 19.5525H26.6383C24.6831 20.8494 23.5077 23.0396 23.5077 25.3858C23.5077 27.7321 24.6831 29.9223 26.6383 31.2192L19.37 31.2425ZM30.5 19.5758C33.7217 19.5758 36.3333 22.1875 36.3333 25.4092C36.3333 28.6308 33.7217 31.2425 30.5 31.2425C27.2783 31.2425 24.6667 28.6308 24.6667 25.4092C24.6667 22.1875 27.2783 19.5758 30.5 19.5758ZM44.5 28.3725C43.0297 28.6202 41.8777 29.7722 41.63 31.2425H34.3617C36.3168 29.9456 37.4923 27.7554 37.4923 25.4092C37.4923 23.063 36.3168 20.8728 34.3617 19.5758H41.63C41.8889 21.0349 43.0384 22.1727 44.5 22.4167V28.3725Z" fill="#023E5A"/>
<path d="M30.5 28.3258C29.8557 28.3258 29.3333 27.8035 29.3333 27.1592C29.3333 26.837 29.0722 26.5758 28.75 26.5758C28.4278 26.5758 28.1667 26.837 28.1667 27.1592C28.1675 28.2225 28.8871 29.1508 29.9167 29.4167V30.0875C29.9167 30.4097 30.1778 30.6708 30.5 30.6708C30.8222 30.6708 31.0833 30.4097 31.0833 30.0875V29.4167C32.1967 29.1038 32.9129 28.0227 32.7667 26.8755C32.6206 25.7283 31.6562 24.8613 30.5 24.8375C29.8557 24.8375 29.3333 24.3152 29.3333 23.6708C29.3333 23.0265 29.8557 22.5042 30.5 22.5042C31.1443 22.5042 31.6667 23.0265 31.6667 23.6708C31.6667 23.993 31.9278 24.2542 32.25 24.2542C32.5722 24.2542 32.8333 23.993 32.8333 23.6708C32.8299 22.6097 32.1108 21.6845 31.0833 21.4192V20.7425C31.0833 20.4203 30.8222 20.1592 30.5 20.1592C30.1778 20.1592 29.9167 20.4203 29.9167 20.7425V21.4075C28.7932 21.7125 28.0664 22.799 28.2133 23.9538C28.3602 25.1087 29.3359 25.9786 30.5 25.9925C31.1443 25.9925 31.6667 26.5148 31.6667 27.1592C31.6667 27.8035 31.1443 28.3258 30.5 28.3258Z" fill="#023E5A"/>
<path d="M23.7917 41.1592C24.2749 41.1592 24.6667 40.7674 24.6667 40.2842V36.7842C24.6667 36.3009 24.2749 35.9092 23.7917 35.9092H18.5417C18.0584 35.9092 17.6667 36.3009 17.6667 36.7842V40.2842C17.6667 40.7674 18.0584 41.1592 18.5417 41.1592H23.7917ZM18.8333 37.0758H23.5V39.9925H18.8333V37.0758Z" fill="#023E5A"/>
<path d="M33.125 43.4925C33.6083 43.4925 34 43.1008 34 42.6175V36.7842C34 36.3009 33.6083 35.9092 33.125 35.9092H27.875C27.3918 35.9092 27 36.3009 27 36.7842V42.6175C27 43.1008 27.3918 43.4925 27.875 43.4925H33.125ZM28.1667 37.0758H32.8333V42.3258H28.1667V37.0758Z" fill="#023E5A"/>
<path d="M42.4583 35.9092H37.2083C36.7251 35.9092 36.3333 36.3009 36.3333 36.7842V44.6592H35.8142C35.4723 44.663 35.164 44.8656 35.0248 45.1779C34.8856 45.4901 34.941 45.8549 35.1667 46.1117L39.1858 50.6325C39.3519 50.8189 39.5896 50.9255 39.8392 50.9255C40.0888 50.9255 40.3265 50.8189 40.4925 50.6325L44.5 46.1117C44.7263 45.8541 44.7813 45.488 44.6406 45.1752C44.5 44.8625 44.1896 44.6608 43.8467 44.6592H43.3333V36.7842C43.3333 36.3009 42.9416 35.9092 42.4583 35.9092ZM39.8333 49.6117L36.4675 45.8258H36.625C37.1083 45.8258 37.5 45.4341 37.5 44.9508V37.0758H42.1667V44.9508C42.1667 45.4341 42.5584 45.8258 43.0417 45.8258H43.1992L39.8333 49.6117Z" fill="#023E5A"/>
</svg>
