<svg width="61" height="61" viewBox="0 0 61 61" fill="none" xmlns="http://www.w3.org/2000/svg">
<circle cx="30.5" cy="30.5" r="30" stroke="#005176"/>
<path d="M45.3461 18.1541H15.6539C14.1905 18.1541 13 19.3446 13 20.808V41.3121C13 42.7755 14.1905 43.9661 15.6539 43.9661H39.244V48.1625C39.244 48.3915 39.3586 48.6051 39.5492 48.7319C39.7398 48.8586 39.9812 48.8814 40.1923 48.7928L42.8493 47.6766L45.5063 48.7928C45.5914 48.8285 45.6813 48.8461 45.771 48.8461C45.9037 48.8461 46.0356 48.8075 46.1494 48.7319C46.3401 48.6052 46.4547 48.3915 46.4547 48.1625V43.0666C46.4885 43.0449 46.5242 43.0229 46.5595 43.0011C46.8059 42.849 47.1126 42.6597 47.3108 42.3157C47.5066 41.9759 47.5173 41.6169 47.5259 41.3285C47.5296 41.2023 47.5334 41.0719 47.5538 40.9952C47.5719 40.9275 47.6311 40.8177 47.6885 40.7116C47.8272 40.4547 47.9999 40.1348 47.9999 39.731V20.808C48 19.3446 46.8095 18.1541 45.3461 18.1541ZM14.3672 41.312V20.808C14.3672 20.0985 14.9444 19.5212 15.6539 19.5212H45.3461C46.0556 19.5212 46.6328 20.0985 46.6328 20.808V36.5062C46.6079 36.4907 46.5835 36.4756 46.5596 36.4608C46.4546 36.396 46.346 36.329 46.2934 36.2762C46.2407 36.2233 46.174 36.1141 46.1094 36.0086C45.958 35.7612 45.7696 35.4534 45.4267 35.2541C45.283 35.1705 45.1359 35.1204 44.9923 35.0897V25.6373C44.9923 25.2597 44.6861 24.9537 44.3087 24.9537C42.7389 24.9537 41.4617 23.6766 41.4617 22.1068C41.4617 22.0369 41.4643 21.9657 41.4694 21.895C41.4832 21.7056 41.4175 21.519 41.2883 21.3799C41.1589 21.2408 40.9776 21.1619 40.7877 21.1619H20.2124C20.0225 21.1619 19.8411 21.2409 19.7118 21.3799C19.5825 21.519 19.5168 21.7056 19.5306 21.895C19.5358 21.9657 19.5384 22.0369 19.5384 22.1068C19.5384 23.6766 18.2612 24.9537 16.6915 24.9537C16.314 24.9537 16.0079 25.2597 16.0079 25.6373V36.4828C16.0079 36.8603 16.314 37.1664 16.6915 37.1664C18.2613 37.1664 19.5384 38.4435 19.5384 40.0133C19.5384 40.0831 19.5358 40.1544 19.5306 40.225C19.5169 40.4145 19.5825 40.6011 19.7118 40.7401C19.8412 40.8792 20.0225 40.9583 20.2124 40.9583H38.1325C38.1376 40.9716 38.1418 40.984 38.1447 40.9952C38.1651 41.0719 38.169 41.2024 38.1727 41.3286C38.1813 41.6169 38.1919 41.9758 38.3877 42.3157C38.4503 42.4242 38.5236 42.5174 38.6025 42.5989H15.6539C14.9444 42.5988 14.3672 42.0216 14.3672 41.312ZM38.3878 37.1461C38.192 37.486 38.1813 37.8449 38.1728 38.1332C38.169 38.2594 38.1652 38.3899 38.1448 38.4666C38.1266 38.5344 38.0675 38.6441 38.0101 38.7503C37.8878 38.9768 37.7391 39.2522 37.7056 39.591H20.8846C20.6947 37.6918 19.2384 36.1598 17.375 35.8545V26.2655C19.2384 25.9602 20.6947 24.4283 20.8846 22.5291H40.1154C40.3053 24.4283 41.7616 25.9602 43.625 26.2655V34.7669C43.408 34.659 43.1526 34.5611 42.8493 34.5611C42.4452 34.5611 42.1259 34.735 41.8693 34.8747C41.764 34.932 41.655 34.9914 41.5884 35.0093C41.5128 35.0296 41.3834 35.0335 41.2582 35.0372C40.9702 35.0459 40.6118 35.0567 40.272 35.2541C39.9289 35.4534 39.7406 35.7612 39.5893 36.0086C39.5247 36.1142 39.4579 36.2233 39.4052 36.2763C39.3527 36.329 39.2441 36.396 39.1391 36.4608C38.8926 36.6128 38.586 36.8021 38.3878 37.1461ZM43.1141 46.3048C42.9448 46.2337 42.7538 46.2337 42.5846 46.3048L40.6112 47.1338V44.3488C40.8406 44.4121 41.0652 44.4188 41.2582 44.4246C41.3834 44.4283 41.5128 44.4322 41.5884 44.4525C41.6551 44.4704 41.764 44.5298 41.8694 44.5871C42.1259 44.7268 42.4452 44.9007 42.8493 44.9007C43.2534 44.9007 43.5726 44.7268 43.8291 44.5872C43.9345 44.5298 44.0436 44.4704 44.1103 44.4525C44.1858 44.4322 44.3153 44.4283 44.4404 44.4246C44.6334 44.4187 44.858 44.412 45.0875 44.3487V47.1338L43.1141 46.3048ZM46.4856 40.0619C46.395 40.2297 46.2924 40.4197 46.2328 40.6435C46.1717 40.8732 46.1652 41.0934 46.1594 41.2878C46.1559 41.4056 46.1506 41.5838 46.1265 41.6328C46.0965 41.6801 45.937 41.7786 45.8416 41.8376C45.6772 41.9389 45.4909 42.0539 45.3247 42.2209C45.1586 42.3877 45.0442 42.5747 44.9433 42.7396C44.8849 42.8352 44.7868 42.9952 44.7412 43.0248C44.6915 43.0492 44.5158 43.0545 44.3995 43.0579C44.2055 43.0637 43.9855 43.0704 43.756 43.132C43.5324 43.192 43.3428 43.2952 43.1755 43.3864C43.0744 43.4413 42.9054 43.5334 42.8495 43.5334C42.7935 43.5334 42.6244 43.4413 42.5234 43.3864C42.3561 43.2953 42.1664 43.192 41.943 43.132C41.7135 43.0704 41.4935 43.0638 41.2994 43.058C41.1832 43.0545 41.0075 43.0492 40.9595 43.0259C40.9121 42.9953 40.8141 42.8352 40.7556 42.7396C40.6546 42.5746 40.5403 42.3877 40.3742 42.2209C40.2079 42.0539 40.0216 41.9389 39.8572 41.8375C39.7619 41.7786 39.6023 41.6801 39.5731 41.6341C39.5483 41.5838 39.543 41.4057 39.5395 41.2878C39.5337 41.0934 39.5271 40.8731 39.466 40.6433C39.4065 40.4197 39.3039 40.2296 39.2133 40.0619C39.1547 39.9532 39.066 39.7891 39.066 39.7308C39.066 39.6725 39.1547 39.5084 39.2133 39.3997C39.3039 39.232 39.4065 39.0419 39.4661 38.8182C39.5272 38.5885 39.5337 38.3682 39.5395 38.1737C39.543 38.0559 39.5483 37.8778 39.5725 37.8288C39.6024 37.7815 39.7619 37.683 39.8573 37.624C40.0216 37.5227 40.208 37.4077 40.3743 37.2407C40.5404 37.0739 40.6548 36.8869 40.7557 36.722C40.8141 36.6263 40.9122 36.4663 40.9577 36.4368C41.0075 36.4124 41.1832 36.4071 41.2994 36.4037C41.4936 36.3979 41.7135 36.3912 41.9431 36.3296C42.1665 36.2696 42.3562 36.1663 42.5235 36.0752C42.6245 36.0202 42.7935 35.9281 42.8495 35.9281C42.9054 35.9281 43.0746 36.0202 43.1756 36.0751C43.3429 36.1663 43.5326 36.2696 43.756 36.3295C43.9856 36.3911 44.2056 36.3977 44.3996 36.4036C44.5159 36.4071 44.6915 36.4124 44.7395 36.4357C44.7869 36.4663 44.8849 36.6264 44.9434 36.722C45.0443 36.887 45.1586 37.0739 45.3248 37.2407C45.4911 37.4077 45.6773 37.5227 45.8416 37.6241C45.937 37.683 46.0966 37.7815 46.1258 37.8275C46.1507 37.8778 46.1559 38.0561 46.1595 38.1739C46.1652 38.3683 46.1718 38.5886 46.2329 38.8183C46.2924 39.0419 46.3951 39.232 46.4856 39.3998C46.5442 39.5084 46.6329 39.6726 46.6329 39.7309C46.6328 39.7892 46.5442 39.9533 46.4856 40.0619Z" fill="#023E5A"/>
<path d="M23.801 28.8071H37.1989C37.5764 28.8071 37.8825 28.501 37.8825 28.1235V24.8849C37.8825 24.5073 37.5764 24.2013 37.1989 24.2013H23.801C23.4235 24.2013 23.1174 24.5073 23.1174 24.8849V28.1235C23.1174 28.501 23.4235 28.8071 23.801 28.8071ZM24.4846 25.5685H36.5153V27.4399H24.4846V25.5685Z" fill="#023E5A"/>
<path d="M38.3446 31.7538H22.6554C22.2779 31.7538 21.9718 32.0598 21.9718 32.4374C21.9718 32.8149 22.2779 33.121 22.6554 33.121H38.3446C38.7221 33.121 39.0282 32.8149 39.0282 32.4374C39.0282 32.0598 38.7221 31.7538 38.3446 31.7538Z" fill="#023E5A"/>
<path d="M35.6953 35.0422H33.5903C33.2128 35.0422 32.9067 35.3483 32.9067 35.7258C32.9067 36.1034 33.2128 36.4094 33.5903 36.4094H35.6953C36.0728 36.4094 36.3789 36.1034 36.3789 35.7258C36.3789 35.3483 36.0728 35.0422 35.6953 35.0422Z" fill="#023E5A"/>
<path d="M27.4097 35.0422H25.3047C24.9271 35.0422 24.6211 35.3483 24.6211 35.7258C24.6211 36.1034 24.9271 36.4094 25.3047 36.4094H27.4097C27.7873 36.4094 28.0933 36.1034 28.0933 35.7258C28.0933 35.3483 27.7872 35.0422 27.4097 35.0422Z" fill="#023E5A"/>
<path d="M31.144 35.4646C31.0338 35.1959 30.7533 35.0235 30.4638 35.0444C30.1798 35.0649 29.9342 35.2648 29.8557 35.5383C29.777 35.8127 29.8825 36.1152 30.1143 36.2817C30.3429 36.4457 30.6578 36.4505 30.8916 36.2946C31.1595 36.116 31.2678 35.7619 31.144 35.4646Z" fill="#023E5A"/>
</svg>
