<svg width="61" height="61" viewBox="0 0 61 61" fill="none" xmlns="http://www.w3.org/2000/svg">
<circle cx="30.5" cy="30.5" r="30" stroke="#005176"/>
<g clip-path="url(#clip0)">
<path fill-rule="evenodd" clip-rule="evenodd" d="M37.2351 35.9732V20.2351C37.2351 17.8999 35.3352 16 33 16C30.6646 16 28.7647 17.8999 28.7647 20.2351V35.9732C27.2543 36.8998 26.0813 38.2998 25.4385 39.9544C25.3018 40.3063 25.4762 40.7026 25.8281 40.8393C26.1798 40.9757 26.5761 40.8014 26.7128 40.4494C27.2888 38.9674 28.3764 37.7305 29.7756 36.9671C29.9954 36.8475 30.1318 36.6173 30.1318 36.3671V20.2351C30.1318 18.6537 31.4184 17.3672 33 17.3672C34.5814 17.3672 35.8679 18.6537 35.8679 20.2351V36.3671C35.8679 36.6173 36.0046 36.8475 36.2241 36.9671C38.3943 38.1511 39.7425 40.4209 39.7425 42.8903C39.7425 46.6082 36.7176 49.6328 32.9997 49.6328C30.1959 49.6328 27.7281 47.9444 26.7128 45.331C26.5761 44.979 26.1801 44.8047 25.8281 44.9414C25.4762 45.0781 25.3016 45.4741 25.4383 45.826C26.033 47.3564 27.0634 48.6555 28.4186 49.5826C29.7738 50.5097 31.358 51 33 51C37.4717 51 41.1097 47.362 41.1097 42.8903C41.1097 40.058 39.6351 37.444 37.2351 35.9732Z" fill="#023E5A"/>
<path fill-rule="evenodd" clip-rule="evenodd" d="M33 21.9731C32.6224 21.9731 32.3164 22.2792 32.3164 22.6567V38.2208C30.0368 38.5532 28.2805 40.5202 28.2805 42.8903C28.2805 45.4925 30.3976 47.6098 33 47.6098C35.6022 47.6098 37.7195 45.4925 37.7195 42.8903C37.7195 40.5202 35.963 38.5532 33.6836 38.2208V22.6567C33.6836 22.2792 33.3776 21.9731 33 21.9731ZM36.3523 42.8903C36.3523 44.7387 34.8484 46.2426 33 46.2426C31.1514 46.2426 29.6477 44.7387 29.6477 42.8903C29.6477 41.0417 31.1514 39.5378 33 39.5378C34.8484 39.5378 36.3523 41.0417 36.3523 42.8903Z" fill="#023E5A"/>
<path fill-rule="evenodd" clip-rule="evenodd" d="M39.8157 23.8605H43.3672C43.7447 23.8605 44.0508 23.5545 44.0508 23.1769C44.0508 22.7993 43.7447 22.4933 43.3672 22.4933H39.8157C39.4381 22.4933 39.1321 22.7993 39.1321 23.1769C39.1321 23.5545 39.4381 23.8605 39.8157 23.8605Z" fill="#023E5A"/>
<path fill-rule="evenodd" clip-rule="evenodd" d="M43.3672 25.6506H39.8157C39.4381 25.6506 39.1321 25.9566 39.1321 26.3342C39.1321 26.7115 39.4381 27.0178 39.8157 27.0178H43.3672C43.7447 27.0178 44.0508 26.7115 44.0508 26.3342C44.0508 25.9566 43.7447 25.6506 43.3672 25.6506Z" fill="#023E5A"/>
<path fill-rule="evenodd" clip-rule="evenodd" d="M43.3672 28.8077H39.8157C39.4381 28.8077 39.1321 29.1138 39.1321 29.4913C39.1321 29.8689 39.4381 30.1749 39.8157 30.1749H43.3672C43.7447 30.1749 44.0508 29.8689 44.0508 29.4913C44.0508 29.1138 43.7447 28.8077 43.3672 28.8077Z" fill="#023E5A"/>
<path fill-rule="evenodd" clip-rule="evenodd" d="M43.3672 31.9648H39.8157C39.4381 31.9648 39.1321 32.2711 39.1321 32.6484C39.1321 33.026 39.4381 33.332 39.8157 33.332H43.3672C43.7447 33.332 44.0508 33.026 44.0508 32.6484C44.0508 32.2709 43.7447 31.9648 43.3672 31.9648Z" fill="#023E5A"/>
<path fill-rule="evenodd" clip-rule="evenodd" d="M18.3663 22.7775C16.7217 22.7775 15.1644 23.5748 14.2004 24.91C13.9796 25.216 14.0485 25.6432 14.3545 25.8643C14.6607 26.0852 15.088 26.0163 15.3088 25.7102C16.0167 24.73 17.1596 24.1447 18.3663 24.1447C20.4438 24.1447 22.1341 25.8349 22.1341 27.9127C22.1341 29.9904 20.4438 31.6807 18.3663 31.6807C17.1593 31.6807 16.0165 31.0954 15.3088 30.1152C15.088 29.8091 14.6607 29.7402 14.3545 29.9611C14.0485 30.1822 13.9796 30.6094 14.2004 30.9154C15.1644 32.2508 16.7217 33.0479 18.3663 33.0479C21.1976 33.0479 23.5013 30.7443 23.5013 27.9127C23.5013 25.0811 21.1979 22.7775 18.3663 22.7775Z" fill="#023E5A"/>
<path fill-rule="evenodd" clip-rule="evenodd" d="M18.3663 21.5999C18.7439 21.5999 19.0499 21.2938 19.0499 20.9163V19.2983C19.0499 18.921 18.7439 18.6147 18.3663 18.6147C17.9887 18.6147 17.6827 18.921 17.6827 19.2983V20.9163C17.6827 21.2938 17.9887 21.5999 18.3663 21.5999Z" fill="#023E5A"/>
<path fill-rule="evenodd" clip-rule="evenodd" d="M12.9357 23.4488C13.0693 23.5823 13.2442 23.6491 13.4191 23.6491C13.594 23.6491 13.7689 23.5823 13.9024 23.4488C14.1694 23.182 14.1694 22.7492 13.9024 22.4822L12.7584 21.3382C12.4914 21.0712 12.0586 21.0712 11.7918 21.3382C11.5248 21.605 11.5248 22.0378 11.7918 22.3049L12.9357 23.4488Z" fill="#023E5A"/>
<path fill-rule="evenodd" clip-rule="evenodd" d="M24.6791 27.9127C24.6791 28.2903 24.9852 28.5963 25.3627 28.5963H26.9807C27.3582 28.5963 27.6643 28.2903 27.6643 27.9127C27.6643 27.5351 27.3582 27.2291 26.9807 27.2291H25.3627C24.9852 27.2291 24.6791 27.5351 24.6791 27.9127Z" fill="#023E5A"/>
<path fill-rule="evenodd" clip-rule="evenodd" d="M23.3135 23.6491C23.4884 23.6491 23.6633 23.5823 23.7969 23.4491L24.9408 22.3049C25.2078 22.0381 25.2078 21.6052 24.9408 21.3382C24.674 21.0712 24.2412 21.0712 23.9742 21.3382L22.8302 22.4822C22.5632 22.7492 22.5632 23.182 22.8302 23.4491C22.9635 23.5823 23.1386 23.6491 23.3135 23.6491Z" fill="#023E5A"/>
<path fill-rule="evenodd" clip-rule="evenodd" d="M12.0535 27.9127C12.0535 27.5351 11.7475 27.2291 11.3699 27.2291H9.75195C9.37437 27.2291 9.06836 27.5351 9.06836 27.9127C9.06836 28.2903 9.37437 28.5963 9.75195 28.5963H11.3699C11.7475 28.5963 12.0535 28.2903 12.0535 27.9127Z" fill="#023E5A"/>
<path fill-rule="evenodd" clip-rule="evenodd" d="M18.3663 34.2255C17.9887 34.2255 17.6827 34.5315 17.6827 34.9091V36.527C17.6827 36.9046 17.9887 37.2106 18.3663 37.2106C18.7439 37.2106 19.0499 36.9046 19.0499 36.527V34.9091C19.0499 34.5315 18.7439 34.2255 18.3663 34.2255Z" fill="#023E5A"/>
<path fill-rule="evenodd" clip-rule="evenodd" d="M24.9408 33.5206L23.7969 32.3767C23.5298 32.1096 23.097 32.1096 22.8302 32.3767C22.5632 32.6437 22.5632 33.0765 22.8302 33.3436L23.9742 34.4875C24.1077 34.6208 24.2826 34.6875 24.4575 34.6875C24.6324 34.6875 24.8073 34.6208 24.9408 34.4875C25.2078 34.2205 25.2078 33.7876 24.9408 33.5206Z" fill="#023E5A"/>
<path fill-rule="evenodd" clip-rule="evenodd" d="M12.9357 32.3767L11.7918 33.5206C11.5248 33.7874 11.5248 34.2202 11.7918 34.4873C11.925 34.6208 12.1002 34.6875 12.2751 34.6875C12.45 34.6875 12.6249 34.6208 12.7584 34.4873L13.9024 33.3433C14.1694 33.0765 14.1694 32.6437 13.9024 32.3767C13.6354 32.1096 13.2028 32.1096 12.9357 32.3767Z" fill="#023E5A"/>
<path fill-rule="evenodd" clip-rule="evenodd" d="M26.2575 42.8904C26.2575 42.5139 25.9504 42.2068 25.5739 42.2068C25.1974 42.2068 24.8901 42.5139 24.8901 42.8904C24.8901 43.2669 25.1974 43.574 25.5739 43.574C25.9504 43.574 26.2575 43.2669 26.2575 42.8904Z" fill="#023E5A"/>
<path fill-rule="evenodd" clip-rule="evenodd" d="M13.2311 27.9127C13.2311 28.2892 13.5382 28.5963 13.9147 28.5963C14.2912 28.5963 14.5983 28.2892 14.5983 27.9127C14.5983 27.5362 14.2912 27.2291 13.9147 27.2291C13.5382 27.2291 13.2311 27.5362 13.2311 27.9127Z" fill="#023E5A"/>
</g>
<defs>
<clipPath id="clip0">
<rect width="35" height="35" fill="white" transform="translate(9 16)"/>
</clipPath>
</defs>
</svg>
