<svg width="61" height="61" viewBox="0 0 61 61" fill="none" xmlns="http://www.w3.org/2000/svg">
<circle cx="30.5" cy="30.5" r="30" stroke="#005176"/>
<path fill-rule="evenodd" clip-rule="evenodd" d="M44.0483 33.6935C43.9616 33.6911 43.8746 33.6896 43.7872 33.6896C40.8206 33.6896 38.1791 35.1038 36.5019 37.2921C35.0899 35.1037 32.8106 33.5904 30.2567 33.1293C31.6732 32.2052 32.7691 30.8316 33.34 29.2121C35.0124 29.2 36.3693 27.8384 36.3693 26.1657C36.3693 24.6418 35.2431 23.3757 33.7781 23.1534V22.0873C34.3586 21.4961 35.6075 19.8512 35.346 16.8299C35.2368 15.5674 34.7605 14.5766 33.9308 13.8852C32.8739 13.0046 31.5411 12.8853 30.926 12.8822C30.161 12.2008 27.6432 10.3007 24.2669 11.2701C22.7897 11.6942 21.7461 12.3265 20.8252 12.8843C19.4058 13.7442 18.2849 14.4234 15.989 14.1321C15.7807 14.106 15.5707 14.1739 15.4177 14.318C15.2647 14.4621 15.1843 14.6671 15.1987 14.8766C15.2615 15.7979 15.8021 17.3478 17.3195 17.944C16.8623 18.1998 16.2004 18.4117 15.2787 18.3837C15.005 18.3771 14.7529 18.5256 14.6298 18.7687C14.5066 19.0119 14.5355 19.3043 14.7037 19.5189C14.7755 19.6104 16.3921 21.6497 18.2858 22.3862V23.1534C16.8208 23.3757 15.6946 24.6418 15.6946 26.1657C15.6946 27.8383 17.0516 29.2 18.7239 29.2121C19.2946 30.8309 20.3898 32.204 21.8055 33.1282C20.0786 33.4354 18.4656 34.2201 17.1492 35.4149C16.8618 35.6759 16.8405 36.12 17.1019 36.407C17.3632 36.694 17.808 36.7152 18.0955 36.4543C19.502 35.1776 21.3067 34.4518 23.2017 34.3916L23.7354 36.752L22.4379 44.5744C19.994 44.0954 17.6378 43.1522 15.5053 41.7697C15.5892 40.615 15.9252 39.4837 16.4876 38.4765C16.6767 38.1378 16.5549 37.7099 16.2157 37.5211C15.8763 37.3323 15.4479 37.4539 15.2587 37.7926C14.7309 38.738 14.3729 39.7759 14.1989 40.8463C14.1067 41.4973 14.2571 42.6085 14.4922 42.7908C17.0313 44.4906 19.9094 45.6144 22.9829 46.0892C24.0771 46.2583 25.1727 46.3422 26.2622 46.3422C29.1932 46.3422 32.0792 45.7326 34.776 44.5401C35.5746 48.7811 39.3113 52 43.7874 52C45.4644 52 47.1054 51.5435 48.5328 50.6803C48.865 50.4792 48.9712 50.0474 48.7699 49.7156C48.5687 49.384 48.1362 49.2782 47.8038 49.4788C46.5963 50.2093 45.2074 50.5954 43.7874 50.5954C39.5069 50.5954 36.0246 47.1184 36.0246 42.8447C36.0246 38.571 39.507 35.094 43.7874 35.094C48.0678 35.094 51.5502 38.571 51.5502 42.8447C51.5502 44.651 50.9145 46.4093 49.7602 47.7959C49.5119 48.0942 49.5527 48.537 49.8515 48.7849C50.1502 49.033 50.5938 48.9921 50.8421 48.6937C52.2059 47.0556 52.957 44.9784 52.957 42.8448C52.957 38.3888 49.752 34.667 45.5229 33.8547C44.9744 33.7272 44.3113 33.6941 44.0483 33.6935ZM33.6973 27.762C34.4216 27.5903 34.9626 26.9406 34.9626 26.1656C34.9626 25.4197 34.4617 24.7894 33.7783 24.5899V26.6515C33.7783 27.0287 33.7498 27.3992 33.6973 27.762ZM18.286 24.59C17.6027 24.7895 17.1017 25.4197 17.1017 26.1656C17.1017 26.9406 17.6426 27.5902 18.367 27.7621C18.3145 27.3992 18.286 27.0287 18.286 26.6516V24.59ZM19.0242 21.1564C19.0804 21.1731 19.1379 21.1823 19.1951 21.1837C19.5314 21.1933 22.5463 21.1879 24.8578 18.583C24.9935 18.4301 25.1866 18.3405 25.3939 18.3466C25.5985 18.3493 25.7917 18.441 25.9232 18.5975C25.962 18.6437 26.6774 19.509 26.8339 20.6372C27.6848 20.3863 29.0213 19.7876 29.7651 18.4086C29.8863 18.1839 30.12 18.0425 30.3757 18.0393L30.3845 18.0392C30.6368 18.0392 30.87 18.1741 30.9953 18.3932C31.2815 18.8921 32.1196 20.1627 32.9833 20.8675C33.1082 20.7109 33.2535 20.5011 33.3926 20.2351C33.8688 19.3249 34.0546 18.2198 33.9447 16.9505C33.8389 15.7287 33.3067 14.9421 32.3177 14.5459C31.5235 14.2276 30.7261 14.2913 30.7181 14.292C30.5058 14.3104 30.2932 14.2314 30.1459 14.0772C30.0536 13.9817 27.8124 11.7131 24.6558 12.6198C23.3592 12.992 22.442 13.5476 21.555 14.0849C20.2278 14.889 18.9652 15.6529 16.8187 15.6032C17.0726 16.1726 17.6196 16.8181 18.7932 16.7814C19.044 16.7753 19.2784 16.8999 19.4108 17.1118C19.5431 17.3237 19.5528 17.5898 19.4362 17.8108C19.3998 17.8798 18.6721 19.2133 16.7373 19.652C17.3466 20.2363 18.1842 20.9064 19.0242 21.1564ZM19.6927 22.5722V26.6515C19.6927 30.1417 22.5366 32.9811 26.0321 32.981C29.5276 32.981 32.3715 30.1416 32.3715 26.6515V22.1659C31.5693 21.5969 30.8468 20.6938 30.3683 20.0122C28.7473 21.9466 26.2974 22.1953 26.1795 22.2061C25.9569 22.2261 25.7379 22.1402 25.5893 21.9734C25.4408 21.8067 25.3805 21.5794 25.4269 21.3609C25.5152 20.9454 25.4022 20.5222 25.2529 20.1844C23.1595 22.1083 20.7634 22.4978 19.6927 22.5722ZM27.0494 36.0289L27.4209 34.3857H24.6428L25.0144 36.0289H27.0494ZM23.8275 44.7954C24.625 44.8934 25.4287 44.9431 26.2343 44.9431C26.9037 44.9431 27.5743 44.9072 28.2436 44.8386L27.0153 37.4335H25.0486L23.8275 44.7954ZM34.6205 43.0676C34.6187 42.9936 34.6177 42.9193 34.6177 42.8448C34.6177 41.3221 34.9924 39.8854 35.6538 38.6209C34.3189 36.1121 31.708 34.4827 28.8621 34.3903L28.3281 36.7519L29.6376 44.6465C31.3343 44.3488 33.0093 43.8243 34.6205 43.0676Z" fill="#023E5A"/>
<path d="M48.4161 42.6757C48.8294 42.2735 48.9753 41.6831 48.7969 41.135C48.6185 40.5869 48.1529 40.1951 47.5819 40.1123L45.9437 39.8746C45.9118 39.8699 45.8841 39.8499 45.8697 39.8209L45.1372 38.3389C44.8817 37.8221 44.3645 37.5011 43.7873 37.5011C43.2101 37.5011 42.6929 37.8221 42.4375 38.3389L41.7049 39.8209C41.6906 39.8498 41.6629 39.8699 41.6307 39.8746L39.9928 40.1123C39.4216 40.195 38.956 40.5869 38.7776 41.135C38.5993 41.6831 38.7452 42.2735 39.1585 42.6758L40.3439 43.8293C40.3671 43.8519 40.3776 43.8843 40.3721 43.9163L40.0923 45.5451C39.9947 46.1131 40.2242 46.6764 40.6911 47.0151C40.9549 47.2065 41.2636 47.3038 41.5745 47.3037C41.8137 47.3037 42.0542 47.2461 42.2764 47.1295L43.7415 46.3605C43.7702 46.3454 43.8044 46.3454 43.8331 46.3605L45.2982 47.1295C45.8091 47.3976 46.4165 47.3539 46.8835 47.0151C47.3504 46.6764 47.5798 46.1131 47.4823 45.5452L47.2025 43.9163C47.197 43.8844 47.2076 43.8519 47.2308 43.8293L48.4161 42.6757ZM46.2489 42.8233C45.8939 43.1687 45.7321 43.666 45.8159 44.1536L46.0957 45.7826C46.0985 45.799 46.1061 45.8428 46.0565 45.8787C46.007 45.9145 45.9677 45.894 45.9528 45.8861L44.4877 45.1171C44.0491 44.8868 43.5254 44.8867 43.0867 45.1171L41.6216 45.8861C41.6067 45.894 41.5675 45.9144 41.5179 45.8787C41.4684 45.8427 41.476 45.7991 41.4788 45.7826L41.7586 44.1536C41.8423 43.666 41.6805 43.1687 41.3256 42.8233L40.1403 41.67C40.1284 41.6583 40.0965 41.6272 40.1154 41.5691C40.1343 41.5111 40.1782 41.5046 40.1948 41.5023L41.8327 41.2646C42.3231 41.1936 42.7468 40.8862 42.9662 40.4425L43.6987 38.9605C43.7061 38.9454 43.7257 38.9057 43.7869 38.9057C43.8482 38.9057 43.8678 38.9455 43.8753 38.9605L44.6078 40.4424C44.8271 40.8861 45.2508 41.1935 45.7412 41.2645L47.3794 41.5022C47.3959 41.5046 47.4398 41.511 47.4588 41.569C47.4777 41.6272 47.4459 41.6582 47.4339 41.6698L46.2489 42.8233Z" fill="#023E5A"/>
<path d="M26.2039 29.7107C28.0223 29.7107 28.7385 28.5826 28.9093 28.2518C28.9674 28.1495 29.0009 28.0317 29.0009 27.9058C29.0009 27.5175 28.6856 27.2026 28.2967 27.2026C28.0089 27.2026 27.7619 27.3751 27.6527 27.622C27.3272 28.298 26.2499 28.3059 26.204 28.3059C26.1581 28.3059 25.0795 28.2979 24.7549 27.6207C24.6452 27.3745 24.3987 27.2025 24.1114 27.2025C23.7224 27.2025 23.4072 27.5173 23.4072 27.9057C23.4072 28.0319 23.4409 28.1499 23.4991 28.2523C23.6703 28.5839 24.3866 29.7107 26.2039 29.7107Z" fill="#023E5A"/>
<path d="M22.6195 23.1185C22.231 23.1185 21.9161 23.4329 21.9161 23.8209V25.3974C21.9161 25.7853 22.231 26.0997 22.6195 26.0997C23.0081 26.0997 23.3229 25.7853 23.3229 25.3974V23.8209C23.3229 23.4329 23.008 23.1185 22.6195 23.1185Z" fill="#023E5A"/>
<path d="M29.4448 26.0996C29.8333 26.0996 30.1482 25.7852 30.1482 25.3972V23.8208C30.1482 23.4328 29.8332 23.1184 29.4448 23.1184C29.0564 23.1184 28.7414 23.4328 28.7414 23.8208V25.3972C28.7414 25.7852 29.0564 26.0996 29.4448 26.0996Z" fill="#023E5A"/>
</svg>
