<svg width="61" height="61" viewBox="0 0 61 61" fill="none" xmlns="http://www.w3.org/2000/svg">
<circle cx="30.5" cy="30.5" r="30" stroke="#005176"/>
<g clip-path="url(#clip0)">
<path d="M46.0645 30.7362H43.1222V22.786C43.1222 21.7282 42.2616 20.8676 41.2038 20.8676H36.7761V18.9616C36.7761 17.936 35.9417 17.1017 34.9162 17.1017H14.8599C13.8344 17.1017 13 17.936 13 18.9616V19.7817C13 20.0649 13.2296 20.2944 13.5127 20.2944C13.7958 20.2944 14.0254 20.0649 14.0254 19.7817V18.9616C14.0254 18.5015 14.3998 18.1271 14.8599 18.1271H34.9161C35.3762 18.1271 35.7506 18.5015 35.7506 18.9616V35.109H14.0254V22.1856C14.0254 21.9024 13.7958 21.6729 13.5127 21.6729C13.2296 21.6729 13 21.9024 13 22.1856V39.5646C13 40.5902 13.8344 41.4245 14.8599 41.4245H16.0382C16.2959 42.83 17.5298 43.8984 19.0087 43.8984C20.4875 43.8984 21.7214 42.83 21.9791 41.4245H30.1349C30.418 41.4245 30.6476 41.195 30.6476 40.9118C30.6476 40.6286 30.418 40.3991 30.1349 40.3991H21.9906C21.7603 38.9608 20.5108 37.8584 19.0086 37.8584C17.5064 37.8584 16.257 38.9609 16.0267 40.3992H14.8599C14.3998 40.3992 14.0254 40.0248 14.0254 39.5646V36.1344H35.7506V40.3992H32.4865C32.2034 40.3992 31.9738 40.6287 31.9738 40.9119C31.9738 41.1951 32.2034 41.4246 32.4865 41.4246H39.1356C39.3933 42.83 40.6272 43.8984 42.106 43.8984C43.5847 43.8984 44.8187 42.83 45.0765 41.4246H46.0815C47.1394 41.4246 47.9999 40.5639 47.9999 39.5061V32.6717C48 31.6044 47.1318 30.7362 46.0645 30.7362ZM19.0086 38.8839C20.1084 38.8839 21.0032 39.7786 21.0032 40.8784C21.0032 41.9783 20.1084 42.8731 19.0086 42.8731C17.9088 42.8731 17.014 41.9783 17.014 40.8784C17.014 39.7786 17.9088 38.8839 19.0086 38.8839ZM42.1061 42.873C41.0062 42.873 40.1115 41.9782 40.1115 40.8784C40.1115 39.7785 41.0062 38.8838 42.1061 38.8838C43.2059 38.8838 44.1006 39.7785 44.1006 40.8784C44.1006 41.9782 43.2059 42.873 42.1061 42.873ZM46.9746 35.4515H45.6102C45.3276 35.4515 45.0975 35.2215 45.0975 34.9388C45.0975 34.656 45.3275 34.4261 45.6102 34.4261H46.9746V35.4515ZM46.9746 33.4007H45.6102C44.7622 33.4007 44.0721 34.0907 44.0721 34.9388C44.0721 35.7868 44.7621 36.4769 45.6102 36.4769H46.9746V39.5061C46.9746 39.9985 46.574 40.3991 46.0816 40.3991H45.088C44.8577 38.9608 43.6083 37.8584 42.1061 37.8584C40.6039 37.8584 39.3545 38.9608 39.1241 40.3991H36.776V21.893H41.2037C41.6962 21.893 42.0968 22.2936 42.0968 22.786V22.9055H38.6642C38.3811 22.9055 38.1515 23.1349 38.1515 23.4182V31.2489C38.1515 31.5321 38.3811 31.7616 38.6642 31.7616H46.0645C46.5663 31.7616 46.9745 32.1699 46.9745 32.6716V33.4007H46.9746ZM42.0968 23.9309V30.7362H39.177V23.9309H42.0968Z" fill="#023E5A"/>
<path d="M39.8497 33.4006H38.6643C38.3812 33.4006 38.1516 33.6301 38.1516 33.9133C38.1516 34.1965 38.3812 34.426 38.6643 34.426H39.8497C40.1328 34.426 40.3624 34.1965 40.3624 33.9133C40.3624 33.6301 40.1328 33.4006 39.8497 33.4006Z" fill="#023E5A"/>
<path d="M27.8952 25.4717C28.1783 25.4717 28.4079 25.2422 28.4079 24.959C28.4079 24.6758 28.1783 24.4463 27.8952 24.4463H25.8456C25.5625 24.4463 25.3329 24.6758 25.3329 24.959V29.0594C25.3329 29.3426 25.5625 29.5721 25.8456 29.5721H27.8952C28.1783 29.5721 28.4079 29.3426 28.4079 29.0594C28.4079 28.7762 28.1783 28.5467 27.8952 28.5467H26.3583V27.5219H27.8952C28.1783 27.5219 28.4079 27.2924 28.4079 27.0092C28.4079 26.726 28.1783 26.4965 27.8952 26.4965H26.3583V25.4717H27.8952Z" fill="#023E5A"/>
<path d="M31.9271 25.4717C32.2103 25.4717 32.4398 25.2422 32.4398 24.959C32.4398 24.6758 32.2103 24.4463 31.9271 24.4463H29.8776C29.5944 24.4463 29.3649 24.6758 29.3649 24.959V29.0594C29.3649 29.3426 29.5944 29.5721 29.8776 29.5721H31.9271C32.2103 29.5721 32.4398 29.3426 32.4398 29.0594C32.4398 28.7762 32.2103 28.5467 31.9271 28.5467H30.3903V27.5219H31.9271C32.2103 27.5219 32.4398 27.2924 32.4398 27.0092C32.4398 26.726 32.2103 26.4965 31.9271 26.4965H30.3903V25.4717H31.9271Z" fill="#023E5A"/>
<path d="M19.8983 25.4717C20.1815 25.4717 20.411 25.2422 20.411 24.959C20.411 24.6758 20.1815 24.4463 19.8983 24.4463H17.8488C17.5656 24.4463 17.3361 24.6758 17.3361 24.959V29.0594C17.3361 29.3426 17.5656 29.5721 17.8488 29.5721C18.1319 29.5721 18.3615 29.3426 18.3615 29.0594V27.5219H19.8983C20.1815 27.5219 20.411 27.2924 20.411 27.0092C20.411 26.726 20.1815 26.4965 19.8983 26.4965H18.3615V25.4717H19.8983Z" fill="#023E5A"/>
<path d="M24.3758 27.0093V24.9591C24.3758 24.6759 24.1463 24.4464 23.8632 24.4464H21.8136C21.5305 24.4464 21.3009 24.6759 21.3009 24.9591V29.0595C21.3009 29.3427 21.5305 29.5722 21.8136 29.5722C22.0967 29.5722 22.3263 29.3427 22.3263 29.0595V27.679L23.4366 29.3439C23.5354 29.4922 23.6979 29.5723 23.8636 29.5723C23.9614 29.5723 24.0602 29.5444 24.1476 29.4861C24.3832 29.3289 24.4468 29.0106 24.2897 28.7751L23.4541 27.522H23.8632C24.1463 27.522 24.3758 27.2925 24.3758 27.0093ZM23.3505 26.4966H22.3263V25.4718H23.3505V26.4966Z" fill="#023E5A"/>
</g>
<defs>
<clipPath id="clip0">
<rect width="35" height="35" fill="white" transform="translate(13 13)"/>
</clipPath>
</defs>
</svg>
