<svg width="86" height="24" viewBox="0 0 86 24" fill="none" xmlns="http://www.w3.org/2000/svg">
<path d="M20 5H18V13H7.83L10.41 10.41L9 9L4 14L9 19L10.41 17.59L7.83 15H20V5Z" fill="#909090"/>
<path d="M35.494 5.12H37.402V9.854H43.378V5.12H45.286V17H43.378V11.564H37.402V17H35.494V5.12ZM51.479 7.964C52.571 7.964 53.447 8.282 54.107 8.918C54.767 9.554 55.097 10.466 55.097 11.654V17H53.333V16.01C53.009 16.394 52.607 16.688 52.127 16.892C51.647 17.096 51.107 17.198 50.507 17.198C49.583 17.198 48.839 16.964 48.275 16.496C47.711 16.028 47.429 15.41 47.429 14.642C47.429 13.874 47.723 13.262 48.311 12.806C48.899 12.35 49.691 12.122 50.687 12.122H53.189V11.546C53.189 10.934 53.021 10.466 52.685 10.142C52.361 9.818 51.899 9.656 51.299 9.656C50.807 9.656 50.369 9.764 49.985 9.98C49.601 10.196 49.223 10.526 48.851 10.97L47.753 9.854C48.197 9.218 48.737 8.744 49.373 8.432C50.009 8.12 50.711 7.964 51.479 7.964ZM50.903 15.74C51.539 15.74 52.079 15.542 52.523 15.146C52.967 14.75 53.189 14.252 53.189 13.652V13.49H50.921C50.417 13.49 50.027 13.58 49.751 13.76C49.487 13.94 49.355 14.21 49.355 14.57C49.355 14.942 49.499 15.23 49.787 15.434C50.075 15.638 50.447 15.74 50.903 15.74ZM62.7674 12.338C63.2114 12.554 63.5474 12.848 63.7754 13.22C64.0154 13.58 64.1354 13.982 64.1354 14.426C64.1354 15.302 63.8234 15.986 63.1994 16.478C62.5874 16.958 61.7414 17.198 60.6614 17.198C59.1134 17.198 57.9134 16.64 57.0614 15.524L58.2134 14.39C58.5014 14.738 58.8314 15.014 59.2034 15.218C59.5874 15.422 60.0434 15.524 60.5714 15.524C61.1114 15.524 61.5254 15.416 61.8134 15.2C62.1134 14.972 62.2634 14.672 62.2634 14.3C62.2634 13.952 62.1254 13.676 61.8494 13.472C61.5734 13.256 61.1774 13.148 60.6614 13.148H59.6354V11.636H60.6074C61.0154 11.636 61.3274 11.546 61.5434 11.366C61.7594 11.186 61.8674 10.94 61.8674 10.628C61.8674 10.328 61.7474 10.088 61.5074 9.908C61.2794 9.728 60.9554 9.638 60.5354 9.638C60.0434 9.638 59.6294 9.728 59.2934 9.908C58.9574 10.076 58.6514 10.316 58.3754 10.628L57.2234 9.494C57.5954 9.026 58.0694 8.654 58.6454 8.378C59.2334 8.102 59.8934 7.964 60.6254 7.964C61.5854 7.964 62.3414 8.186 62.8934 8.63C63.4454 9.062 63.7214 9.674 63.7214 10.466C63.7214 10.862 63.6374 11.222 63.4694 11.546C63.3134 11.858 63.0794 12.122 62.7674 12.338ZM69.7427 7.964C70.8347 7.964 71.7107 8.282 72.3707 8.918C73.0307 9.554 73.3607 10.466 73.3607 11.654V17H71.5967V16.01C71.2727 16.394 70.8707 16.688 70.3907 16.892C69.9107 17.096 69.3707 17.198 68.7707 17.198C67.8467 17.198 67.1027 16.964 66.5387 16.496C65.9747 16.028 65.6927 15.41 65.6927 14.642C65.6927 13.874 65.9867 13.262 66.5747 12.806C67.1627 12.35 67.9547 12.122 68.9507 12.122H71.4527V11.546C71.4527 10.934 71.2847 10.466 70.9487 10.142C70.6247 9.818 70.1627 9.656 69.5627 9.656C69.0707 9.656 68.6327 9.764 68.2487 9.98C67.8647 10.196 67.4867 10.526 67.1147 10.97L66.0167 9.854C66.4607 9.218 67.0007 8.744 67.6367 8.432C68.2727 8.12 68.9747 7.964 69.7427 7.964ZM69.1667 15.74C69.8027 15.74 70.3427 15.542 70.7867 15.146C71.2307 14.75 71.4527 14.252 71.4527 13.652V13.49H69.1847C68.6807 13.49 68.2907 13.58 68.0147 13.76C67.7507 13.94 67.6187 14.21 67.6187 14.57C67.6187 14.942 67.7627 15.23 68.0507 15.434C68.3387 15.638 68.7107 15.74 69.1667 15.74ZM84.919 15.362V19.538H83.083V17H76.585V19.538H74.731V15.362H75.721C76.093 14.966 76.363 14.384 76.531 13.616C76.699 12.836 76.801 11.804 76.837 10.52L76.909 8.162H83.461V15.362H84.919ZM77.683 15.362H81.571V9.8H78.619L78.601 10.7C78.553 12.836 78.247 14.39 77.683 15.362Z" fill="#909090"/>
</svg>
