<svg width="37" height="30" viewBox="0 0 37 30" fill="none" xmlns="http://www.w3.org/2000/svg">
<path d="M26.8516 20.4217H9.52562L10.3956 18.6498L24.8499 18.6236C25.3387 18.6236 25.7576 18.2745 25.8449 17.7915L27.8466 6.58707C27.899 6.29322 27.8204 5.99063 27.6284 5.76078C27.5335 5.64766 27.4151 5.55654 27.2815 5.49374C27.1479 5.43094 27.0022 5.39796 26.8545 5.3971L8.46657 5.336L8.30946 4.59699C8.21054 4.12565 7.78575 3.78233 7.30278 3.78233H2.80763C2.53524 3.78233 2.274 3.89054 2.08139 4.08315C1.88879 4.27576 1.78058 4.53699 1.78058 4.80938C1.78058 5.08177 1.88879 5.343 2.08139 5.53561C2.274 5.72822 2.53524 5.83643 2.80763 5.83643H6.47066L7.1573 9.10087L8.84771 17.2852L6.67142 20.8377C6.5584 20.9903 6.49033 21.1714 6.4749 21.3606C6.45948 21.5498 6.49732 21.7396 6.58414 21.9084C6.7587 22.2546 7.11075 22.4729 7.50062 22.4729H9.32778C8.93825 22.9902 8.72785 23.6204 8.72842 24.268C8.72842 25.9148 10.0668 27.2531 11.7136 27.2531C13.3603 27.2531 14.6987 25.9148 14.6987 24.268C14.6987 23.6192 14.4834 22.9878 14.0993 22.4729H18.7865C18.397 22.9902 18.1866 23.6204 18.1872 24.268C18.1872 25.9148 19.5255 27.2531 21.1723 27.2531C22.819 27.2531 24.1574 25.9148 24.1574 24.268C24.1574 23.6192 23.9421 22.9878 23.5581 22.4729H26.8545C27.4189 22.4729 27.8815 22.0132 27.8815 21.4458C27.8799 21.1737 27.7706 20.9133 27.5777 20.7214C27.3847 20.5296 27.1237 20.4218 26.8516 20.4217ZM8.89426 7.361L25.6471 7.41628L24.0061 16.6044L10.8465 16.6277L8.89426 7.361ZM11.7136 25.1874C11.2073 25.1874 10.7942 24.7743 10.7942 24.268C10.7942 23.7618 11.2073 23.3486 11.7136 23.3486C12.2198 23.3486 12.6329 23.7618 12.6329 24.268C12.6329 24.5118 12.5361 24.7457 12.3637 24.9181C12.1912 25.0905 11.9574 25.1874 11.7136 25.1874ZM21.1723 25.1874C20.666 25.1874 20.2529 24.7743 20.2529 24.268C20.2529 23.7618 20.666 23.3486 21.1723 23.3486C21.6785 23.3486 22.0917 23.7618 22.0917 24.268C22.0917 24.5118 21.9948 24.7457 21.8224 24.9181C21.65 25.0905 21.4161 25.1874 21.1723 25.1874Z" fill="#fff"/>
<ellipse cx="28.069" cy="18.4888" rx="8.06897" ry="7.46379" fill="#F9C801"/>
</svg>
