<svg width="24" height="24" viewBox="0 0 24 24" fill="none" xmlns="http://www.w3.org/2000/svg">
<path d="M8.79755 6.6136H21.3063L14.4733 11.9795C14.3285 12.0931 14.1562 12.1485 13.9999 12.1637C13.8426 12.1483 13.6698 12.0928 13.5234 11.9795L8.64021 8.14346C8.58848 8.10186 8.53008 8.07013 8.46581 8.0504C8.69568 7.72613 8.82688 7.33386 8.81995 6.9112C8.81861 6.81439 8.81008 6.71466 8.79755 6.6136ZM5.61648 3.16266C5.63221 3.16533 5.65808 3.17519 5.71435 3.20133C5.82555 3.25413 6.00235 3.39013 6.17541 3.57973C6.52395 3.95946 6.87221 4.53466 7.05301 4.9144C7.05861 4.9256 7.06448 4.93786 7.06981 4.95039C7.58288 5.83066 7.80421 6.504 7.81088 6.9264C7.81808 7.35066 7.70421 7.53333 7.34448 7.74L6.41648 8.27493C5.81195 8.62293 5.52635 9.24666 5.45541 9.82853C5.38421 10.4107 5.48901 10.9763 5.74795 11.4235L8.03861 15.3715C8.29808 15.8184 8.74101 16.1923 9.28261 16.4219C9.82475 16.652 10.5103 16.7171 11.1149 16.3699L12.0429 15.836C12.4023 15.6299 12.6197 15.6256 12.9847 15.8427C13.3509 16.0603 13.8263 16.5859 14.3373 17.4667C14.3445 17.4797 14.3514 17.4907 14.3597 17.5032C14.5991 17.8485 14.9253 18.4344 15.0826 18.9251C15.1607 19.1688 15.1914 19.3891 15.1815 19.5109C15.1706 19.6333 15.1679 19.6208 15.1357 19.64L14.4295 20.0448C12.6557 20.8141 11.0298 20.6405 9.57675 19.8869C8.12101 19.1301 6.85568 17.7635 5.97355 16.1589C5.97061 16.1557 5.96928 16.1517 5.96688 16.1496L4.03461 12.8195C4.03141 12.8163 4.03008 12.8133 4.02741 12.8091C3.07141 11.2464 2.51434 9.47226 2.58421 7.83999C2.65408 6.21013 3.31541 4.72426 4.87328 3.58106L5.57968 3.17759C5.59594 3.16826 5.60128 3.16106 5.61648 3.16266ZM5.62368 2.17039C5.43675 2.16746 5.24608 2.20666 5.07461 2.30613L4.32768 2.73573C4.31088 2.74533 4.29541 2.75519 4.28021 2.76479C2.48315 4.07999 1.65568 5.91093 1.57488 7.79813C1.49408 9.68453 2.12394 11.6315 3.16448 13.3336L5.09035 16.6523L5.08581 16.6424C6.04715 18.3893 7.42475 19.9048 9.10821 20.7779C10.7925 21.6523 12.7989 21.8549 14.8426 20.9637C14.8594 20.9565 14.8765 20.9485 14.8917 20.9392L15.6397 20.5096C15.9855 20.3128 16.1594 19.9299 16.1877 19.5955C16.2167 19.2621 16.1487 18.9376 16.0455 18.6179C15.8434 17.9856 15.4909 17.3715 15.1997 16.9501C14.6495 16.0037 14.1183 15.3469 13.5045 14.9797C12.8858 14.6109 12.1431 14.6163 11.5373 14.9645L10.6093 15.4995C10.3351 15.6573 10.0146 15.6389 9.67728 15.4963C9.34155 15.3536 9.03061 15.0683 8.91515 14.8683L6.62448 10.9205C6.50875 10.7195 6.41408 10.3093 6.45888 9.94773C6.50208 9.5872 6.64848 9.3048 6.92288 9.14666L7.82448 8.62826C7.84795 8.74906 7.91621 8.85866 8.01515 8.93226L12.8986 12.7691C13.2162 13.0187 13.5925 13.1576 13.9714 13.1795C13.9906 13.1805 14.0103 13.1805 14.0298 13.1795C14.409 13.1576 14.7834 13.0184 15.1013 12.7691L21.8271 7.48533V16.2144C21.8271 16.3472 21.6757 16.5221 21.3786 16.5221H16.7223C16.4421 16.5205 16.2151 16.7467 16.2151 17.0253C16.2151 17.3035 16.4423 17.5296 16.7223 17.528H21.3786C22.1397 17.528 22.8391 16.9779 22.8391 16.2144V6.92133C22.8391 6.15733 22.1397 5.60746 21.3786 5.60746H8.52048C8.37808 5.25146 8.19008 4.87413 7.95328 4.46399C7.73168 4.00266 7.37221 3.39279 6.92235 2.90239C6.69515 2.65386 6.45008 2.43359 6.14368 2.29119V2.29253C5.99141 2.22053 5.81035 2.17439 5.62368 2.17039Z" fill="#000"/>
</svg>
