<svg width="24" height="24" viewBox="0 0 24 24" fill="none" xmlns="http://www.w3.org/2000/svg">

<path d="M18.677 23.994C17.703 23.994 16.575 23.686 15.279 23.071C13.833 22.385 13.136 22.409 12.675 22.431C12.304 22.442 11.917 22.46 11.535 22.078C11.401 21.944 10.792 21.214 11.989 20.017C12.586 19.42 13.405 19.248 14.116 19.238L9.97 15.092C9.695 14.818 9.543 14.451 9.544 14.062C9.545 13.673 9.697 13.308 9.973 13.033C10.249 12.758 10.614 12.605 11.003 12.604H11.005C11.393 12.604 11.758 12.755 12.033 13.031L13.755 14.754C13.824 14.616 13.916 14.489 14.028 14.378C14.423 13.982 14.989 13.86 15.49 14.016C15.56 13.818 15.675 13.631 15.833 13.473C16.376 12.929 17.244 12.905 17.814 13.398C17.882 13.26 17.974 13.132 18.088 13.018C18.657 12.449 19.58 12.448 20.148 13.015L22.848 15.715C24.543 17.409 24.354 19.865 22.387 21.833C22.383 21.837 22.379 21.841 22.374 21.846L21.257 22.962C20.561 23.65 19.705 23.994 18.677 23.994ZM12.946 21.425C13.492 21.425 14.331 21.515 15.708 22.167C18.693 23.584 19.903 22.896 20.555 22.253L21.681 21.127C21.684 21.123 21.688 21.12 21.691 21.117C22.883 19.911 23.7 17.98 22.15 16.43L19.442 13.722C19.265 13.545 18.975 13.547 18.796 13.725C18.618 13.903 18.616 14.192 18.792 14.37L18.793 14.371L19.468 15.046C19.566 15.144 19.614 15.272 19.614 15.4C19.614 15.528 19.565 15.656 19.468 15.754C19.273 15.949 18.956 15.949 18.761 15.754L17.186 14.179C17.009 14.002 16.719 14.003 16.54 14.182C16.361 14.361 16.36 14.65 16.538 14.828L17.663 15.953C17.761 16.051 17.809 16.179 17.809 16.307C17.809 16.435 17.76 16.563 17.663 16.661C17.468 16.856 17.151 16.856 16.956 16.661L15.381 15.086C15.204 14.909 14.915 14.911 14.735 15.089C14.648 15.176 14.6 15.292 14.6 15.414C14.6 15.535 14.647 15.649 14.732 15.734L15.857 16.859C15.955 16.957 16.003 17.085 16.003 17.213C16.003 17.341 15.954 17.469 15.857 17.567C15.662 17.762 15.345 17.762 15.15 17.567L11.325 13.743C11.239 13.657 11.125 13.609 11.004 13.609C10.882 13.61 10.767 13.658 10.68 13.745C10.593 13.832 10.545 13.947 10.544 14.069C10.544 14.19 10.591 14.304 10.677 14.39L15.852 19.565C16.014 19.726 16.045 19.977 15.928 20.173C15.811 20.369 15.574 20.461 15.357 20.398C15.338 20.393 13.547 19.879 12.695 20.729C12.308 21.117 12.251 21.355 12.261 21.408C12.303 21.437 12.313 21.448 12.635 21.435C12.728 21.429 12.831 21.425 12.946 21.425ZM18.444 13.372H18.454H18.444Z" fill="#000"/>
<path d="M18.5 8.00002H3.49999C1.56999 8.00002 -7.62939e-06 6.43002 -7.62939e-06 4.50002C-7.62939e-06 2.57002 1.56999 1.00002 3.49999 1.00002H18.5C20.43 1.00002 22 2.57002 22 4.50002C22 6.43002 20.43 8.00002 18.5 8.00002ZM3.49999 2.00002C2.12199 2.00002 0.999992 3.12102 0.999992 4.50002C0.999992 5.87902 2.12199 7.00002 3.49999 7.00002H18.5C19.878 7.00002 21 5.87902 21 4.50002C21 3.12102 19.878 2.00002 18.5 2.00002H3.49999Z" fill="#000"/>
<path d="M4.49999 5.99999C3.67299 5.99999 2.99999 5.32699 2.99999 4.49999C2.99999 3.67299 3.67299 2.99999 4.49999 2.99999C5.32699 2.99999 5.99999 3.67299 5.99999 4.49999C5.99999 5.32699 5.32699 5.99999 4.49999 5.99999ZM4.49999 3.99999C4.22399 3.99999 3.99999 4.22499 3.99999 4.49999C3.99999 4.77499 4.22399 4.99999 4.49999 4.99999C4.77599 4.99999 4.99999 4.77499 4.99999 4.49999C4.99999 4.22499 4.77599 3.99999 4.49999 3.99999Z" fill="#000"/>
<path d="M9.49991 5.99999C8.67291 5.99999 7.99991 5.32699 7.99991 4.49999C7.99991 3.67299 8.67291 2.99999 9.49991 2.99999C10.3269 2.99999 10.9999 3.67299 10.9999 4.49999C10.9999 5.32699 10.3269 5.99999 9.49991 5.99999ZM9.49991 3.99999C9.22391 3.99999 8.99991 4.22499 8.99991 4.49999C8.99991 4.77499 9.22391 4.99999 9.49991 4.99999C9.77591 4.99999 9.99991 4.77499 9.99991 4.49999C9.99991 4.22499 9.77591 3.99999 9.49991 3.99999Z" fill="#000"/>
<path d="M7.49999 14H3.49999C1.56999 14 -7.62939e-06 12.43 -7.62939e-06 10.5C-7.62939e-06 9.56599 0.363992 8.688 1.02599 8.026C1.68799 7.364 2.56699 7 3.49999 7H18.5C20.43 7 22 8.57 22 10.5C22 10.776 21.776 11 21.5 11C21.224 11 21 10.776 21 10.5C21 9.121 19.878 8 18.5 8H3.49999C2.83399 8 2.20699 8.261 1.73299 8.733C1.25899 9.205 0.999992 9.83399 0.999992 10.5C0.999992 11.879 2.12199 13 3.49999 13H7.49999C7.77599 13 7.99999 13.224 7.99999 13.5C7.99999 13.776 7.77599 14 7.49999 14Z" fill="#000"/>
<path d="M4.49999 12C3.67299 12 2.99999 11.327 2.99999 10.5C2.99999 9.673 3.67299 9 4.49999 9C5.32699 9 5.99999 9.673 5.99999 10.5C5.99999 11.327 5.32699 12 4.49999 12ZM4.49999 10C4.22399 10 3.99999 10.225 3.99999 10.5C3.99999 10.775 4.22399 11 4.49999 11C4.77599 11 4.99999 10.775 4.99999 10.5C4.99999 10.225 4.77599 10 4.49999 10Z" fill="#000"/>
<path d="M9.49991 12C8.67291 12 7.99991 11.327 7.99991 10.5C7.99991 9.673 8.67291 9 9.49991 9C10.3269 9 10.9999 9.673 10.9999 10.5C10.9999 11.327 10.3269 12 9.49991 12ZM9.49991 10C9.22391 10 8.99991 10.225 8.99991 10.5C8.99991 10.775 9.22391 11 9.49991 11C9.77591 11 9.99991 10.775 9.99991 10.5C9.99991 10.225 9.77591 10 9.49991 10Z" fill="#000"/>
<path d="M9.49999 20H3.49999C1.56999 20 -7.62939e-06 18.43 -7.62939e-06 16.5C-7.62939e-06 15.566 0.363992 14.688 1.02599 14.026C1.68799 13.364 2.56699 13 3.49999 13H7.49999C7.77599 13 7.99999 13.224 7.99999 13.5C7.99999 13.776 7.77599 14 7.49999 14H3.49999C2.83399 14 2.20699 14.261 1.73299 14.733C1.25899 15.205 0.999992 15.834 0.999992 16.5C0.999992 17.879 2.12199 19 3.49999 19H9.49999C9.77599 19 9.99999 19.224 9.99999 19.5C9.99999 19.776 9.77599 20 9.49999 20Z" fill="#000"/>
<path d="M4.49999 18C3.67299 18 2.99999 17.327 2.99999 16.5C2.99999 15.673 3.67299 15 4.49999 15C5.32699 15 5.99999 15.673 5.99999 16.5C5.99999 17.327 5.32699 18 4.49999 18ZM4.49999 16C4.22399 16 3.99999 16.225 3.99999 16.5C3.99999 16.775 4.22399 17 4.49999 17C4.77599 17 4.99999 16.775 4.99999 16.5C4.99999 16.225 4.77599 16 4.49999 16Z" fill="#000"/>

</svg>
