<svg width="220" height="34" viewBox="0 0 220 34" fill="none" xmlns="http://www.w3.org/2000/svg">
<g opacity="0.95">
<path d="M105.985 29.9968C105.461 29.9968 104.907 29.8806 104.529 29.5902C104.296 29.387 103.975 28.9804 103.975 28.3126V14.4614H106.917V26.8316C106.917 27.0058 106.888 27.2962 107.121 27.4995C107.208 27.5576 107.383 27.6737 107.849 27.6737H116.412V29.9968C116.412 29.9968 105.985 29.9968 105.985 29.9968Z" fill="white"/>
<path d="M121.188 16.0255C121.741 14.7188 122.353 14.2832 123.751 14.2832C125.091 14.2832 125.761 14.7188 126.314 16.0255L132.197 29.9928H129.11L127.508 26.0726H119.994L118.421 29.9928H115.334L121.188 16.0255ZM120.751 23.9819H126.751L124.217 17.6516C124.13 17.4193 123.984 17.0128 123.78 17.0128C123.576 17.0128 123.431 17.4483 123.343 17.6516L120.751 23.9819Z" fill="white"/>
<path d="M142.681 14.4614C143.525 14.4614 144.69 14.5485 145.506 15.3906C146.38 16.2908 146.496 17.7137 146.496 18.73C146.496 19.5721 146.438 20.4433 145.768 21.2563C145.331 21.779 144.865 22.0113 144.312 22.0694V22.1565C145.04 22.2146 145.652 22.563 146.03 22.9696C146.758 23.7826 146.758 24.8861 146.758 25.7572C146.758 26.7735 146.758 28.0222 145.855 29.0095C144.953 29.9968 143.962 29.9968 143.001 29.9968H135.545C134.759 29.9968 134.06 30.0839 133.419 29.387C133.274 29.2127 132.895 28.6901 132.895 27.8189V16.6974C132.895 16.1166 133.041 15.5068 133.39 15.1003C133.856 14.5485 134.555 14.4614 135.05 14.4614H142.681ZM135.807 20.9659H141.516C142.098 20.9659 142.71 20.9659 143.118 20.4142C143.234 20.269 143.438 19.8915 143.438 18.8462C143.438 18.4106 143.409 17.6556 142.914 17.191C142.477 16.7845 141.953 16.7845 141.458 16.7845H136.652C136.419 16.7845 136.157 16.7554 135.982 16.9587C135.807 17.162 135.778 17.4814 135.778 17.6556L135.807 20.9659ZM135.807 26.5122C135.807 27.0349 135.866 27.2962 135.982 27.4124C136.215 27.6737 136.71 27.6447 136.943 27.6447H141.574C142.04 27.6447 142.856 27.6156 143.292 27.093C143.613 26.6864 143.7 26.0186 143.7 25.5249C143.7 25.0893 143.642 24.3634 143.38 23.9569C143.205 23.7246 142.768 23.318 141.807 23.318H135.836L135.807 26.5122Z" fill="white"/>
<path d="M148.476 27.6737H157.126C158.524 27.6737 158.582 26.5122 158.582 25.9895C158.582 25.3797 158.436 24.6538 157.067 24.2472L150.922 22.3017C150.689 22.2436 149.699 21.8952 149.087 21.1402C148.388 20.2981 148.272 19.0785 148.272 18.2073C148.272 17.2781 148.388 16.1456 149.262 15.3326C150.078 14.5776 151.068 14.4614 151.825 14.4614H160.795V16.7845H152.844C152.437 16.7845 151.971 16.8135 151.621 17.1329C151.243 17.4814 151.213 18.0331 151.213 18.3235C151.213 19.0204 151.417 19.6883 152.67 20.0658L158.378 21.8661C159.427 22.1855 160.126 22.534 160.592 22.9696C161.524 23.8697 161.611 25.2345 161.611 25.9605C161.611 26.9478 161.465 28.0222 160.825 28.8352C160.038 29.8225 159.077 29.9387 158.029 29.9387H148.476V27.6737Z" fill="white"/>
<path d="M167.495 16.0245C168.049 14.7178 168.66 14.2822 170.058 14.2822C171.398 14.2822 172.068 14.7178 172.621 16.0245L178.504 29.9918H175.417L173.815 26.0717H166.301L164.728 29.9918H161.641L167.495 16.0245ZM167.058 23.9809H173.058L170.524 17.6506C170.437 17.4183 170.291 17.0118 170.087 17.0118C169.883 17.0118 169.738 17.4474 169.65 17.6506L167.058 23.9809Z" fill="white"/>
<path d="M181.184 29.9968C180.659 29.9968 180.106 29.8806 179.727 29.5902C179.494 29.387 179.174 28.9804 179.174 28.3126V14.4614H182.116V26.8316C182.116 27.0058 182.087 27.2962 182.32 27.4995C182.407 27.5576 182.582 27.6737 183.048 27.6737H191.61V29.9968H181.184Z" fill="white"/>
<path d="M194.872 29.9965C194.202 29.9965 193.59 29.9965 193.095 29.5029C192.571 28.9802 192.513 28.2833 192.513 27.6735V16.6681C192.513 16.0583 192.717 15.4194 193.037 15.0419C193.561 14.4902 194.319 14.4321 194.901 14.4321H204.891V16.7552H196.474C196.212 16.7552 195.891 16.7842 195.658 16.9875C195.425 17.2198 195.425 17.5102 195.425 17.7425V20.8786H204.687V23.2016H195.454V26.8314C195.454 27.0637 195.542 27.325 195.687 27.4412C195.862 27.6154 196.212 27.6444 196.678 27.6444H205.007V29.9675H194.872V29.9965Z" fill="white"/>
<path d="M206.552 27.6737H215.173C216.571 27.6737 216.629 26.5122 216.629 25.9895C216.629 25.3797 216.483 24.6538 215.115 24.2472L208.969 22.3017C208.736 22.2436 207.746 21.8952 207.134 21.1402C206.435 20.2981 206.319 19.0785 206.319 18.2073C206.319 17.2781 206.435 16.1456 207.309 15.3326C208.125 14.5776 209.115 14.4614 209.872 14.4614H218.843V16.7845H210.862C210.455 16.7845 209.989 16.8135 209.639 17.1329C209.261 17.4814 209.231 18.0331 209.231 18.3235C209.231 19.0204 209.435 19.6883 210.688 20.0658L216.396 21.8661C217.445 22.1855 218.144 22.534 218.61 22.9696C219.542 23.8697 219.629 25.2345 219.629 25.9605C219.629 26.9478 219.483 28.0222 218.843 28.8352C218.056 29.8225 217.095 29.9387 216.047 29.9387H206.465V27.6737C206.465 27.6737 206.552 27.6737 206.552 27.6737Z" fill="white"/>
<path d="M97.9176 13.4736L92.7917 1.16152C92.6169 0.754988 92.4713 0.464608 92.2966 0.319418C92.0927 0.116152 91.8014 0 91.452 0C91.1025 0 90.8112 0.116152 90.6073 0.319418C90.4326 0.464608 90.287 0.754988 90.1122 1.16152L84.9863 13.5027V27.7313C84.9863 28.4863 85.132 29.009 85.4523 29.3574C85.7727 29.7059 86.2387 29.8511 86.8503 29.8511H96.0827C96.6944 29.8511 97.1603 29.6768 97.4807 29.3574C97.8011 29.009 97.9467 28.4863 97.9467 27.7313L97.9176 13.4736ZM96.6652 13.4736V15.6805C96.4614 15.5644 96.2284 15.4773 95.9662 15.4482C95.5294 15.3901 95.1216 15.5063 94.8013 15.7386L92.4131 13.2413C92.5004 13.0671 92.5587 12.8929 92.5878 12.7186C92.7043 11.7894 92.0636 10.9473 91.1316 10.8312C90.1996 10.715 89.355 11.3539 89.2385 12.2831C89.1802 12.8348 89.3841 13.3575 89.7627 13.735L88.6851 15.9709C88.6269 15.9709 88.5686 15.9419 88.5104 15.9419C88.2483 15.9128 87.957 15.9419 87.724 16.029L86.3552 13.2123L91.0442 1.39382C91.1607 1.10344 91.3063 0.958254 91.452 0.958254C91.5976 0.958254 91.7141 1.10344 91.8597 1.39382L96.6652 13.4736Z" fill="white"/>
<path d="M96.6654 18.5277V27.8198C96.6654 28.1683 96.6071 28.4006 96.4906 28.5168C96.3741 28.6329 96.1411 28.691 95.8208 28.691H87.0834C86.763 28.691 86.53 28.6329 86.4135 28.5168C86.297 28.4006 86.2388 28.1683 86.2388 27.8198V14.927L86.996 16.495C86.7921 16.7273 86.6756 17.0177 86.6174 17.3662C86.5009 18.2954 87.1416 19.1375 88.0736 19.2536C89.0056 19.3698 89.8502 18.731 89.9667 17.8017C90.025 17.25 89.8211 16.7273 89.4716 16.3789L90.5492 14.1429C90.6075 14.1429 90.6657 14.172 90.724 14.172C91.1317 14.2301 91.5395 14.1139 91.8598 13.9106L94.2772 16.4079C94.1898 16.5531 94.1607 16.7273 94.1315 16.9016C94.015 17.8308 94.6558 18.6729 95.5878 18.789C95.9664 18.8181 96.345 18.731 96.6654 18.5277Z" fill="#EA524E"/>
</g>
<path opacity="0.95" d="M5.474 27.154C4.59667 27.154 3.78933 26.944 3.052 26.524C2.31467 26.104 1.73133 25.53 1.302 24.802C0.882 24.074 0.672 23.2667 0.672 22.38C0.672 21.4933 0.882 20.686 1.302 19.958C1.73133 19.23 2.31467 18.656 3.052 18.236C3.78933 17.816 4.59667 17.606 5.474 17.606C6.29533 17.606 7.042 17.788 7.714 18.152C8.386 18.5067 8.918 18.9873 9.31 19.594L8.498 20.238C8.14333 19.7247 7.70933 19.328 7.196 19.048C6.692 18.7587 6.12267 18.614 5.488 18.614C4.79733 18.614 4.172 18.7773 3.612 19.104C3.052 19.4307 2.60867 19.8833 2.282 20.462C1.96467 21.0313 1.806 21.6707 1.806 22.38C1.806 23.0893 1.96467 23.7333 2.282 24.312C2.60867 24.8813 3.052 25.3293 3.612 25.656C4.172 25.9827 4.79733 26.146 5.488 26.146C6.12267 26.146 6.692 26.006 7.196 25.726C7.70933 25.4367 8.14333 25.0353 8.498 24.522L9.31 25.166C8.92733 25.7727 8.39533 26.258 7.714 26.622C7.042 26.9767 6.29533 27.154 5.474 27.154ZM17.5958 26.048V28.974H16.5178V27H11.1558V28.974H10.0778V26.048H10.8478C11.1651 25.7213 11.3891 25.2407 11.5198 24.606C11.6505 23.962 11.7251 23.1267 11.7438 22.1L11.7858 20.182H16.4898V26.048H17.5958ZM12.7658 22.114C12.7471 23.066 12.6678 23.8827 12.5278 24.564C12.3878 25.236 12.2058 25.7307 11.9818 26.048H15.4118V21.148H12.8078L12.7658 22.114ZM25.1748 23.92H19.7848C19.8502 24.592 20.1162 25.1333 20.5828 25.544C21.0495 25.9547 21.6188 26.16 22.2908 26.16C23.0655 26.16 23.7608 25.852 24.3768 25.236L25.0068 25.964C24.6522 26.3373 24.2415 26.6313 23.7748 26.846C23.3175 27.0513 22.8182 27.154 22.2768 27.154C21.6048 27.154 20.9935 27 20.4428 26.692C19.8922 26.3747 19.4582 25.9453 19.1408 25.404C18.8235 24.8627 18.6648 24.2607 18.6648 23.598C18.6648 22.9447 18.8188 22.3473 19.1268 21.806C19.4348 21.2553 19.8548 20.8213 20.3868 20.504C20.9188 20.1867 21.5068 20.028 22.1508 20.028C22.7295 20.028 23.2568 20.1587 23.7328 20.42C24.2088 20.6813 24.5822 21.0453 24.8528 21.512C25.1235 21.9787 25.2588 22.5107 25.2588 23.108C25.2588 23.3693 25.2308 23.64 25.1748 23.92ZM22.1228 21.008C21.5535 21.008 21.0588 21.19 20.6388 21.554C20.2188 21.9087 19.9482 22.38 19.8268 22.968H24.1528C24.1435 22.3613 23.9428 21.8853 23.5508 21.54C23.1682 21.1853 22.6922 21.008 22.1228 21.008ZM32.3049 20.182V27H31.2269V21.148H28.6929L28.6649 21.988C28.6276 23.1827 28.5389 24.144 28.3989 24.872C28.2589 25.6 28.0349 26.146 27.7269 26.51C27.4189 26.874 26.9989 27.056 26.4669 27.056C26.3362 27.056 26.2149 27.0373 26.1029 27V26.09C26.2149 26.1087 26.3082 26.118 26.3829 26.118C26.8216 26.118 27.1342 25.7773 27.3209 25.096C27.5076 24.4053 27.6149 23.36 27.6429 21.96L27.6849 20.182H32.3049ZM37.1361 20.028C37.9388 20.028 38.5828 20.266 39.0681 20.742C39.5534 21.218 39.7961 21.904 39.7961 22.8V27H38.7881V26.118C38.5361 26.454 38.2141 26.7107 37.8221 26.888C37.4301 27.0653 36.9868 27.154 36.4921 27.154C35.7921 27.154 35.2181 26.9813 34.7701 26.636C34.3314 26.2907 34.1121 25.824 34.1121 25.236C34.1121 24.6573 34.3361 24.1953 34.7841 23.85C35.2321 23.5047 35.8248 23.332 36.5621 23.332H38.7181V22.744C38.7181 22.184 38.5688 21.7593 38.2701 21.47C37.9808 21.1713 37.5794 21.022 37.0661 21.022C36.6554 21.022 36.2914 21.1153 35.9741 21.302C35.6568 21.4793 35.3581 21.75 35.0781 22.114L34.3641 21.526C34.6721 21.022 35.0688 20.6487 35.5541 20.406C36.0394 20.154 36.5668 20.028 37.1361 20.028ZM36.6321 26.258C37.0054 26.258 37.3508 26.1787 37.6681 26.02C37.9854 25.852 38.2374 25.6233 38.4241 25.334C38.6201 25.0447 38.7181 24.7273 38.7181 24.382V24.214H36.6881C36.2121 24.214 35.8481 24.298 35.5961 24.466C35.3441 24.6247 35.2181 24.8627 35.2181 25.18C35.2181 25.5253 35.3534 25.7913 35.6241 25.978C35.8948 26.1647 36.2308 26.258 36.6321 26.258ZM42.0826 20.182H43.1606V22.898H46.5066V20.182H47.5846V27H46.5066V23.85H43.1606V27H42.0826V20.182ZM53.0099 27.14C52.3566 27.14 51.7592 26.9813 51.2179 26.664C50.6766 26.3467 50.2472 25.9173 49.9299 25.376C49.6126 24.8253 49.4539 24.228 49.4539 23.584C49.4539 22.9307 49.6126 22.3333 49.9299 21.792C50.2472 21.2413 50.6766 20.812 51.2179 20.504C51.7686 20.1867 52.3706 20.028 53.0239 20.028C53.6772 20.028 54.2746 20.1867 54.8159 20.504C55.3666 20.8213 55.8006 21.2507 56.1179 21.792C56.4352 22.3333 56.5939 22.9307 56.5939 23.584C56.5939 24.228 56.4352 24.8253 56.1179 25.376C55.8006 25.9173 55.3666 26.3467 54.8159 26.664C54.2652 26.9813 53.6632 27.14 53.0099 27.14ZM53.0099 26.146C53.4672 26.146 53.8826 26.034 54.2559 25.81C54.6386 25.586 54.9372 25.2827 55.1519 24.9C55.3759 24.508 55.4879 24.074 55.4879 23.598C55.4879 23.1127 55.3806 22.674 55.1659 22.282C54.9512 21.89 54.6526 21.582 54.2699 21.358C53.8966 21.134 53.4812 21.022 53.0239 21.022C52.5572 21.022 52.1372 21.134 51.7639 21.358C51.3906 21.582 51.0966 21.89 50.8819 22.282C50.6672 22.674 50.5599 23.1127 50.5599 23.598C50.5599 24.074 50.6672 24.508 50.8819 24.9C51.0966 25.2827 51.3906 25.586 51.7639 25.81C52.1372 26.034 52.5526 26.146 53.0099 26.146ZM66.7107 23.304C67.112 23.444 67.4247 23.654 67.6487 23.934C67.882 24.214 67.9987 24.55 67.9987 24.942C67.9987 25.5487 67.7793 26.0433 67.3407 26.426C66.902 26.8087 66.314 27 65.5767 27H62.4127V20.182H65.2267C65.8987 20.182 66.4307 20.3453 66.8227 20.672C67.224 20.9987 67.4247 21.4373 67.4247 21.988C67.4247 22.2587 67.3593 22.5107 67.2287 22.744C67.1073 22.968 66.9347 23.1547 66.7107 23.304ZM63.4907 22.968H65.2407C65.614 22.968 65.894 22.8887 66.0807 22.73C66.2673 22.562 66.3607 22.3333 66.3607 22.044C66.3607 21.4467 65.9873 21.148 65.2407 21.148H63.4907V22.968ZM65.5067 26.048C65.9547 26.048 66.3 25.9453 66.5427 25.74C66.7947 25.5347 66.9207 25.2687 66.9207 24.942C66.9207 24.6247 66.7947 24.3773 66.5427 24.2C66.3 24.0133 65.9547 23.92 65.5067 23.92H63.4907V26.048H65.5067Z" fill="white"/>
</svg>
