<svg width="26" height="14" viewBox="0 0 26 14" fill="none" xmlns="http://www.w3.org/2000/svg">
<path d="M12.875 5.74999H25.5V10.755C25.5 11.4375 24.9375 12 24.25 12C23.5625 12 23 11.4375 23 10.755V8.24999H20.5V10.75C20.5 11.4375 19.9375 12 19.25 12C18.5625 12 18 11.4375 18 10.75V8.24999H12.875C12.5613 9.76418 11.6977 11.1084 10.4509 12.0231C9.20413 12.9378 7.66261 13.358 6.12411 13.2026C4.5856 13.0472 3.15926 12.3272 2.12057 11.1817C1.08187 10.0361 0.504513 8.54632 0.500003 6.99999C0.498445 5.45005 1.07285 3.95483 2.11172 2.80458C3.15059 1.65433 4.57979 0.931122 6.12188 0.775355C7.66398 0.619588 9.20894 1.04237 10.4568 1.96163C11.7048 2.8809 12.5666 4.23105 12.875 5.74999ZM6.75 10.75C7.74457 10.75 8.69839 10.3549 9.40165 9.65164C10.1049 8.94838 10.5 7.99455 10.5 6.99999C10.5 6.00543 10.1049 5.0516 9.40165 4.34834C8.69839 3.64508 7.74457 3.24999 6.75 3.24999C5.75544 3.24999 4.80161 3.64508 4.09835 4.34834C3.39509 5.0516 3 6.00543 3 6.99999C3 7.99455 3.39509 8.94838 4.09835 9.65164C4.80161 10.3549 5.75544 10.75 6.75 10.75Z" fill="#222222"/>
</svg>
