<svg width="16" height="16" viewBox="0 0 16 16" fill="none" xmlns="http://www.w3.org/2000/svg">
<path d="M14.6481 13.0495H1.35034C1.10678 13.0493 0.873267 12.9524 0.701038 12.7802C0.52881 12.6079 0.431927 12.3744 0.431641 12.1308V3.62295C0.431927 3.37941 0.528817 3.14592 0.701052 2.97373C0.873286 2.80153 1.1068 2.7047 1.35034 2.70447H14.6476C14.8913 2.70458 15.1249 2.80137 15.2972 2.97357C15.4695 3.14578 15.5665 3.37933 15.5668 3.62295V12.1308C15.5665 12.3744 15.4696 12.6079 15.2974 12.7802C15.1252 12.9524 14.8916 13.0493 14.6481 13.0495ZM1.35034 3.1369C1.22145 3.13701 1.09786 3.18825 1.0067 3.27938C0.915539 3.3705 0.864245 3.49406 0.864073 3.62295V12.1308C0.864245 12.2598 0.915532 12.3833 1.00669 12.4745C1.09784 12.5657 1.22143 12.6169 1.35034 12.6171H14.6476C14.7766 12.6171 14.9003 12.5658 14.9916 12.4747C15.0828 12.3835 15.1342 12.2598 15.1343 12.1308V3.62295C15.1342 3.49406 15.0829 3.3705 14.9917 3.27938C14.9006 3.18825 14.777 3.13701 14.6481 3.1369H1.35034Z" fill="#005176"/>
<path d="M8.00098 8.46103C7.78511 8.46145 7.57497 8.39163 7.40228 8.26211L0.764222 3.26492C0.718346 3.23052 0.688018 3.17929 0.679908 3.12253C0.671799 3.06576 0.686572 3.00809 0.720979 2.96222C0.755385 2.91634 0.806606 2.88602 0.863374 2.87791C0.920142 2.8698 0.977806 2.88457 1.02368 2.91898L7.66152 7.91638C7.75929 7.98944 7.87806 8.02892 8.00011 8.02892C8.12216 8.02892 8.24094 7.98944 8.33871 7.91638L14.9776 2.91898C15.0003 2.90194 15.0262 2.88954 15.0537 2.8825C15.0812 2.87545 15.1098 2.87389 15.1379 2.87791C15.166 2.88192 15.1931 2.89143 15.2175 2.9059C15.242 2.92037 15.2633 2.9395 15.2803 2.96222C15.2974 2.98493 15.3098 3.01078 15.3168 3.03829C15.3239 3.06579 15.3254 3.09442 15.3214 3.12253C15.3174 3.15064 15.3079 3.17768 15.2934 3.20211C15.2789 3.22654 15.2598 3.24789 15.2371 3.26492L8.59925 8.26233C8.42665 8.39168 8.21667 8.46142 8.00098 8.46103Z" fill="#005176"/>
<path d="M0.796424 12.7768C0.752129 12.7768 0.708893 12.7633 0.672567 12.7379C0.636241 12.7126 0.608576 12.6767 0.593315 12.6351C0.578054 12.5935 0.575934 12.5482 0.58724 12.5054C0.598547 12.4626 0.622735 12.4243 0.656533 12.3956L6.61978 7.34331C6.66353 7.30624 6.72022 7.28806 6.77737 7.29279C6.83452 7.29751 6.88746 7.32475 6.92453 7.3685C6.96161 7.41225 6.97978 7.46894 6.97506 7.5261C6.97033 7.58325 6.9431 7.63618 6.89934 7.67326L0.9361 12.7256C0.897137 12.7588 0.847602 12.7769 0.796424 12.7768Z" fill="#005176"/>
<path d="M15.2028 12.7769C15.1516 12.777 15.1021 12.7588 15.0631 12.7256L9.09988 7.67332C9.07822 7.65496 9.06038 7.63252 9.04739 7.60727C9.0344 7.58202 9.02651 7.55445 9.02417 7.52616C9.02183 7.49786 9.02509 7.46937 9.03376 7.44233C9.04243 7.41529 9.05634 7.39023 9.07469 7.36856C9.09305 7.3469 9.1155 7.32906 9.14075 7.31607C9.166 7.30308 9.19356 7.29519 9.22186 7.29285C9.25016 7.29051 9.27864 7.29377 9.30568 7.30244C9.33272 7.31111 9.35779 7.32502 9.37945 7.34337L15.3427 12.3957C15.3765 12.4243 15.4007 12.4626 15.412 12.5055C15.4233 12.5483 15.4212 12.5936 15.4059 12.6352C15.3907 12.6767 15.363 12.7126 15.3267 12.738C15.2903 12.7633 15.2471 12.7769 15.2028 12.7769Z" fill="#005176"/>
</svg>
