<svg width="24" height="24" viewBox="0 0 24 24" fill="none" xmlns="http://www.w3.org/2000/svg">

<path d="M20.3786 10.7164L20.1715 10.7163V9.39677C20.1715 8.37148 20.5777 7.39132 21.1176 6.78687C21.8384 5.98057 22.2353 4.94037 22.2353 3.85793C22.2353 2.35719 21.4555 0.927453 20.2001 0.126689C19.6647 -0.214795 18.9618 0.174548 18.9618 0.809235V3.57912C18.9618 4.19848 18.4579 4.70234 17.8386 4.70234C17.2192 4.70234 16.7153 4.19848 16.7153 3.57912V0.809282C16.7153 0.173095 16.011 -0.213998 15.477 0.126736C14.2216 0.927453 13.4417 2.35719 13.4417 3.85798C13.4417 4.94042 13.8387 5.98062 14.5593 6.78668C15.0223 7.30591 15.4082 8.13954 15.4885 9.03068C14.5157 9.1189 13.6614 9.55601 13.1064 10.2607L12.5064 11.0226C12.2061 11.404 11.7554 11.6228 11.2698 11.6228H10.737C10.717 10.8837 10.1099 10.2885 9.36613 10.2885C8.73201 10.2885 8.19721 10.7211 8.04074 11.3066H2.89565C2.27198 11.3066 1.76465 11.814 1.76465 12.4376V18.3508C1.76465 18.9744 2.27202 19.4818 2.89565 19.4818H8.15423C8.3849 19.9156 8.84151 20.2119 9.36623 20.2119C10.0435 20.2119 10.6073 19.7184 10.718 19.0722H12.0592C12.2596 19.0722 12.4556 19.1098 12.6417 19.1839C13.6959 19.5676 14.2175 19.9191 15.5056 20.1464V21.6671C15.5056 22.9535 16.5522 24.0001 17.8386 24.0001C19.125 24.0001 20.1715 22.9535 20.1715 21.6671V19.633C20.3411 19.3768 20.4252 19.0748 20.4104 18.7599C20.397 18.4759 20.2968 18.2061 20.1316 17.981C20.6696 17.7792 21.0531 17.2668 21.0539 16.6681C21.0545 16.2425 20.8974 15.8643 20.637 15.5921C21.0112 15.336 21.2639 14.9169 21.2796 14.4443C21.2913 14.0965 21.1774 13.7693 20.978 13.509C21.4864 13.2799 21.841 12.769 21.841 12.177C21.841 11.3716 21.1849 10.7164 20.3786 10.7164ZM10.0349 18.8399C10.0349 19.2086 9.73495 19.5086 9.36618 19.5086C8.99741 19.5086 8.69746 19.2086 8.69746 18.8399V17.9829C8.69746 17.7887 8.54006 17.6313 8.3459 17.6313C8.15174 17.6313 7.99434 17.7887 7.99434 17.9829V18.7786H2.89565C2.65973 18.7786 2.46777 18.5867 2.46777 18.3507V12.4375C2.46777 12.2016 2.65973 12.0097 2.89565 12.0097H7.99434V16.3382C7.99434 16.5324 8.15174 16.6898 8.3459 16.6898C8.54006 16.6898 8.69746 16.5324 8.69746 16.3382V11.6615C8.69746 11.661 8.69746 11.6604 8.69746 11.6598C8.6977 11.2913 8.9976 10.9916 9.36618 10.9916C9.73495 10.9916 10.0349 11.2916 10.0349 11.6603V18.8399H10.0349ZM15.0837 6.31826C14.4783 5.64101 14.1449 4.76726 14.1449 3.85793C14.1449 2.59494 14.8002 1.39236 15.8551 0.719516C15.9231 0.67611 16.0122 0.727954 16.0122 0.809282V3.57917C16.0122 4.58623 16.8315 5.40551 17.8386 5.40551C18.8456 5.40551 19.6649 4.58623 19.6649 3.57917V0.809282C19.6649 0.728094 19.7538 0.676016 19.822 0.719516C20.8769 1.39241 21.5322 2.59498 21.5322 3.85793C21.5322 4.76726 21.1988 5.64101 20.5933 6.31835C19.9428 7.04702 19.4684 8.19227 19.4684 9.39677V10.7157L18.8523 10.7152V9.98979C18.8523 9.79563 18.6949 9.63822 18.5008 9.63822C18.3066 9.63822 18.1492 9.79563 18.1492 9.98979V10.7147L17.5278 10.7141V8.09482C17.5278 7.92349 17.6672 7.78413 17.8385 7.78413C18.0098 7.78413 18.1492 7.92349 18.1492 8.09482V8.34513C18.1492 8.53929 18.3066 8.69669 18.5008 8.69669C18.6949 8.69669 18.8523 8.53929 18.8523 8.34513V8.09482C18.8523 7.53579 18.3975 7.08101 17.8385 7.08101C17.2795 7.08101 16.8247 7.53579 16.8247 8.09482V10.7136L16.5667 10.7134C16.3467 10.7134 16.2083 10.5418 16.2083 10.3293C16.2087 9.49558 16.3659 7.75493 15.0837 6.31826ZM19.4684 21.667C19.4684 22.5657 18.7372 23.2968 17.8386 23.2968C16.9399 23.2968 16.2087 22.5657 16.2087 21.667V20.2399C16.4133 20.2584 16.6187 20.2696 16.8247 20.2731V21.564C16.8247 22.123 17.2796 22.5778 17.8386 22.5778C18.3976 22.5778 18.8524 22.123 18.8524 21.564V20.2895C18.8931 20.2867 19.1594 20.3133 19.4684 20.1968V21.667ZM17.5279 21.564V20.279L18.1492 20.2839V21.564C18.1492 21.7353 18.0099 21.8746 17.8386 21.8746C17.6673 21.8746 17.5279 21.7353 17.5279 21.564ZM20.3783 12.9341H19.9455C19.7514 12.9341 19.594 13.0915 19.594 13.2857V13.2929C19.594 13.4718 19.7284 13.6222 19.9062 13.6423C20.2954 13.6862 20.59 14.0281 20.5769 14.4208C20.5634 14.8239 20.2109 15.1518 19.7908 15.1518L19.6402 15.1519C19.4461 15.152 19.2889 15.3107 19.2889 15.5047C19.2889 15.6936 19.4381 15.8487 19.6268 15.856C20.0469 15.8723 20.3514 16.2134 20.3508 16.6671C20.3503 17.0544 20.0239 17.3695 19.6233 17.3695H19.3868C19.1669 17.3695 18.9881 17.5484 18.9881 17.7682C18.9881 17.9291 19.0842 18.0734 19.2329 18.1357C19.5124 18.2529 19.6945 18.5048 19.708 18.7929C19.7285 19.2272 19.3824 19.5872 18.9544 19.5872C17.0561 19.5586 16.6855 19.6068 15.8994 19.4969C15.8969 19.4966 15.8943 19.4961 15.8917 19.4959C14.5203 19.3028 13.8697 18.8767 12.9019 18.5307C12.6326 18.4234 12.3491 18.369 12.0592 18.369H10.7381V12.3259H11.2699C11.9723 12.3259 12.6244 12.0094 13.0589 11.4576L13.6589 10.6957C14.0844 10.1554 14.7448 9.81522 15.5053 9.73521V10.3293C15.5051 10.9311 15.9583 11.4166 16.5666 11.4166C17.0238 11.417 19.3661 11.4189 19.8197 11.4192H19.82H19.8203L20.3784 11.4197C20.7972 11.4197 21.1379 11.7594 21.1379 12.177C21.1379 12.5944 20.7972 12.9341 20.3783 12.9341Z" fill="#000"/>

</svg>
