<svg width="22" height="24" viewBox="0 0 22 24" fill="none" xmlns="http://www.w3.org/2000/svg">
<path d="M19.3786 10.7164L19.1715 10.7163V9.39677C19.1715 8.37148 19.5777 7.39132 20.1176 6.78687C20.8384 5.98057 21.2353 4.94037 21.2353 3.85793C21.2353 2.35719 20.4555 0.927453 19.2001 0.126689C18.6647 -0.214795 17.9618 0.174548 17.9618 0.809235V3.57912C17.9618 4.19848 17.4579 4.70234 16.8386 4.70234C16.2192 4.70234 15.7153 4.19848 15.7153 3.57912V0.809282C15.7153 0.173095 15.011 -0.213998 14.477 0.126736C13.2216 0.927453 12.4417 2.35719 12.4417 3.85798C12.4417 4.94042 12.8387 5.98062 13.5593 6.78668C14.0223 7.30591 14.4082 8.13954 14.4885 9.03068C13.5157 9.1189 12.6614 9.55601 12.1064 10.2607L11.5064 11.0226C11.2061 11.404 10.7554 11.6228 10.2698 11.6228H9.73704C9.71702 10.8837 9.10995 10.2885 8.36613 10.2885C7.73201 10.2885 7.19721 10.7211 7.04074 11.3066H1.89565C1.27198 11.3066 0.764648 11.814 0.764648 12.4376V18.3508C0.764648 18.9744 1.27202 19.4818 1.89565 19.4818H7.15423C7.3849 19.9156 7.84151 20.2119 8.36623 20.2119C9.04348 20.2119 9.60734 19.7184 9.71801 19.0722H11.0592C11.2596 19.0722 11.4556 19.1098 11.6417 19.1839C12.6959 19.5676 13.2175 19.9191 14.5056 20.1464V21.6671C14.5056 22.9535 15.5522 24.0001 16.8386 24.0001C18.125 24.0001 19.1715 22.9535 19.1715 21.6671V19.633C19.3411 19.3768 19.4252 19.0748 19.4104 18.7599C19.397 18.4759 19.2968 18.2061 19.1316 17.981C19.6696 17.7792 20.0531 17.2668 20.0539 16.6681C20.0545 16.2425 19.8974 15.8643 19.637 15.5921C20.0112 15.336 20.2639 14.9169 20.2796 14.4443C20.2913 14.0965 20.1774 13.7693 19.978 13.509C20.4864 13.2799 20.841 12.769 20.841 12.177C20.841 11.3716 20.1849 10.7164 19.3786 10.7164ZM9.03495 18.8399C9.03495 19.2086 8.73495 19.5086 8.36618 19.5086C7.99741 19.5086 7.69746 19.2086 7.69746 18.8399V17.9829C7.69746 17.7887 7.54006 17.6313 7.3459 17.6313C7.15174 17.6313 6.99434 17.7887 6.99434 17.9829V18.7786H1.89565C1.65973 18.7786 1.46777 18.5867 1.46777 18.3507V12.4375C1.46777 12.2016 1.65973 12.0097 1.89565 12.0097H6.99434V16.3382C6.99434 16.5324 7.15174 16.6898 7.3459 16.6898C7.54006 16.6898 7.69746 16.5324 7.69746 16.3382V11.6615C7.69746 11.661 7.69746 11.6604 7.69746 11.6598C7.6977 11.2913 7.9976 10.9916 8.36618 10.9916C8.73495 10.9916 9.0349 11.2916 9.0349 11.6603V18.8399H9.03495ZM14.0837 6.31826C13.4783 5.64101 13.1449 4.76726 13.1449 3.85793C13.1449 2.59494 13.8002 1.39236 14.8551 0.719516C14.9231 0.67611 15.0122 0.727954 15.0122 0.809282V3.57917C15.0122 4.58623 15.8315 5.40551 16.8386 5.40551C17.8456 5.40551 18.6649 4.58623 18.6649 3.57917V0.809282C18.6649 0.728094 18.7538 0.676016 18.822 0.719516C19.8769 1.39241 20.5322 2.59498 20.5322 3.85793C20.5322 4.76726 20.1988 5.64101 19.5933 6.31835C18.9428 7.04702 18.4684 8.19227 18.4684 9.39677V10.7157L17.8523 10.7152V9.98979C17.8523 9.79563 17.6949 9.63822 17.5008 9.63822C17.3066 9.63822 17.1492 9.79563 17.1492 9.98979V10.7147L16.5278 10.7141V8.09482C16.5278 7.92349 16.6672 7.78413 16.8385 7.78413C17.0098 7.78413 17.1492 7.92349 17.1492 8.09482V8.34513C17.1492 8.53929 17.3066 8.69669 17.5008 8.69669C17.6949 8.69669 17.8523 8.53929 17.8523 8.34513V8.09482C17.8523 7.53579 17.3975 7.08101 16.8385 7.08101C16.2795 7.08101 15.8247 7.53579 15.8247 8.09482V10.7136L15.5667 10.7134C15.3467 10.7134 15.2083 10.5418 15.2083 10.3293C15.2087 9.49558 15.3659 7.75493 14.0837 6.31826ZM18.4684 21.667C18.4684 22.5657 17.7372 23.2968 16.8386 23.2968C15.9399 23.2968 15.2087 22.5657 15.2087 21.667V20.2399C15.4133 20.2584 15.6187 20.2696 15.8247 20.2731V21.564C15.8247 22.123 16.2796 22.5778 16.8386 22.5778C17.3976 22.5778 17.8524 22.123 17.8524 21.564V20.2895C17.8931 20.2867 18.1594 20.3133 18.4684 20.1968V21.667ZM16.5279 21.564V20.279L17.1492 20.2839V21.564C17.1492 21.7353 17.0099 21.8746 16.8386 21.8746C16.6673 21.8746 16.5279 21.7353 16.5279 21.564ZM19.3783 12.9341H18.9455C18.7514 12.9341 18.594 13.0915 18.594 13.2857V13.2929C18.594 13.4718 18.7284 13.6222 18.9062 13.6423C19.2954 13.6862 19.59 14.0281 19.5769 14.4208C19.5634 14.8239 19.2109 15.1518 18.7908 15.1518L18.6402 15.1519C18.4461 15.152 18.2889 15.3107 18.2889 15.5047C18.2889 15.6936 18.4381 15.8487 18.6268 15.856C19.0469 15.8723 19.3514 16.2134 19.3508 16.6671C19.3503 17.0544 19.0239 17.3695 18.6233 17.3695H18.3868C18.1669 17.3695 17.9881 17.5484 17.9881 17.7682C17.9881 17.9291 18.0842 18.0734 18.2329 18.1357C18.5124 18.2529 18.6945 18.5048 18.708 18.7929C18.7285 19.2272 18.3824 19.5872 17.9544 19.5872C16.0561 19.5586 15.6855 19.6068 14.8994 19.4969C14.8969 19.4966 14.8943 19.4961 14.8917 19.4959C13.5203 19.3028 12.8697 18.8767 11.9019 18.5307C11.6326 18.4234 11.3491 18.369 11.0592 18.369H9.73807V12.3259H10.2699C10.9723 12.3259 11.6244 12.0094 12.0589 11.4576L12.6589 10.6957C13.0844 10.1554 13.7448 9.81522 14.5053 9.73521V10.3293C14.5051 10.9311 14.9583 11.4166 15.5666 11.4166C16.0238 11.417 18.3661 11.4189 18.8197 11.4192H18.82H18.8203L19.3784 11.4197C19.7972 11.4197 20.1379 11.7594 20.1379 12.177C20.1379 12.5944 19.7972 12.9341 19.3783 12.9341Z" fill="white"/>
</svg>
