<svg width="30" height="30" viewBox="0 0 30 30" fill="none" xmlns="http://www.w3.org/2000/svg">
<path d="M22.5939 1.9425L27.8102 7.38001V28.0575H8.32422V28.125H27.8767V7.44844L22.5939 1.9425Z" fill="#909090"/>
<path d="M22.5294 1.875H8.25781V28.0575H27.8103V7.38094L22.5284 1.875" fill="#F4F4F4"/>
<path d="M8.11367 3.28125H2.12305V9.68156H20.9668V3.28125H8.11367Z" fill="#7A7B7C"/>
<path d="M21.0683 9.57282H2.24609V3.16782H21.0683V9.57282Z" fill="#DD2025"/>
<path d="M8.48703 4.25061H7.26172V8.75061H8.22547V7.2328L8.43828 7.24499C8.64507 7.24143 8.84991 7.20439 9.04484 7.1353C9.21575 7.07651 9.37298 6.98371 9.50703 6.86249C9.64344 6.747 9.75098 6.60126 9.82109 6.43686C9.91512 6.16358 9.94871 5.87314 9.91953 5.58561C9.91368 5.38021 9.87767 5.17679 9.81266 4.98186C9.75348 4.84115 9.66565 4.7143 9.55476 4.60938C9.44388 4.50447 9.31236 4.42379 9.16859 4.37249C9.04429 4.32748 8.91586 4.29483 8.78516 4.27499C8.68618 4.25971 8.58624 4.25157 8.48609 4.25061H8.48703ZM8.30891 6.40124H8.22547V5.01374H8.40641C8.48626 5.00798 8.56639 5.02024 8.64087 5.04961C8.71536 5.07898 8.78229 5.12471 8.83672 5.18342C8.94952 5.33437 9.00978 5.51811 9.00828 5.70655C9.00828 5.93717 9.00828 6.14624 8.80016 6.29342C8.65022 6.37589 8.47955 6.41302 8.30891 6.4003" fill="#464648"/>
<path d="M11.7485 4.23843C11.6445 4.23843 11.5432 4.24593 11.472 4.24874L11.2488 4.25437H10.5176V8.75436H11.3782C11.7071 8.76338 12.0346 8.70763 12.342 8.5903C12.5894 8.49217 12.8085 8.33397 12.9795 8.12999C13.1457 7.92417 13.2651 7.68452 13.3291 7.4278C13.4028 7.13705 13.4387 6.83803 13.436 6.53811C13.4542 6.18389 13.4268 5.82879 13.3545 5.48155C13.2858 5.22595 13.1573 4.99039 12.9795 4.79436C12.8399 4.63608 12.6692 4.5084 12.4779 4.41937C12.3136 4.34335 12.1408 4.28732 11.9632 4.25249C11.8926 4.24082 11.821 4.23549 11.7495 4.23655L11.7485 4.23843ZM11.5788 7.92749H11.4851V5.05499H11.4973C11.6905 5.03275 11.8861 5.06763 12.0598 5.1553C12.1869 5.25686 12.2906 5.3848 12.3635 5.5303C12.4422 5.68343 12.4876 5.85149 12.4966 6.02343C12.5051 6.22968 12.4966 6.39843 12.4966 6.53811C12.5005 6.69902 12.4901 6.85996 12.4657 7.01905C12.4368 7.18239 12.3834 7.34043 12.3073 7.4878C12.2211 7.62482 12.1047 7.74028 11.967 7.8253C11.8513 7.90011 11.7143 7.93501 11.577 7.92468" fill="#464648"/>
<path d="M16.3406 4.25436H14.0625V8.75436H15.0263V6.96936H16.245V6.13311H15.0263V5.09061H16.3387V4.25436" fill="#464648"/>
<path d="M20.4196 18.9891C20.4196 18.9891 23.4084 18.4472 23.4084 19.4681C23.4084 20.4891 21.5568 20.0738 20.4196 18.9891ZM18.21 19.0669C17.7351 19.1718 17.2723 19.3254 16.829 19.5253L17.204 18.6816C17.579 17.8378 17.9681 16.6875 17.9681 16.6875C18.4156 17.4406 18.9362 18.1478 19.5225 18.7988C19.0803 18.8647 18.6422 18.9548 18.21 19.0688V19.0669ZM17.0268 12.9731C17.0268 12.0834 17.3146 11.8406 17.5387 11.8406C17.7628 11.8406 18.015 11.9484 18.0234 12.7209C17.9504 13.4977 17.7877 14.2634 17.5387 15.0028C17.1976 14.382 17.021 13.6843 17.0259 12.9759L17.0268 12.9731ZM12.6684 22.8319C11.7515 22.2834 14.5912 20.595 15.1059 20.5406C15.1031 20.5416 13.6284 23.4056 12.6684 22.8319ZM24.2812 19.5891C24.2718 19.4953 24.1875 18.4575 22.3406 18.5016C21.5708 18.4892 20.8013 18.5434 20.0409 18.6638C19.3043 17.9216 18.6699 17.0846 18.1546 16.1747C18.4793 15.2367 18.6757 14.2591 18.7387 13.2684C18.7115 12.1434 18.4425 11.4984 17.58 11.5078C16.7175 11.5172 16.5918 12.2719 16.7053 13.395C16.8164 14.1497 17.026 14.8866 17.3287 15.5869C17.3287 15.5869 16.9303 16.8272 16.4034 18.0609C15.8765 19.2947 15.5165 19.9416 15.5165 19.9416C14.6003 20.2398 13.7378 20.6829 12.9618 21.2541C12.1893 21.9731 11.8753 22.5253 12.2821 23.0775C12.6328 23.5538 13.86 23.6616 14.9568 22.2244C15.5396 21.4821 16.0721 20.7016 16.5506 19.8881C16.5506 19.8881 18.2231 19.4297 18.7434 19.3041C19.2637 19.1784 19.8928 19.0791 19.8928 19.0791C19.8928 19.0791 21.42 20.6156 22.8928 20.5613C24.3656 20.5069 24.2943 19.6809 24.285 19.5909" fill="#DD2025"/>
<path d="M22.457 1.9472V7.45314H27.738L22.457 1.9472Z" fill="#909090"/>
<path d="M22.5293 1.875V7.38094H27.8102L22.5293 1.875Z" fill="#F4F4F4"/>
<path d="M8.41477 4.17844H7.18945V8.67844H8.15695V7.16156L8.3707 7.17375C8.57749 7.17019 8.78233 7.13315 8.97727 7.06406C9.14816 7.00525 9.30538 6.91245 9.43945 6.79125C9.57483 6.67546 9.6814 6.52974 9.7507 6.36562C9.84473 6.09234 9.87831 5.8019 9.84914 5.51437C9.84329 5.30897 9.80728 5.10555 9.74227 4.91062C9.68308 4.76991 9.59526 4.64306 9.48437 4.53815C9.37349 4.43324 9.24197 4.35256 9.0982 4.30125C8.97333 4.25581 8.84426 4.22284 8.71289 4.20281C8.61391 4.18754 8.51397 4.17939 8.41383 4.17844H8.41477ZM8.23664 6.32906H8.1532V4.94156H8.33508C8.41493 4.9358 8.49506 4.94806 8.56955 4.97743C8.64403 5.0068 8.71096 5.05254 8.76539 5.11125C8.87819 5.2622 8.93845 5.44594 8.93695 5.63437C8.93695 5.865 8.93695 6.07406 8.72883 6.22125C8.57889 6.30372 8.40822 6.34085 8.23758 6.32812" fill="white"/>
<path d="M11.6773 4.16625C11.5733 4.16625 11.472 4.17375 11.4008 4.17657L11.1805 4.18219H10.4492V8.68219H11.3098C11.6387 8.69121 11.9662 8.63546 12.2736 8.51813C12.521 8.41999 12.7401 8.2618 12.9111 8.05782C13.0774 7.85199 13.1967 7.61235 13.2608 7.35563C13.3344 7.06488 13.3704 6.76586 13.3677 6.46594C13.3858 6.11171 13.3584 5.75662 13.2861 5.40938C13.2175 5.15378 13.0889 4.91822 12.9111 4.72219C12.7716 4.56391 12.6008 4.43623 12.4095 4.34719C12.2453 4.27118 12.0725 4.21515 11.8948 4.18032C11.8242 4.16865 11.7527 4.16331 11.6811 4.16438L11.6773 4.16625ZM11.5105 7.85532H11.4167V4.98282H11.4289C11.6222 4.96058 11.8177 4.99545 11.9914 5.08313C12.1186 5.18468 12.2222 5.31263 12.2952 5.45813C12.3739 5.61126 12.4192 5.77932 12.4283 5.95125C12.4367 6.1575 12.4283 6.32625 12.4283 6.46594C12.4321 6.62685 12.4217 6.78778 12.3973 6.94688C12.3684 7.11022 12.315 7.26825 12.2389 7.41563C12.1527 7.55265 12.0363 7.6681 11.8986 7.75313C11.7829 7.82794 11.646 7.86284 11.5086 7.8525" fill="white"/>
<path d="M16.2684 4.18219H13.9902V8.68219H14.954V6.89719H16.1727V6.06094H14.954V5.01844H16.2665V4.18219" fill="white"/>
</svg>
