<svg width="24" height="24" viewBox="0 0 24 24" fill="none" xmlns="http://www.w3.org/2000/svg">
<path d="M17.3588 13.125C17.5577 13.125 17.7485 13.204 17.8891 13.3447C18.0298 13.4853 18.1088 13.6761 18.1088 13.875H18.8588C18.8588 13.4772 18.7008 13.0956 18.4195 12.8143C18.1382 12.533 17.7566 12.375 17.3588 12.375H17.25V11.4638H16.5V12.375H16.3913C15.9935 12.375 15.6119 12.533 15.3306 12.8143C15.0493 13.0956 14.8913 13.4772 14.8913 13.875C14.8913 14.2728 15.0493 14.6544 15.3306 14.9357C15.6119 15.217 15.9935 15.375 16.3913 15.375H16.5V16.875H16.3913C16.1924 16.875 16.0016 16.796 15.861 16.6553C15.7203 16.5147 15.6413 16.3239 15.6413 16.125H14.8913C14.8913 16.5228 15.0493 16.9044 15.3306 17.1857C15.6119 17.467 15.9935 17.625 16.3913 17.625H16.5V18.5363H17.25V17.625H17.3588C17.7566 17.625 18.1382 17.467 18.4195 17.1857C18.7008 16.9044 18.8588 16.5228 18.8588 16.125C18.8588 15.7272 18.7008 15.3456 18.4195 15.0643C18.1382 14.783 17.7566 14.625 17.3588 14.625H17.25V13.125H17.3588ZM17.3588 15.375C17.5577 15.375 17.7485 15.454 17.8891 15.5947C18.0298 15.7353 18.1088 15.9261 18.1088 16.125C18.1088 16.3239 18.0298 16.5147 17.8891 16.6553C17.7485 16.796 17.5577 16.875 17.3588 16.875H17.25V15.375H17.3588ZM16.5 14.625H16.3913C16.1924 14.625 16.0016 14.546 15.861 14.4053C15.7203 14.2647 15.6413 14.0739 15.6413 13.875C15.6413 13.6761 15.7203 13.4853 15.861 13.3447C16.0016 13.204 16.1924 13.125 16.3913 13.125H16.5V14.625Z" fill="white"/>
<path d="M19.125 1.07999C18.975 1.96192 18.5947 2.78856 18.0225 3.47624C17.8487 3.29795 17.6412 3.15606 17.412 3.05883C17.1827 2.96161 16.9365 2.91102 16.6875 2.90999C16.3937 2.91291 16.1047 2.98485 15.8438 3.11999L12.57 3.17999C11.6957 3.19151 10.8609 3.54564 10.245 4.16624L1.81875 12.5925C1.46724 12.9441 1.26978 13.4209 1.26978 13.9181C1.26978 14.4153 1.46724 14.8921 1.81875 15.2437L4.125 17.5537C4.25601 18.0284 4.56852 18.4325 4.995 18.6787L11.1637 22.2412C11.4182 22.3923 11.7047 22.4809 12 22.5C12.3234 22.7456 12.7189 22.8775 13.125 22.875H20.25C20.7473 22.875 21.2242 22.6775 21.5758 22.3258C21.9275 21.9742 22.125 21.4973 22.125 21V9.08624C22.1235 8.21469 21.7848 7.37751 21.18 6.74999L18.555 4.02749C19.2535 3.21711 19.7108 2.22716 19.875 1.16999L19.125 1.07999ZM2.3475 13.125L10.7737 4.69499C11.2571 4.22136 11.9046 3.95267 12.5812 3.94499L13.4513 3.92624L12.2625 4.26749C11.4236 4.50963 10.7113 5.06744 10.275 5.82374L4.31625 16.125C4.24811 16.2438 4.1928 16.3695 4.15125 16.5L2.3475 14.7112C2.13797 14.5005 2.02036 14.2153 2.02036 13.9181C2.02036 13.6209 2.13797 13.3358 2.3475 13.125ZM5.3775 18.0375C5.2494 17.9637 5.1371 17.8654 5.04703 17.7481C4.95696 17.6309 4.89088 17.497 4.85257 17.3542C4.81426 17.2115 4.80447 17.0625 4.82376 16.9159C4.84306 16.7694 4.89105 16.628 4.965 16.5L10.9237 6.18374C11.2627 5.59536 11.8165 5.16122 12.4688 4.97249L14.4487 4.40624L12.1987 6.74249C11.5907 7.37129 11.2506 8.21157 11.25 9.08624V21C11.2514 21.1586 11.2741 21.3162 11.3175 21.4687L5.3775 18.0375ZM21.375 9.08624V21C21.375 21.2984 21.2565 21.5845 21.0455 21.7955C20.8345 22.0065 20.5484 22.125 20.25 22.125H13.125C12.8266 22.125 12.5405 22.0065 12.3295 21.7955C12.1185 21.5845 12 21.2984 12 21V9.08624C12.0038 8.40439 12.2728 7.75078 12.75 7.26374L15.8925 4.00499C15.9956 3.89806 16.1188 3.81261 16.2551 3.75355C16.3914 3.6945 16.538 3.66302 16.6866 3.66092C16.8351 3.65883 16.9825 3.68617 17.1204 3.74136C17.2583 3.79656 17.3839 3.87851 17.49 3.98249C17.3938 4.05433 17.2937 4.12068 17.19 4.18124C17.0649 4.07432 16.9082 4.0115 16.7439 4.00245C16.5796 3.9934 16.4169 4.03863 16.2808 4.13116C16.1448 4.2237 16.0429 4.3584 15.991 4.51453C15.9391 4.67065 15.9399 4.83952 15.9934 4.99512C16.0469 5.15072 16.15 5.28442 16.287 5.37561C16.424 5.46679 16.5871 5.51041 16.7513 5.49973C16.9155 5.48906 17.0716 5.42469 17.1956 5.31654C17.3196 5.20839 17.4046 5.06246 17.4375 4.90124C17.6411 4.79215 17.8354 4.66674 18.0187 4.52624L20.6437 7.25999C21.115 7.75094 21.3772 8.40572 21.375 9.08624Z" fill="white"/>
</svg>
