<svg width="24" height="24" viewBox="0 0 24 24" fill="none" xmlns="http://www.w3.org/2000/svg">
<g clip-path="url(#clip0)">
<path d="M22.4041 12.3109C22.3076 12.1133 22.3076 11.8867 22.4041 11.6892L23.2993 9.85799C23.7976 8.83842 23.4028 7.62319 22.4003 7.0913L20.5998 6.13599C20.4056 6.03296 20.2724 5.84959 20.2344 5.63307L19.8823 3.62547C19.6862 2.5077 18.6522 1.75657 17.5288 1.91553L15.5107 2.20099C15.2929 2.23174 15.0775 2.16171 14.9195 2.00885L13.4546 0.591736C12.6389 -0.197354 11.3611 -0.197401 10.5455 0.591736L9.08056 2.009C8.9225 2.1619 8.70711 2.23179 8.48933 2.20114L6.47123 1.91567C5.34741 1.75662 4.31382 2.50784 4.11775 3.62561L3.76562 5.63312C3.72761 5.84968 3.59444 6.03301 3.40024 6.13609L1.59978 7.09139C0.597315 7.62324 0.202442 8.83856 0.700814 9.85813L1.59589 11.6892C1.69245 11.8868 1.69245 12.1134 1.59589 12.3109L0.700767 14.1421C0.202395 15.1616 0.597268 16.3769 1.59973 16.9088L3.40019 17.8641C3.59444 17.9671 3.72761 18.1505 3.76562 18.367L4.11775 20.3746C4.29625 21.3921 5.16877 22.1058 6.17156 22.1057C6.27033 22.1057 6.37055 22.0987 6.47128 22.0845L8.48938 21.799C8.70702 21.7681 8.92255 21.8383 9.08061 21.9912L10.5455 23.4083C10.9534 23.8029 11.4766 24.0001 12 24.0001C12.5233 24 13.0468 23.8028 13.4545 23.4083L14.9195 21.9912C15.0775 21.8383 15.293 21.7685 15.5107 21.799L17.5288 22.0845C18.6528 22.2435 19.6862 21.4923 19.8823 20.3745L20.2344 18.367C20.2725 18.1505 20.4056 17.9671 20.5998 17.8641L22.4003 16.9088C23.4028 16.3769 23.7976 15.1616 23.2993 14.142L22.4041 12.3109ZM21.7515 15.6859L19.951 16.6412C19.377 16.9459 18.9833 17.4877 18.871 18.1278L18.5189 20.1353C18.4526 20.5135 18.103 20.7675 17.7227 20.7139L15.7046 20.4284C15.061 20.3372 14.4241 20.5444 13.957 20.9962L12.4921 22.4133C12.2162 22.6802 11.7839 22.6802 11.5079 22.4133L10.043 20.9961C9.64821 20.6143 9.13212 20.4073 8.59335 20.4073C8.49463 20.4073 8.39511 20.4142 8.29546 20.4283L6.27736 20.7138C5.89739 20.7675 5.54747 20.5135 5.4811 20.1353L5.12893 18.1277C5.01662 17.4876 4.62296 16.9457 4.04889 16.6412L2.24843 15.6859C1.90924 15.5059 1.77565 15.0948 1.94426 14.7498L2.83938 12.9187C3.12475 12.3348 3.12475 11.6652 2.83938 11.0813L1.94426 9.25012C1.77565 8.90517 1.90924 8.49403 2.24843 8.31408L4.04889 7.35877C4.62292 7.05413 5.01662 6.51235 5.12888 5.87223L5.481 3.86467C5.54738 3.48649 5.89697 3.23243 6.27727 3.28615L8.29536 3.57161C8.93872 3.66269 9.57579 3.45565 10.0429 3.00382L11.5078 1.5867C11.7837 1.3198 12.2161 1.3198 12.4921 1.5867L13.9569 3.00382C14.424 3.45569 15.061 3.66269 15.7045 3.57161L17.7226 3.28615C18.1026 3.23238 18.4525 3.48649 18.5188 3.86467L18.871 5.87227C18.9833 6.5124 19.3769 7.05422 19.951 7.35877L21.7515 8.31408C22.0906 8.49403 22.2242 8.90517 22.0556 9.25012L21.1605 11.0812C20.8751 11.6651 20.8751 12.3348 21.1605 12.9186L22.0556 14.7497C22.2243 15.0948 22.0907 15.506 21.7515 15.6859Z" fill="white"/>
<path d="M17.0571 6.9429C16.7868 6.67262 16.3485 6.67262 16.0783 6.9429L6.94288 16.0783C6.6726 16.3486 6.6726 16.7868 6.94288 17.0571C7.07802 17.1922 7.25516 17.2598 7.43226 17.2598C7.60935 17.2598 7.78654 17.1923 7.92163 17.0571L17.057 7.92174C17.3274 7.65141 17.3274 7.21322 17.0571 6.9429Z" fill="white"/>
<path d="M9.23157 5.77103C7.83226 5.77103 6.69382 6.90947 6.69382 8.30878C6.69382 9.70808 7.83226 10.8465 9.23157 10.8465C10.6309 10.8465 11.7693 9.70808 11.7693 8.30878C11.7693 6.90947 10.6309 5.77103 9.23157 5.77103ZM9.23157 9.46227C8.59552 9.46227 8.07807 8.94482 8.07807 8.30873C8.07807 7.67269 8.59552 7.15524 9.23157 7.15524C9.86761 7.15524 10.3851 7.67269 10.3851 8.30873C10.3851 8.94482 9.86761 9.46227 9.23157 9.46227Z" fill="white"/>
<path d="M14.7684 13.1535C13.3691 13.1535 12.2307 14.292 12.2307 15.6913C12.2307 17.0906 13.3691 18.229 14.7684 18.229C16.1677 18.229 17.3062 17.0906 17.3062 15.6913C17.3062 14.292 16.1677 13.1535 14.7684 13.1535ZM14.7684 16.8448C14.1324 16.8448 13.6149 16.3273 13.6149 15.6913C13.6149 15.0552 14.1323 14.5378 14.7684 14.5378C15.4044 14.5378 15.9219 15.0552 15.9219 15.6913C15.9219 16.3273 15.4044 16.8448 14.7684 16.8448Z" fill="white"/>
</g>
<defs>
<clipPath id="clip0">
<rect width="24" height="24" fill="white"/>
</clipPath>
</defs>
</svg>
