<svg width="23" height="23" viewBox="0 0 23 23" fill="none" xmlns="http://www.w3.org/2000/svg">
<path d="M17.7548 15.8452C17.3177 15.4265 16.8923 14.9957 16.479 14.5535C16.1318 14.2007 15.9227 13.944 15.9227 13.944L13.3094 12.6961C14.3556 11.5095 14.9331 9.98199 14.9334 8.4C14.9334 4.79827 12.0027 1.86667 8.40003 1.86667C4.79737 1.86667 1.8667 4.79827 1.8667 8.4C1.8667 12.0017 4.79737 14.9333 8.40003 14.9333C10.0455 14.9333 11.5454 14.3173 12.6962 13.3103L13.944 15.9236C13.944 15.9236 14.2007 16.1327 14.5535 16.4799C14.9147 16.8187 15.3898 17.2769 15.8452 17.7557L17.1127 19.0549L17.6764 19.6579L19.656 17.6783L19.0531 17.1145C18.6994 16.7673 18.2271 16.3063 17.7548 15.8452ZM8.40003 13.0667C5.82683 13.0667 3.73337 10.9732 3.73337 8.4C3.73337 5.8268 5.82683 3.73334 8.40003 3.73334C10.9732 3.73334 13.0667 5.8268 13.0667 8.4C13.0667 10.9732 10.9732 13.0667 8.40003 13.0667Z" fill="#222222"/>
</svg>
