<svg width="15" height="15" viewBox="0 0 15 15" fill="none" xmlns="http://www.w3.org/2000/svg">
<path d="M13.2673 11.7327C12.916 11.3963 12.5741 11.0501 12.242 10.6947C11.963 10.4113 11.795 10.205 11.795 10.205L9.695 9.20225C10.5357 8.24873 10.9998 7.02124 11 5.75C11 2.85575 8.645 0.5 5.75 0.5C2.855 0.5 0.5 2.85575 0.5 5.75C0.5 8.64425 2.855 11 5.75 11C7.07225 11 8.2775 10.505 9.20225 9.69575L10.205 11.7958C10.205 11.7958 10.4113 11.9637 10.6947 12.2428C10.985 12.515 11.3667 12.8833 11.7327 13.268L12.7512 14.312L13.2042 14.7965L14.795 13.2057L14.3105 12.7528C14.0262 12.4738 13.6468 12.1032 13.2673 11.7327ZM5.75 9.5C3.68225 9.5 2 7.81775 2 5.75C2 3.68225 3.68225 2 5.75 2C7.81775 2 9.5 3.68225 9.5 5.75C9.5 7.81775 7.81775 9.5 5.75 9.5Z" fill="#222222"/>
</svg>
