<svg width="27" height="29" viewBox="0 0 27 29" fill="none" xmlns="http://www.w3.org/2000/svg">
<path d="M0.625 14.5C0.625 17.0499 2.70008 19.125 5.25 19.125C6.47408 19.125 7.581 18.6394 8.40887 17.8608L17.645 23.1395C17.6173 23.3399 17.5833 23.5403 17.5833 23.75C17.5833 26.2999 19.6584 28.375 22.2083 28.375C24.7582 28.375 26.8333 26.2999 26.8333 23.75C26.8333 21.2001 24.7582 19.125 22.2083 19.125C20.9842 19.125 19.8773 19.6106 19.0495 20.3892L9.81333 15.112C9.84108 14.9101 9.875 14.7097 9.875 14.5C9.875 14.2903 9.84108 14.0899 9.81333 13.888L19.0495 8.61083C19.8773 9.38938 20.9842 9.875 22.2083 9.875C24.7582 9.875 26.8333 7.79992 26.8333 5.25C26.8333 2.70008 24.7582 0.625 22.2083 0.625C19.6584 0.625 17.5833 2.70008 17.5833 5.25C17.5833 5.45967 17.6173 5.66008 17.645 5.86204L8.40887 11.1392C7.55634 10.3293 6.42588 9.87689 5.25 9.875C2.70008 9.875 0.625 11.9501 0.625 14.5Z" fill="white"/>
</svg>
