<svg width="86" height="24" fill="none" xmlns="http://www.w3.org/2000/svg"><path d="M20 5h-2v8H7.83l2.58-2.59L9 9l-5 5 5 5 1.41-1.41L7.83 15H20V5zm15.494.12h1.908v4.734h5.976V5.12h1.908V17h-1.908v-5.436h-5.976V17h-1.908V5.12zm15.985 2.844c1.092 0 1.968.318 2.628.954.66.636.99 1.548.99 2.736V17h-1.764v-.99a3.179 3.179 0 01-1.206.882c-.48.204-1.02.306-1.62.306-.924 0-1.668-.234-2.232-.702-.564-.468-.846-1.086-.846-1.854s.294-1.38.882-1.836c.588-.456 1.38-.684 2.376-.684h2.502v-.576c0-.612-.168-1.08-.504-1.404-.324-.324-.786-.486-1.386-.486-.492 0-.93.108-1.314.324-.384.216-.762.546-1.134.99l-1.098-1.116c.444-.636.984-1.11 1.62-1.422a4.716 4.716 0 012.106-.468zm-.576 7.776c.636 0 1.176-.198 1.62-.594.444-.396.666-.894.666-1.494v-.162h-2.268c-.504 0-.894.09-1.17.27-.264.18-.396.45-.396.81 0 .372.144.66.432.864.288.204.66.306 1.116.306zm11.864-3.402c.444.216.78.51 1.008.882.24.36.36.762.36 1.206 0 .876-.312 1.56-.936 2.052-.612.48-1.458.72-2.538.72-1.548 0-2.748-.558-3.6-1.674l1.152-1.134c.288.348.618.624.99.828.384.204.84.306 1.368.306.54 0 .954-.108 1.242-.324.3-.228.45-.528.45-.9a.976.976 0 00-.414-.828c-.276-.216-.672-.324-1.188-.324h-1.026v-1.512h.972c.408 0 .72-.09.936-.27.216-.18.324-.426.324-.738 0-.3-.12-.54-.36-.72-.228-.18-.552-.27-.972-.27-.492 0-.906.09-1.242.27a3.044 3.044 0 00-.918.72l-1.152-1.134c.372-.468.846-.84 1.422-1.116.588-.276 1.248-.414 1.98-.414.96 0 1.716.222 2.268.666.552.432.828 1.044.828 1.836 0 .396-.084.756-.252 1.08-.156.312-.39.576-.702.792zm6.976-4.374c1.092 0 1.968.318 2.628.954.66.636.99 1.548.99 2.736V17h-1.764v-.99a3.179 3.179 0 01-1.206.882c-.48.204-1.02.306-1.62.306-.924 0-1.668-.234-2.232-.702-.564-.468-.846-1.086-.846-1.854s.294-1.38.882-1.836c.588-.456 1.38-.684 2.376-.684h2.502v-.576c0-.612-.168-1.08-.504-1.404-.324-.324-.786-.486-1.386-.486-.492 0-.93.108-1.314.324-.384.216-.762.546-1.134.99l-1.098-1.116c.444-.636.984-1.11 1.62-1.422a4.716 4.716 0 012.106-.468zm-.576 7.776c.636 0 1.176-.198 1.62-.594.444-.396.666-.894.666-1.494v-.162h-2.268c-.504 0-.894.09-1.17.27-.264.18-.396.45-.396.81 0 .372.144.66.432.864.288.204.66.306 1.116.306zm15.752-.378v4.176h-1.836V17h-6.498v2.538h-1.854v-4.176h.99c.372-.396.642-.978.81-1.746.168-.78.27-1.812.306-3.096l.072-2.358h6.552v7.2h1.458zm-7.236 0h3.888V9.8h-2.952l-.018.9c-.048 2.136-.354 3.69-.918 4.662z" fill="#909090"/></svg>