<svg width="37" height="30" fill="none" xmlns="http://www.w3.org/2000/svg"><path d="M26.852 20.422H9.526l.87-1.772 14.454-.026c.489 0 .908-.35.995-.832l2.002-11.205a1.011 1.011 0 00-.992-1.19L8.466 5.336l-.158-.739a1.033 1.033 0 00-1.006-.815H2.808a1.027 1.027 0 000 2.054H6.47l.686 3.265 1.69 8.184-2.176 3.553a1.018 1.018 0 00-.087 1.07c.175.347.527.565.917.565h1.827a2.988 2.988 0 002.386 4.78 2.988 2.988 0 002.385-4.78h4.688a2.987 2.987 0 002.386 4.78 2.988 2.988 0 002.385-4.78h3.297c.564 0 1.026-.46 1.026-1.027a1.03 1.03 0 00-1.03-1.024zM8.894 7.36l16.753.055-1.64 9.188-13.16.024L8.894 7.36zm2.82 17.826a.921.921 0 01-.92-.919c0-.506.413-.92.92-.92a.921.921 0 01.65 1.57.92.92 0 01-.65.27zm9.458 0a.921.921 0 01-.92-.919c0-.506.414-.92.92-.92a.921.921 0 01.65 1.57.92.92 0 01-.65.27z" fill="#222"/><ellipse cx="28.069" cy="18.489" rx="8.069" ry="7.464" fill="#F9C801"/></svg>