<svg width="24" height="24" fill="none" xmlns="http://www.w3.org/2000/svg"><path d="M8.798 6.614h12.508l-6.833 5.365a.914.914 0 01-.473.185.93.93 0 01-.477-.184L8.64 8.143a.522.522 0 00-.174-.093c.23-.324.36-.716.354-1.139a2.74 2.74 0 00-.022-.297zM5.616 3.163a.476.476 0 01.098.038c.112.053.288.19.461.379.349.38.697.955.878 1.334a.651.651 0 01.017.036c.513.88.734 1.554.74 1.976.008.425-.106.607-.466.814l-.928.535c-.604.348-.89.972-.96 1.554-.072.582.033 1.147.292 1.595l2.29 3.947c.26.447.703.821 1.245 1.05.542.231 1.227.296 1.832-.051l.928-.534c.36-.206.577-.21.942.007.366.217.841.743 1.352 1.624a.51.51 0 00.023.036c.24.346.565.931.723 1.422.078.244.108.464.098.586-.01.122-.013.11-.045.129l-.706.405c-1.774.77-3.4.595-4.853-.158-1.456-.757-2.721-2.123-3.603-3.728l-.007-.01-1.932-3.33c-.004-.003-.005-.006-.008-.01-.956-1.563-1.513-3.337-1.443-4.969.07-1.63.731-3.116 2.29-4.259l.706-.403c.016-.01.021-.017.036-.015zm.008-.993a1.053 1.053 0 00-.55.136l-.746.43-.048.029C2.483 4.08 1.656 5.91 1.575 7.798c-.08 1.887.549 3.834 1.59 5.536l1.925 3.318-.004-.01c.961 1.747 2.339 3.263 4.022 4.136 1.684.874 3.69 1.077 5.735.186a.387.387 0 00.049-.025l.748-.43c.345-.196.52-.58.548-.913.029-.334-.04-.658-.142-.978-.203-.632-.555-1.246-.846-1.668-.55-.946-1.082-1.603-1.695-1.97a1.934 1.934 0 00-1.968-.016l-.928.535c-.274.158-.594.14-.932-.003-.335-.142-.646-.428-.762-.628l-2.29-3.947c-.116-.201-.21-.612-.166-.973.043-.36.19-.643.464-.801l.901-.519c.024.121.092.23.191.304L12.9 12.77c.317.25.694.389 1.072.41a.29.29 0 00.059 0c.379-.021.753-.16 1.071-.41l6.726-5.284v8.73c0 .132-.151.307-.448.307h-4.657a.504.504 0 100 1.006h4.657c.76 0 1.46-.55 1.46-1.314V6.921c0-.764-.7-1.314-1.46-1.314H8.52a8.961 8.961 0 00-.567-1.143c-.221-.461-.58-1.071-1.03-1.562-.228-.248-.473-.468-.78-.61a1.297 1.297 0 00-.52-.122z" fill="#000"/></svg>