<svg width="24" height="24" fill="none" xmlns="http://www.w3.org/2000/svg"><g clip-path="url(#clip0)" fill="#fff"><path d="M18.677 23.994c-.974 0-2.102-.308-3.398-.923-1.446-.686-2.143-.662-2.604-.64-.371.011-.758.029-1.14-.353-.134-.134-.743-.864.454-2.061.597-.597 1.416-.769 2.127-.779L9.97 15.092a1.441 1.441 0 01-.426-1.03c.001-.389.153-.754.429-1.029a1.456 1.456 0 011.03-.429h.002c.388 0 .753.151 1.028.427l1.722 1.723a1.43 1.43 0 01.273-.376 1.452 1.452 0 011.462-.362 1.457 1.457 0 012.324-.618 1.458 1.458 0 012.334-.383l2.7 2.7c1.695 1.694 1.506 4.15-.461 6.118l-.013.013-1.117 1.116c-.696.688-1.552 1.032-2.58 1.032zm-5.731-2.569c.546 0 1.385.09 2.762.742 2.985 1.417 4.195.729 4.847.086l1.126-1.126.01-.01c1.192-1.206 2.009-3.137.459-4.687l-2.708-2.708a.458.458 0 00-.65.648l.001.001.675.675a.498.498 0 010 .708.5.5 0 01-.707 0l-1.575-1.575a.458.458 0 00-.646.003.457.457 0 00-.002.646l1.125 1.125a.498.498 0 010 .708.5.5 0 01-.707 0l-1.575-1.575a.458.458 0 00-.649.648l1.125 1.125a.498.498 0 010 .708.5.5 0 01-.707 0l-3.825-3.824a.452.452 0 00-.645.002.45.45 0 00-.003.645l5.175 5.175a.498.498 0 01.076.608.504.504 0 01-.571.225c-.019-.005-1.81-.519-2.662.331-.387.388-.444.626-.434.679.042.029.052.04.374.027.093-.006.196-.01.311-.01zm5.498-8.053h.01-.01zM18.5 8h-15C1.57 8 0 6.43 0 4.5S1.57 1 3.5 1h15C20.43 1 22 2.57 22 4.5S20.43 8 18.5 8zm-15-6A2.503 2.503 0 001 4.5C1 5.879 2.122 7 3.5 7h15C19.878 7 21 5.879 21 4.5S19.878 2 18.5 2h-15z"/><path d="M4.5 6C3.673 6 3 5.327 3 4.5S3.673 3 4.5 3 6 3.673 6 4.5 5.327 6 4.5 6zm0-2a.5.5 0 10.002 1.002A.5.5 0 004.5 4zm5 2C8.673 6 8 5.327 8 4.5S8.673 3 9.5 3s1.5.673 1.5 1.5S10.327 6 9.5 6zm0-2a.5.5 0 10.002 1.002A.5.5 0 009.5 4zm-2 10h-4C1.57 14 0 12.43 0 10.5c0-.934.364-1.812 1.026-2.474A3.477 3.477 0 013.5 7h15c1.93 0 3.5 1.57 3.5 3.5a.5.5 0 01-1 0C21 9.121 19.878 8 18.5 8h-15a2.49 2.49 0 00-1.767.733A2.478 2.478 0 001 10.5C1 11.879 2.122 13 3.5 13h4a.5.5 0 010 1z"/><path d="M4.5 12c-.827 0-1.5-.673-1.5-1.5S3.673 9 4.5 9 6 9.673 6 10.5 5.327 12 4.5 12zm0-2a.5.5 0 10.002 1.002A.5.5 0 004.5 10zm5 2c-.827 0-1.5-.673-1.5-1.5S8.673 9 9.5 9s1.5.673 1.5 1.5-.673 1.5-1.5 1.5zm0-2a.5.5 0 10.002 1.002A.5.5 0 009.5 10zm0 10h-6C1.57 20 0 18.43 0 16.5c0-.934.364-1.812 1.026-2.474A3.477 3.477 0 013.5 13h4a.5.5 0 010 1h-4a2.49 2.49 0 00-1.767.733A2.478 2.478 0 001 16.5C1 17.879 2.122 19 3.5 19h6a.5.5 0 010 1z"/><path d="M4.5 18c-.827 0-1.5-.673-1.5-1.5S3.673 15 4.5 15s1.5.673 1.5 1.5S5.327 18 4.5 18zm0-2a.5.5 0 10.002 1.002A.5.5 0 004.5 16z"/></g><defs><clipPath id="clip0"><path fill="#fff" d="M0 0h24v24H0z"/></clipPath></defs></svg>