<svg width="220" height="34" fill="none" xmlns="http://www.w3.org/2000/svg"><g opacity=".95"><path d="M105.985 29.997c-.524 0-1.078-.116-1.456-.407-.233-.203-.554-.61-.554-1.277V14.46h2.942v12.37c0 .175-.029.465.204.669.087.058.262.174.728.174h8.563v2.323h-10.427z" fill="#fff"/><path d="M121.188 16.026c.553-1.307 1.165-1.743 2.563-1.743 1.34 0 2.01.436 2.563 1.743l5.883 13.967h-3.087l-1.602-3.92h-7.514l-1.573 3.92h-3.087l5.854-13.967zm-.437 7.956h6l-2.534-6.33c-.087-.233-.233-.64-.437-.64s-.349.436-.437.64l-2.592 6.33zm21.93-9.521c.844 0 2.009.088 2.825.93.874.9.99 2.323.99 3.339 0 .842-.058 1.713-.728 2.526-.437.523-.903.755-1.456.813v.088c.728.058 1.34.406 1.718.813.728.813.728 1.916.728 2.787 0 1.016 0 2.265-.903 3.252-.902.988-1.893.988-2.854.988h-7.456c-.786 0-1.485.087-2.126-.61-.145-.174-.524-.697-.524-1.568V16.697c0-.58.146-1.19.495-1.597.466-.551 1.165-.639 1.66-.639h7.631zm-6.874 6.505h5.709c.582 0 1.194 0 1.602-.552.116-.145.32-.523.32-1.568 0-.435-.029-1.19-.524-1.655-.437-.406-.961-.406-1.456-.406h-4.806c-.233 0-.495-.03-.67.174-.175.203-.204.522-.204.697l.029 3.31zm0 5.546c0 .523.059.784.175.9.233.262.728.233.961.233h4.631c.466 0 1.282-.03 1.718-.552.321-.407.408-1.074.408-1.568 0-.436-.058-1.162-.32-1.568-.175-.232-.612-.639-1.573-.639h-5.971l-.029 3.194zm12.669 1.162h8.65c1.398 0 1.456-1.162 1.456-1.684 0-.61-.146-1.336-1.515-1.743l-6.145-1.945c-.233-.058-1.223-.407-1.835-1.162-.699-.842-.815-2.062-.815-2.933 0-.929.116-2.061.99-2.874.816-.755 1.806-.872 2.563-.872h8.97v2.324h-7.951c-.407 0-.873.029-1.223.348-.378.348-.408.9-.408 1.19 0 .697.204 1.365 1.457 1.743l5.708 1.8c1.049.32 1.748.668 2.214 1.104.932.9 1.019 2.265 1.019 2.99 0 .988-.146 2.062-.786 2.875-.787.988-1.748 1.104-2.796 1.104h-9.553v-2.265zm19.019-11.65c.554-1.306 1.165-1.742 2.563-1.742 1.34 0 2.01.436 2.563 1.742l5.883 13.968h-3.087l-1.602-3.92h-7.514l-1.573 3.92h-3.087l5.854-13.968zm-.437 7.957h6l-2.534-6.33c-.087-.233-.233-.64-.437-.64s-.349.436-.437.64l-2.592 6.33zm14.126 6.016c-.525 0-1.078-.116-1.457-.407-.233-.203-.553-.61-.553-1.277V14.46h2.942v12.37c0 .175-.029.465.204.669.087.058.262.174.728.174h8.562v2.323h-10.426zm13.688 0c-.67 0-1.282 0-1.777-.494-.524-.523-.582-1.22-.582-1.83V16.669c0-.61.204-1.249.524-1.626.524-.552 1.282-.61 1.864-.61h9.99v2.323h-8.417c-.262 0-.583.03-.816.233-.233.232-.233.522-.233.755v3.136h9.262v2.323h-9.233v3.63c0 .232.088.493.233.61.175.173.525.202.991.202h8.329v2.324h-10.135v.029zm11.68-2.323h8.621c1.398 0 1.456-1.162 1.456-1.684 0-.61-.146-1.336-1.514-1.743l-6.146-1.945c-.233-.058-1.223-.407-1.835-1.162-.699-.842-.815-2.062-.815-2.933 0-.929.116-2.061.99-2.874.816-.755 1.806-.872 2.563-.872h8.971v2.324h-7.981c-.407 0-.873.029-1.223.348-.378.348-.408.9-.408 1.19 0 .697.204 1.365 1.457 1.743l5.708 1.8c1.049.32 1.748.668 2.214 1.104.932.9 1.019 2.265 1.019 2.99 0 .988-.146 2.062-.786 2.875-.787.988-1.748 1.104-2.796 1.104h-9.582v-2.265h.087zm-108.634-14.2L92.792 1.162c-.175-.407-.32-.697-.495-.843C92.093.116 91.8 0 91.452 0c-.35 0-.64.116-.845.32-.174.145-.32.435-.495.842l-5.126 12.34v14.23c0 .754.146 1.277.466 1.625.32.349.787.494 1.398.494h9.233c.611 0 1.077-.174 1.398-.494.32-.348.466-.87.466-1.626l-.03-14.257zm-1.253 0v2.207a1.809 1.809 0 00-.699-.233 1.607 1.607 0 00-1.165.29l-2.388-2.497c.087-.174.146-.348.175-.522a1.676 1.676 0 00-1.456-1.888 1.68 1.68 0 00-1.894 1.452 1.778 1.778 0 00.525 1.452l-1.078 2.236c-.058 0-.116-.03-.175-.03a1.78 1.78 0 00-.786.088l-1.369-2.817 4.69-11.818c.116-.29.261-.436.407-.436.146 0 .262.145.408.436l4.805 12.08z" fill="#fff"/><path d="M96.665 18.528v9.292c0 .348-.058.58-.174.697-.117.116-.35.174-.67.174h-8.738c-.32 0-.553-.058-.67-.174-.116-.116-.174-.349-.174-.697V14.927l.757 1.568c-.204.232-.32.523-.379.871a1.676 1.676 0 001.457 1.888 1.68 1.68 0 001.893-1.452 1.757 1.757 0 00-.495-1.423l1.077-2.236c.058 0 .117.029.175.029.408.058.816-.058 1.136-.261l2.417 2.497c-.087.145-.116.32-.145.494a1.677 1.677 0 001.456 1.887 1.75 1.75 0 001.077-.261z" fill="#EA524E"/></g><path opacity=".95" d="M5.474 27.154c-.877 0-1.685-.21-2.422-.63a4.695 4.695 0 01-1.75-1.722 4.76 4.76 0 01-.63-2.422c0-.887.21-1.694.63-2.422a4.695 4.695 0 011.75-1.722 4.809 4.809 0 012.422-.63c.821 0 1.568.182 2.24.546a4.185 4.185 0 011.596 1.442l-.812.644a3.765 3.765 0 00-1.302-1.19 3.369 3.369 0 00-1.708-.434c-.69 0-1.316.163-1.876.49-.56.327-1.003.78-1.33 1.358a3.878 3.878 0 00-.476 1.918c0 .71.159 1.353.476 1.932.327.57.77 1.017 1.33 1.344a3.65 3.65 0 001.876.49c.635 0 1.204-.14 1.708-.42.513-.29.947-.69 1.302-1.204l.812.644c-.383.607-.915 1.092-1.596 1.456-.672.355-1.419.532-2.24.532zm12.122-1.106v2.926h-1.078V27h-5.362v1.974h-1.078v-2.926h.77c.317-.327.541-.807.672-1.442.13-.644.205-1.48.224-2.506l.042-1.918h4.704v5.866h1.106zm-4.83-3.934c-.019.952-.098 1.769-.238 2.45-.14.672-.322 1.167-.546 1.484h3.43v-4.9h-2.604l-.042.966zm12.409 1.806h-5.39c.065.672.331 1.213.798 1.624.466.41 1.036.616 1.708.616.774 0 1.47-.308 2.086-.924l.63.728a3.977 3.977 0 01-1.232.882 3.615 3.615 0 01-1.498.308 3.692 3.692 0 01-1.834-.462 3.505 3.505 0 01-1.778-3.094c0-.653.154-1.25.462-1.792.308-.55.728-.985 1.26-1.302a3.38 3.38 0 011.764-.476c.579 0 1.106.13 1.582.392.476.261.85.625 1.12 1.092.27.467.406.999.406 1.596 0 .261-.028.532-.084.812zm-3.052-2.912c-.57 0-1.064.182-1.484.546-.42.355-.69.826-.812 1.414h4.326c-.01-.607-.21-1.083-.602-1.428-.383-.355-.859-.532-1.428-.532zm10.182-.826V27h-1.078v-5.852h-2.534l-.028.84c-.037 1.195-.126 2.156-.266 2.884-.14.728-.364 1.274-.672 1.638-.308.364-.728.546-1.26.546-.13 0-.252-.019-.364-.056v-.91c.112.019.205.028.28.028.439 0 .751-.34.938-1.022.187-.69.294-1.736.322-3.136l.042-1.778h4.62zm4.831-.154c.803 0 1.447.238 1.932.714.485.476.728 1.162.728 2.058V27h-1.008v-.882a2.446 2.446 0 01-.966.77 3.193 3.193 0 01-1.33.266c-.7 0-1.274-.173-1.722-.518-.439-.345-.658-.812-.658-1.4 0-.579.224-1.04.672-1.386.448-.345 1.04-.518 1.778-.518h2.156v-.588c0-.56-.15-.985-.448-1.274-.29-.299-.69-.448-1.204-.448-.41 0-.775.093-1.092.28-.317.177-.616.448-.896.812l-.714-.588a2.912 2.912 0 011.19-1.12 3.382 3.382 0 011.582-.378zm-.504 6.23c.373 0 .719-.08 1.036-.238a1.99 1.99 0 00.756-.686c.196-.29.294-.607.294-.952v-.168h-2.03c-.476 0-.84.084-1.092.252-.252.159-.378.397-.378.714 0 .345.135.611.406.798.27.187.607.28 1.008.28zm5.45-6.076h1.079v2.716h3.346v-2.716h1.078V27h-1.078v-3.15H43.16V27h-1.078v-6.818zM53.01 27.14c-.653 0-1.25-.159-1.792-.476a3.528 3.528 0 01-1.764-3.08c0-.653.159-1.25.476-1.792.317-.55.747-.98 1.288-1.288a3.554 3.554 0 011.806-.476c.653 0 1.25.159 1.792.476a3.518 3.518 0 011.778 3.08c0 .644-.159 1.241-.476 1.792a3.52 3.52 0 01-1.302 1.288 3.554 3.554 0 01-1.806.476zm0-.994c.457 0 .873-.112 1.246-.336.383-.224.681-.527.896-.91.224-.392.336-.826.336-1.302 0-.485-.107-.924-.322-1.316a2.369 2.369 0 00-.896-.924 2.375 2.375 0 00-1.246-.336 2.4 2.4 0 00-1.26.336 2.4 2.4 0 00-.882.924c-.215.392-.322.83-.322 1.316 0 .476.107.91.322 1.302.215.383.509.686.882.91.373.224.789.336 1.246.336zm13.7-2.842c.402.14.715.35.939.63.233.28.35.616.35 1.008 0 .607-.22 1.101-.658 1.484-.439.383-1.027.574-1.764.574h-3.164v-6.818h2.814c.672 0 1.204.163 1.596.49.401.327.602.765.602 1.316 0 .27-.066.523-.196.756-.122.224-.294.41-.518.56zm-3.22-.336h1.75c.374 0 .654-.08.84-.238.187-.168.28-.397.28-.686 0-.597-.373-.896-1.12-.896h-1.75v1.82zm2.017 3.08c.448 0 .793-.103 1.036-.308a.982.982 0 00.378-.798.856.856 0 00-.378-.742c-.243-.187-.588-.28-1.036-.28H63.49v2.128h2.016z" fill="#fff"/></svg>