<svg width="16" height="16" fill="none" xmlns="http://www.w3.org/2000/svg"><path d="M14.648 13.05H1.35a.92.92 0 01-.918-.92V3.624a.92.92 0 01.918-.919h13.298a.92.92 0 01.919.919v8.508a.92.92 0 01-.919.918zM1.35 3.136a.487.487 0 00-.486.486v8.508a.487.487 0 00.486.486h13.298a.487.487 0 00.486-.486V3.623a.486.486 0 00-.486-.486H1.35z" fill="#005176"/><path d="M8.001 8.461a.995.995 0 01-.599-.199L.764 3.265a.216.216 0 11.26-.346l6.638 4.997a.566.566 0 00.677 0l6.639-4.997a.216.216 0 01.26.346l-6.64 4.997A.995.995 0 018 8.461z" fill="#005176"/><path d="M.796 12.777a.216.216 0 01-.14-.381L6.62 7.343a.216.216 0 11.28.33L.935 12.726a.215.215 0 01-.14.05zm14.407 0a.215.215 0 01-.14-.051L9.1 7.673a.216.216 0 01.28-.33l5.963 5.053a.216.216 0 01-.14.38z" fill="#005176"/></svg>