<svg width="24" height="24" fill="none" xmlns="http://www.w3.org/2000/svg"><path d="M20.379 10.716h-.207v-1.32c0-1.025.406-2.005.946-2.61a4.389 4.389 0 001.117-2.928c0-1.5-.78-2.93-2.035-3.731a.807.807 0 00-1.238.682v2.77a1.124 1.124 0 01-2.247 0V.81a.807.807 0 00-1.238-.682 4.459 4.459 0 00-2.035 3.731c0 1.082.397 2.123 1.117 2.929.463.519.85 1.353.93 2.244-.973.088-1.828.525-2.383 1.23l-.6.762c-.3.381-.75.6-1.236.6h-.533a1.373 1.373 0 00-1.37-1.334c-.635 0-1.17.432-1.326 1.018H2.896c-.624 0-1.131.507-1.131 1.13v5.914c0 .623.507 1.13 1.13 1.13h5.26a1.37 1.37 0 002.563-.409h1.341c.2 0 .397.038.583.112 1.054.384 1.575.735 2.864.962v1.521A2.336 2.336 0 0017.839 24a2.336 2.336 0 002.333-2.333v-2.034c.17-.256.253-.558.238-.873a1.432 1.432 0 00-.278-.779 1.41 1.41 0 00.922-1.313 1.54 1.54 0 00-.417-1.076c.374-.256.627-.675.643-1.148a1.456 1.456 0 00-.302-.935c.508-.23.863-.74.863-1.332 0-.805-.656-1.46-1.462-1.46zM10.035 18.84a.67.67 0 01-1.338 0v-.857a.352.352 0 10-.703 0v.796H2.896a.428.428 0 01-.428-.428v-5.913c0-.236.192-.428.428-.428h5.098v4.328a.352.352 0 10.703 0V11.66a.67.67 0 011.338 0v7.18zm5.049-12.522a3.687 3.687 0 01-.94-2.46A3.75 3.75 0 0115.856.72c.068-.044.157.008.157.09v2.77a1.83 1.83 0 001.827 1.826c1.007 0 1.826-.82 1.826-1.827V.81c0-.08.089-.133.157-.09a3.75 3.75 0 011.71 3.139c0 .91-.333 1.783-.939 2.46-.65.729-1.125 1.874-1.125 3.079v1.319h-.616V9.99a.352.352 0 10-.703 0v.725h-.621v-2.62a.311.311 0 01.621 0v.25a.352.352 0 00.703 0v-.25a1.015 1.015 0 00-2.027 0v2.619h-.258c-.22 0-.359-.172-.359-.385 0-.833.158-2.574-1.124-4.01zm4.384 15.349a1.63 1.63 0 01-3.26 0V20.24c.205.018.41.03.617.033v1.291a1.015 1.015 0 002.027 0V20.29c.041-.003.307.023.616-.093v1.47zm-1.94-.103v-1.285l.621.005v1.28a.31.31 0 01-.621 0zm2.85-8.63h-.433a.352.352 0 00-.351.352v.007c0 .179.134.33.312.35a.76.76 0 01.67.778c-.013.403-.365.73-.785.73h-.15a.353.353 0 00-.014.705c.42.016.724.357.724.811a.717.717 0 01-.728.702h-.236a.4.4 0 00-.154.767c.28.117.462.369.475.657a.757.757 0 01-.754.794c-1.898-.028-2.268.02-3.055-.09l-.007-.001c-1.372-.193-2.022-.62-2.99-.965a2.267 2.267 0 00-.843-.162h-1.32v-6.043h.53c.703 0 1.355-.317 1.79-.868l.6-.762c.425-.54 1.086-.88 1.846-.96v.593c0 .602.453 1.088 1.062 1.088l3.253.002h.558c.42 0 .76.34.76.758a.76.76 0 01-.76.757z" fill="#000"/></svg>