<svg width="30" height="30" fill="none" xmlns="http://www.w3.org/2000/svg"><path d="M22.594 1.942L27.81 7.38v20.677H8.324v.068h19.553V7.448l-5.283-5.506z" fill="#909090"/><path d="M22.53 1.875H8.257v26.183H27.81V7.38l-5.282-5.506" fill="#F4F4F4"/><path d="M8.114 3.281H2.123v6.4h18.844v-6.4H8.114z" fill="#7A7B7C"/><path d="M21.068 9.573H2.246V3.168h18.822v6.405z" fill="#DD2025"/><path d="M8.487 4.25H7.262v4.5h.963V7.234l.213.012c.207-.004.412-.04.607-.11.17-.058.328-.151.462-.273a1.14 1.14 0 00.314-.425 2 2 0 00.099-.851 2.097 2.097 0 00-.107-.604 1.1 1.1 0 00-.644-.61 2.014 2.014 0 00-.683-.121h.001zm-.178 2.151h-.084V5.014h.181a.534.534 0 01.43.17c.114.15.174.334.172.523 0 .23 0 .44-.208.586a.883.883 0 01-.491.107m3.439-2.162c-.103 0-.205.008-.276.01l-.223.006h-.731v4.5h.86a2.51 2.51 0 00.964-.164c.247-.098.466-.256.637-.46.167-.206.286-.445.35-.702.074-.29.11-.59.107-.89a4.14 4.14 0 00-.082-1.056 1.667 1.667 0 00-.876-1.063 2.263 2.263 0 00-.515-.167 1.202 1.202 0 00-.213-.015l-.002.001zm-.17 3.69h-.093V5.054h.012a.996.996 0 01.563.1 1.198 1.198 0 01.437.868c.008.207 0 .375 0 .515.004.161-.007.322-.031.481a1.647 1.647 0 01-.159.469 1.06 1.06 0 01-.34.337.631.631 0 01-.39.1m4.763-3.67h-2.277v4.5h.963V6.97h1.219v-.836h-1.219V5.091h1.313v-.837" fill="#464648"/><path d="M20.42 18.99s2.988-.543 2.988.478-1.851.606-2.988-.479zm-2.21.077a7.068 7.068 0 00-1.381.458l.375-.843c.375-.844.764-1.994.764-1.994.448.753.968 1.46 1.555 2.11-.443.067-.88.157-1.313.27v-.001zm-1.183-6.094c0-.89.288-1.132.512-1.132.224 0 .476.107.484.88a10.115 10.115 0 01-.484 2.282 4.15 4.15 0 01-.513-2.027v-.003zm-4.359 9.859c-.916-.549 1.923-2.237 2.438-2.291-.003 0-1.478 2.865-2.438 2.29zm11.613-3.243c-.01-.094-.093-1.131-1.94-1.087-.77-.013-1.54.041-2.3.162a11.761 11.761 0 01-1.886-2.49c.324-.937.52-1.915.584-2.906-.027-1.125-.297-1.77-1.159-1.76-.862.01-.988.764-.875 1.887.111.755.321 1.492.624 2.192 0 0-.399 1.24-.926 2.474-.526 1.234-.886 1.88-.886 1.88a9.017 9.017 0 00-2.555 1.313c-.773.72-1.087 1.271-.68 1.823.35.477 1.578.585 2.675-.853a21.136 21.136 0 001.594-2.336s1.672-.458 2.192-.584c.52-.126 1.15-.225 1.15-.225s1.527 1.537 3 1.482c1.473-.054 1.401-.88 1.392-.97" fill="#DD2025"/><path d="M22.457 1.947v5.506h5.281l-5.281-5.506z" fill="#909090"/><path d="M22.53 1.875v5.506h5.28l-5.28-5.506z" fill="#F4F4F4"/><path d="M8.415 4.178H7.189v4.5h.968V7.162l.214.012c.206-.004.411-.04.606-.11.171-.059.328-.152.462-.273a1.15 1.15 0 00.312-.425c.094-.274.127-.564.098-.852a2.097 2.097 0 00-.107-.603 1.1 1.1 0 00-.644-.61 2.015 2.015 0 00-.684-.123zM8.237 6.33h-.084V4.942h.182a.534.534 0 01.43.17.86.86 0 01.172.522c0 .231 0 .44-.208.587a.883.883 0 01-.491.107m3.439-2.162c-.104 0-.205.008-.276.01l-.22.006h-.732v4.5h.86a2.51 2.51 0 00.965-.164c.247-.098.466-.256.637-.46.166-.206.286-.446.35-.702.073-.291.11-.59.107-.89.018-.354-.01-.71-.082-1.057a1.666 1.666 0 00-.877-1.062 2.26 2.26 0 00-.514-.167 1.2 1.2 0 00-.214-.016l-.004.002zm-.166 3.69h-.094V4.982h.012a.996.996 0 01.562.1 1.212 1.212 0 01.437.868c.009.207 0 .375 0 .515.004.16-.006.322-.03.48a1.647 1.647 0 01-.16.47 1.06 1.06 0 01-.34.337.63.63 0 01-.39.1m4.76-3.67H13.99v4.5h.964V6.897h1.219v-.836h-1.219V5.018h1.313v-.836" fill="#fff"/></svg>