<svg width="24" height="24" fill="none" xmlns="http://www.w3.org/2000/svg"><path d="M17.359 13.125a.75.75 0 01.75.75h.75a1.5 1.5 0 00-1.5-1.5h-.109v-.911h-.75v.911h-.109a1.5 1.5 0 100 3h.109v1.5h-.109a.75.75 0 01-.75-.75h-.75a1.5 1.5 0 001.5 1.5h.109v.911h.75v-.911h.109a1.5 1.5 0 100-3h-.109v-1.5h.109zm0 2.25a.75.75 0 110 1.5h-.109v-1.5h.109zm-.859-.75h-.109a.75.75 0 110-1.5h.109v1.5z" fill="#000"/><path d="M19.125 1.08a5.077 5.077 0 01-1.102 2.396 1.875 1.875 0 00-1.335-.566 1.875 1.875 0 00-.844.21l-3.274.06a3.338 3.338 0 00-2.325.986l-8.426 8.426a1.875 1.875 0 000 2.652l2.306 2.31c.131.474.444.879.87 1.125l6.169 3.562c.254.151.54.24.836.259.323.246.719.378 1.125.375h7.125A1.875 1.875 0 0022.125 21V9.086a3.375 3.375 0 00-.945-2.336l-2.625-2.723a5.722 5.722 0 001.32-2.857l-.75-.09zM2.348 13.125l8.426-8.43a2.625 2.625 0 011.807-.75l.87-.019-1.189.341a3.38 3.38 0 00-1.987 1.557L4.316 16.125a1.931 1.931 0 00-.165.375l-1.803-1.789a1.125 1.125 0 010-1.586zm3.03 4.913a1.124 1.124 0 01-.413-1.538l5.959-10.316a2.625 2.625 0 011.545-1.212l1.98-.566-2.25 2.336a3.375 3.375 0 00-.949 2.344V21c.001.159.024.316.068.469l-5.94-3.431zm15.997-8.952V21a1.125 1.125 0 01-1.125 1.125h-7.125A1.125 1.125 0 0112 21V9.086a2.625 2.625 0 01.75-1.822l3.143-3.259a1.125 1.125 0 011.597-.023 3.19 3.19 0 01-.3.2.75.75 0 10.247.72c.204-.11.398-.235.582-.376l2.625 2.734c.471.49.733 1.146.731 1.826z" fill="#000"/></svg>