<svg width="24" height="24" fill="none" xmlns="http://www.w3.org/2000/svg"><g clip-path="url(#clip0)" fill="#fff"><path d="M22.404 12.31a.704.704 0 010-.62l.895-1.832a2.083 2.083 0 00-.899-2.767l-1.8-.955a.703.703 0 01-.366-.503l-.352-2.008a2.084 2.084 0 00-2.353-1.71l-2.018.286a.703.703 0 01-.591-.192L13.454.592a2.083 2.083 0 00-2.91 0L9.082 2.009a.704.704 0 01-.592.192l-2.018-.285a2.083 2.083 0 00-2.353 1.71l-.352 2.007a.703.703 0 01-.366.503l-1.8.955a2.083 2.083 0 00-.9 2.767l.896 1.831a.703.703 0 010 .622L.7 14.142a2.083 2.083 0 00.9 2.768l1.8.955a.703.703 0 01.366.503l.352 2.008a2.082 2.082 0 002.353 1.71l2.018-.286a.71.71 0 01.592.192l1.465 1.417a2.085 2.085 0 002.909 0l1.464-1.417a.704.704 0 01.592-.192l2.018.285a2.083 2.083 0 002.353-1.71l.352-2.007a.704.704 0 01.366-.503l1.8-.955a2.084 2.084 0 00.9-2.767l-.896-1.831zm-.652 3.376l-1.801.955a2.08 2.08 0 00-1.08 1.487l-.352 2.007a.705.705 0 01-.796.579l-2.018-.286a2.078 2.078 0 00-1.748.568l-1.465 1.417a.705.705 0 01-.984 0l-1.465-1.417a2.077 2.077 0 00-1.748-.568l-2.018.286a.705.705 0 01-.796-.579l-.352-2.007a2.079 2.079 0 00-1.08-1.487l-1.8-.955a.705.705 0 01-.305-.936l.895-1.831a2.079 2.079 0 000-1.838l-.895-1.83a.705.705 0 01.304-.937l1.8-.955a2.079 2.079 0 001.08-1.487l.353-2.007a.705.705 0 01.796-.579l2.018.286a2.079 2.079 0 001.748-.568l1.465-1.417a.705.705 0 01.984 0l1.465 1.417a2.079 2.079 0 001.747.568l2.019-.286c.38-.054.73.2.796.579l.352 2.007a2.08 2.08 0 001.08 1.487l1.8.955c.34.18.473.591.305.936l-.896 1.831a2.079 2.079 0 000 1.838l.896 1.83a.705.705 0 01-.305.937z"/><path d="M17.057 6.943a.692.692 0 00-.979 0l-9.135 9.135a.692.692 0 00.979.98l9.135-9.136a.692.692 0 000-.98zM9.232 5.771a2.54 2.54 0 00-2.538 2.538 2.54 2.54 0 002.538 2.538 2.54 2.54 0 002.537-2.538A2.54 2.54 0 009.232 5.77zm0 3.691A1.155 1.155 0 018.078 8.31a1.155 1.155 0 012.307 0c0 .636-.517 1.153-1.153 1.153zm5.536 3.691a2.54 2.54 0 00-2.537 2.538 2.54 2.54 0 002.537 2.538 2.54 2.54 0 002.538-2.538 2.54 2.54 0 00-2.538-2.538zm0 3.692a1.155 1.155 0 111.154-1.153c0 .635-.518 1.153-1.154 1.153z"/></g><defs><clipPath id="clip0"><path fill="#fff" d="M0 0h24v24H0z"/></clipPath></defs></svg>