<svg width="15" height="15" fill="none" xmlns="http://www.w3.org/2000/svg"><path d="M13.267 11.733a26.274 26.274 0 01-1.025-1.038c-.279-.284-.447-.49-.447-.49l-2.1-1.003A5.221 5.221 0 0011 5.75 5.256 5.256 0 005.75.5 5.256 5.256 0 00.5 5.75 5.256 5.256 0 005.75 11a5.225 5.225 0 003.452-1.304l1.003 2.1s.206.168.49.447c.29.272.672.64 1.038 1.025l1.018 1.044.453.485 1.591-1.591-.485-.453c-.284-.28-.663-.65-1.043-1.02zM5.75 9.5A3.754 3.754 0 012 5.75 3.754 3.754 0 015.75 2 3.754 3.754 0 019.5 5.75 3.754 3.754 0 015.75 9.5z" fill="#222"/></svg>