<svg width="23" height="23" fill="none" xmlns="http://www.w3.org/2000/svg"><path d="M17.755 15.845a32.39 32.39 0 01-1.276-1.292c-.347-.352-.556-.609-.556-.609l-2.614-1.248A6.498 6.498 0 0014.933 8.4 6.541 6.541 0 008.4 1.867 6.541 6.541 0 001.867 8.4 6.541 6.541 0 008.4 14.933a6.503 6.503 0 004.296-1.623l1.248 2.614s.257.209.61.556c.36.339.836.797 1.291 1.276l1.268 1.299.563.603 1.98-1.98-.603-.564-1.298-1.269zM8.4 13.067A4.672 4.672 0 013.733 8.4 4.672 4.672 0 018.4 3.733 4.672 4.672 0 0113.067 8.4 4.672 4.672 0 018.4 13.067z" fill="#222"/></svg>