<svg width="27" height="29" fill="none" xmlns="http://www.w3.org/2000/svg"><path d="M.625 14.5a4.63 4.63 0 004.625 4.625 4.597 4.597 0 003.159-1.264l9.236 5.279c-.028.2-.062.4-.062.61a4.63 4.63 0 004.625 4.625 4.63 4.63 0 004.625-4.625 4.63 4.63 0 00-4.625-4.625 4.597 4.597 0 00-3.159 1.264l-9.236-5.277c.028-.202.062-.402.062-.612 0-.21-.034-.41-.062-.612l9.236-5.277a4.597 4.597 0 003.16 1.264 4.63 4.63 0 004.624-4.625A4.63 4.63 0 0022.208.625a4.63 4.63 0 00-4.625 4.625c0 .21.034.41.062.612l-9.236 5.277A4.597 4.597 0 005.25 9.875 4.63 4.63 0 00.625 14.5z" fill="#fff"/></svg>