<svg width="16" height="16" fill="none" xmlns="http://www.w3.org/2000/svg"><path d="M3.242 10.636a17.028 17.028 0 005.668 4.422c.828.392 1.937.856 3.171.935.077.004.15.007.227.007.828 0 1.494-.285 2.036-.872a.063.063 0 00.014-.017c.193-.232.412-.44.642-.663a15.4 15.4 0 00.47-.464c.708-.736.708-1.67-.008-2.383l-2-1.993c-.339-.351-.745-.537-1.171-.537-.426 0-.835.186-1.185.534L9.915 10.79a7 7 0 00-.33-.172 4.124 4.124 0 01-.366-.199C8.134 9.734 7.15 8.84 6.208 7.688c-.476-.6-.796-1.104-1.019-1.618.313-.281.606-.576.889-.865.1-.103.203-.205.306-.308.36-.358.552-.773.552-1.194 0-.42-.19-.835-.552-1.193l-.992-.988c-.116-.116-.226-.229-.34-.345a17.615 17.615 0 00-.675-.666C4.034.176 3.632 0 3.206 0c-.423 0-.829.176-1.185.514L.776 1.754c-.452.45-.709.998-.762 1.631-.063.792.083 1.634.463 2.652.582 1.575 1.46 3.037 2.765 4.599zM.826 3.455c.04-.441.21-.81.53-1.128l1.237-1.233C2.786.908 3 .812 3.206.812c.203 0 .41.096.599.289.223.205.432.42.659.65l.346.351.992.988c.206.205.312.414.312.62 0 .205-.106.414-.312.62-.104.103-.207.209-.31.312-.31.311-.599.606-.918.888l-.017.017c-.276.275-.233.537-.167.736l.01.026c.257.614.613 1.197 1.169 1.893.998 1.227 2.05 2.178 3.208 2.911.143.093.296.166.439.239.133.066.256.13.366.199l.037.02a.7.7 0 00.322.082c.267 0 .44-.168.496-.225l1.245-1.24c.193-.192.403-.295.609-.295.253 0 .46.156.589.295l2.007 1.996c.4.398.396.829-.01 1.25a9.7 9.7 0 01-.443.44c-.233.226-.476.458-.695.72-.383.411-.839.604-1.428.604-.057 0-.117-.004-.173-.007-1.092-.07-2.107-.494-2.869-.855a16.178 16.178 0 01-5.394-4.21c-1.242-1.49-2.077-2.875-2.63-4.36C.904 4.853.774 4.12.827 3.454z" fill="#005176"/></svg>