<svg width="24" height="24" fill="none" xmlns="http://www.w3.org/2000/svg"><path d="M23.316 18.853l-5.42-4.928a1.335 1.335 0 00-1.854.058l-3.191 3.281c-.768-.147-2.312-.628-3.901-2.213-1.59-1.591-2.071-3.139-2.214-3.902l3.279-3.192a1.333 1.333 0 00.057-1.854L5.146.684A1.333 1.333 0 003.29.568L.398 3.049c-.23.232-.368.54-.387.866-.02.333-.401 8.229 5.721 14.354C11.074 23.61 17.764 24 19.607 24c.27 0 .435-.008.479-.01.326-.019.634-.157.864-.389l2.48-2.894a1.33 1.33 0 00-.114-1.854z" fill="#005176"/></svg>