<svg width="31" height="31" fill="none" xmlns="http://www.w3.org/2000/svg"><path d="M8.781 19.57L12 16.642a.793.793 0 011.101.034l1.895 1.948c.456-.087 1.373-.372 2.316-1.314.944-.944 1.23-1.863 1.314-2.316L16.68 13.1a.792.792 0 01-.034-1.101L19.57 8.78a.792.792 0 011.101-.069l1.718 1.473c.137.138.219.32.23.514.012.198.238 4.886-3.397 8.523-3.172 3.171-7.144 3.403-8.238 3.403a5.28 5.28 0 01-.285-.006.786.786 0 01-.513-.23l-1.472-1.72a.79.79 0 01.067-1.1z" fill="#005176"/><circle cx="15.5" cy="15.5" r="15" stroke="#005176"/></svg>