<svg width="31" height="31" fill="none" xmlns="http://www.w3.org/2000/svg"><circle cx="15.5" cy="15.5" r="15.5" fill="#C4C4C4"/><circle cx="15.5" cy="15.5" r="15.5" fill="url(#paint0_linear)"/><path d="M15.5 5.9c-3.936 0-7.674-.35-9.101 3.31-.59 1.513-.505 3.477-.505 6.289 0 2.467-.079 4.786.505 6.287 1.424 3.663 5.192 3.312 9.1 3.312 3.768 0 7.655.392 9.1-3.312.59-1.528.504-3.462.504-6.287 0-3.75.207-6.171-1.613-7.989-1.843-1.841-4.335-1.61-7.994-1.61h.004zm-.86 1.73c8.21-.014 9.255-.926 8.679 11.744-.205 4.482-3.62 3.99-7.817 3.99-7.654 0-7.874-.219-7.874-7.87 0-7.74.607-7.86 7.012-7.867v.002zm5.988 1.593a1.152 1.152 0 100 2.304 1.152 1.152 0 000-2.304zM15.5 10.569a4.93 4.93 0 100 9.858 4.93 4.93 0 100-9.858zm0 1.73c4.234 0 4.24 6.4 0 6.4-4.232 0-4.238-6.4 0-6.4z" fill="#fff"/><defs><linearGradient id="paint0_linear" x1="2.081" y1="28.98" x2="30.805" y2="4.116" gradientUnits="userSpaceOnUse"><stop stop-color="#FD5"/><stop offset=".5" stop-color="#FF543E"/><stop offset="1" stop-color="#C837AB"/></linearGradient></defs></svg>