<svg width="35" height="35" fill="none" xmlns="http://www.w3.org/2000/svg"><path d="M16.984 10.063c1.334 0 2.422.015 3.266.046.719.032 1.36.157 1.922.375.541.209 1.01.51 1.406.907.396.396.698.864.906 1.406.22.562.344 1.203.375 1.922.032.844.047 1.932.047 3.265 0 1.334-.015 2.422-.047 3.266-.03.719-.156 1.36-.375 1.922a3.987 3.987 0 01-.906 1.406 3.987 3.987 0 01-1.406.906c-.563.22-1.203.344-1.922.375-.844.032-1.932.047-3.266.047-1.333 0-2.422-.015-3.265-.047-.719-.03-1.36-.156-1.922-.375a3.988 3.988 0 01-1.406-.906 3.987 3.987 0 01-.907-1.406c-.218-.563-.343-1.203-.375-1.922a91.709 91.709 0 01-.046-3.266 91.7 91.7 0 01.046-3.265c.032-.719.157-1.36.375-1.922a3.98 3.98 0 01.907-1.406 3.987 3.987 0 011.406-.907c.562-.218 1.203-.343 1.922-.375a91.598 91.598 0 013.265-.046zm0 1.03c-1.385 0-2.515.016-3.39.048-.563.02-1.084.12-1.563.296a2.853 2.853 0 00-1.594 1.594c-.177.48-.275 1-.296 1.563a98.959 98.959 0 00-.047 3.39c0 1.386.015 2.516.047 3.391.02.563.12 1.083.296 1.563.313.75.844 1.28 1.594 1.593.48.177 1 .276 1.563.297.875.031 2.005.047 3.39.047 1.386 0 2.516-.016 3.391-.047a5.015 5.015 0 001.563-.297 2.852 2.852 0 001.593-1.593c.177-.48.276-1 .297-1.563.031-.875.047-2.005.047-3.39 0-1.386-.016-2.516-.047-3.391a5.015 5.015 0 00-.297-1.563 2.852 2.852 0 00-1.593-1.594c-.48-.177-1-.275-1.563-.296a98.959 98.959 0 00-3.39-.047zm0 10.063c.875 0 1.623-.31 2.243-.93.62-.62.93-1.367.93-2.242s-.31-1.622-.93-2.242a3.056 3.056 0 00-2.243-.93c-.875 0-1.622.31-2.242.93-.62.62-.93 1.367-.93 2.242s.31 1.623.93 2.243c.62.62 1.367.93 2.242.93zm0-7.234c1.125 0 2.084.396 2.875 1.187.792.792 1.188 1.75 1.188 2.875s-.396 2.084-1.188 2.875c-.791.792-1.75 1.188-2.875 1.188s-2.083-.396-2.875-1.188c-.791-.791-1.187-1.75-1.187-2.875s.396-2.083 1.187-2.875c.792-.791 1.75-1.187 2.875-1.187zm5.188-.156c0 .26-.094.481-.281.664a.949.949 0 01-.688.273.904.904 0 01-.664-.273.904.904 0 01-.273-.664c0-.271.09-.5.273-.688a.891.891 0 01.664-.281.93.93 0 01.68.289.93.93 0 01.289.68z" fill="#fff"/><circle cx="17.5" cy="17.5" r="17" stroke="#fff"/></svg>