<svg width="35" height="35" fill="none" xmlns="http://www.w3.org/2000/svg"><circle cx="17.5" cy="17.5" r="16.5" stroke="#C673FC" stroke-width="2"/><path d="M13.375 22.125c1.896 1.896 6.081 4.375 8.02 4.375a3.69 3.69 0 003.647-2.916v-1.459s-1.794-.875-2.917-1.458c-1.123-.584-2.917 1.458-2.917 1.458a9.51 9.51 0 01-3.645-2.187 9.509 9.509 0 01-2.188-3.646s2.042-1.794 1.458-2.917a166.249 166.249 0 01-1.458-2.916h-1.458A3.69 3.69 0 009 14.104c0 1.94 2.48 6.125 4.375 8.021z" fill="#DBDCE0"/><path d="M18.48 14.834a2.188 2.188 0 012.187 2.188M18.48 9a8.021 8.021 0 018.02 8.02m-8.02-5.103a5.104 5.104 0 015.104 5.104" stroke="#DBDCE0" stroke-linecap="round" stroke-linejoin="round"/></svg>