<svg width="35" height="35" fill="none" xmlns="http://www.w3.org/2000/svg"><g clip-path="url(#clip0)"><path d="M-.014 35l3.2-8.318A17.214 17.214 0 01.42 17.297C.42 7.758 8.179 0 17.717 0c9.536 0 17.296 7.758 17.296 17.297 0 9.536-7.76 17.296-17.296 17.296-3.254 0-6.418-.914-9.175-2.644L-.014 35zm8.715-4.413l.256.166a15.975 15.975 0 008.76 2.61c8.86 0 16.066-7.205 16.066-16.066 0-8.86-7.205-16.07-16.066-16.07-8.861 0-16.068 7.21-16.068 16.07 0 3.212.945 6.312 2.733 8.968l.18.265-2.468 6.415L8.7 30.587z" fill="#67C15E"/><path d="M14.375 20.667c1.896 1.895 6.081 4.375 8.021 4.375a3.69 3.69 0 003.646-2.917v-1.458s-1.794-.875-2.917-1.459c-1.123-.583-2.916 1.459-2.916 1.459a9.51 9.51 0 01-3.646-2.188 9.509 9.509 0 01-2.188-3.646s2.042-1.793 1.459-2.916A162.678 162.678 0 0114.375 9h-1.458A3.69 3.69 0 0010 12.646c0 1.94 2.48 6.125 4.375 8.02z" fill="#DBDCE0"/></g><defs><clipPath id="clip0"><path fill="#fff" d="M0 0h35v35H0z"/></clipPath></defs></svg>