<svg width="31" height="31" viewBox="0 0 31 31" fill="none" xmlns="http://www.w3.org/2000/svg">
<circle cx="15.5" cy="15.5" r="15.5" fill="#02C30E"/>
<path fill-rule="evenodd" clip-rule="evenodd" d="M21.6687 9.32548C20.9307 8.58614 20.0527 7.99991 19.0854 7.60073C18.1181 7.20155 17.0808 6.99738 16.0337 7.00003C11.6428 7.00003 8.06833 10.5567 8.06656 14.9285C8.06656 16.3257 8.43305 17.6893 9.12967 18.8923L8 23L12.2232 21.8969C13.3914 22.5298 14.7001 22.8616 16.0302 22.8622H16.0337C20.4237 22.8622 23.9982 19.3056 24 14.9338C24.003 13.892 23.7985 12.86 23.3984 11.8974C22.9982 10.9348 22.4104 10.0606 21.6687 9.32548V9.32548ZM16.0337 21.5242H16.031C14.845 21.5243 13.6809 21.2067 12.6607 20.6048L12.4193 20.4617L9.91325 21.1161L10.5815 18.6847L10.4244 18.4356C9.76132 17.385 9.4103 16.1692 9.41187 14.9285C9.41364 11.295 12.3838 8.33895 16.0364 8.33895C16.9062 8.33703 17.7679 8.50683 18.5714 8.83853C19.3749 9.17023 20.1043 9.65725 20.7174 10.2714C21.3339 10.8826 21.8224 11.6093 22.1549 12.4096C22.4875 13.2099 22.6573 14.0678 22.6547 14.9338C22.6529 18.5672 19.6827 21.5242 16.0337 21.5242ZM19.6659 16.588C19.4662 16.4882 18.4883 16.0095 18.3055 15.9433C18.1236 15.877 17.9913 15.8443 17.8582 16.0422C17.7251 16.24 17.3435 16.686 17.2273 16.8185C17.111 16.951 16.9948 16.9669 16.796 16.868C16.5972 16.7691 15.9556 16.5597 15.1951 15.885C14.6032 15.3595 14.2039 14.7112 14.0876 14.5125C13.9714 14.3138 14.0752 14.2069 14.1755 14.108C14.2651 14.0197 14.3743 13.8766 14.4736 13.7609C14.573 13.6452 14.6059 13.5631 14.6724 13.4306C14.739 13.2981 14.7061 13.1824 14.6556 13.0835C14.6059 12.9837 14.2074 12.0086 14.0415 11.6121C13.8809 11.2279 13.7167 11.2791 13.5942 11.2738C13.4674 11.2686 13.3405 11.2663 13.2135 11.2667C13.1126 11.2693 13.0133 11.2926 12.9218 11.3351C12.8303 11.3777 12.7487 11.4386 12.682 11.514C12.4992 11.7128 11.9853 12.1915 11.9853 13.1665C11.9853 14.1415 12.6988 15.0839 12.7982 15.2164C12.8976 15.3489 14.2021 17.3493 16.1988 18.2078C16.6744 18.4118 17.0454 18.5337 17.3338 18.6255C17.8103 18.7766 18.2442 18.7545 18.5877 18.7041C18.9701 18.6476 19.7653 18.2254 19.9312 17.7626C20.0971 17.2999 20.0971 16.9033 20.0475 16.8203C19.9978 16.7373 19.8638 16.6869 19.6659 16.588" fill="white"/>
</svg>
