<svg width="31" height="31" viewBox="0 0 31 31" fill="none" xmlns="http://www.w3.org/2000/svg">
<path d="M8.78114 19.5692L11.9993 16.6432C12.1514 16.5049 12.3513 16.4312 12.5568 16.4375C12.7622 16.4439 12.9572 16.5298 13.1005 16.6772L14.9949 18.6255C15.4509 18.5384 16.3677 18.2526 17.3114 17.3113C18.255 16.3669 18.5408 15.4477 18.6255 14.9949L16.6788 13.0997C16.5312 12.9565 16.4452 12.7615 16.4388 12.556C16.4325 12.3504 16.5063 12.1505 16.6448 11.9985L19.57 8.78112C19.7085 8.62861 19.901 8.5361 20.1066 8.52324C20.3122 8.51038 20.5148 8.57818 20.6712 8.71225L22.3891 10.1855C22.526 10.3229 22.6077 10.5057 22.6187 10.6993C22.6306 10.8972 22.857 15.5855 19.2216 19.2224C16.0502 22.393 12.0776 22.625 10.9836 22.625C10.8236 22.625 10.7255 22.6202 10.6994 22.6187C10.5058 22.6078 10.3231 22.5258 10.1864 22.3883L8.71385 20.6696C8.57926 20.5136 8.51096 20.3113 8.52353 20.1057C8.5361 19.9001 8.62856 19.7075 8.78114 19.5692V19.5692Z" fill="#005176"/>
<circle cx="15.5" cy="15.5" r="15" stroke="#005176"/>
</svg>
