<svg width="31" height="31" viewBox="0 0 31 31" fill="none" xmlns="http://www.w3.org/2000/svg">
    <circle cx="15.5" cy="15.5" r="15.5" fill="#C4C4C4"></circle>
    <circle cx="15.5" cy="15.5" r="15.5" fill="url(#paint0_linear)"></circle>
    <path d="M15.5004 5.89928C11.5641 5.89928 7.82628 5.5494 6.39857 9.21064C5.80883 10.7228 5.89448 12.6867 5.89448 15.4987C5.89448 17.9662 5.81534 20.2854 6.39857 21.7856C7.82303 25.449 11.5912 25.098 15.4982 25.098C19.2675 25.098 23.1539 25.4902 24.5989 21.7856C25.1898 20.2583 25.103 18.3237 25.103 15.4987C25.103 11.7486 25.3101 9.32763 23.4899 7.51001C21.647 5.66856 19.1548 5.89928 15.496 5.89928H15.5004ZM14.6396 7.62916C22.8503 7.61616 23.8954 6.7041 23.3187 19.3744C23.1138 23.8556 19.699 23.3638 15.5015 23.3638C7.84796 23.3638 7.6279 23.145 7.6279 15.4943C7.6279 7.75481 8.23497 7.63349 14.6396 7.62699V7.62916ZM20.628 9.22256C19.9917 9.22256 19.4756 9.73817 19.4756 10.374C19.4756 11.0099 19.9917 11.5255 20.628 11.5255C21.2643 11.5255 21.7804 11.0099 21.7804 10.374C21.7804 9.73817 21.2643 9.22256 20.628 9.22256ZM15.5004 10.569C12.7761 10.569 10.5679 12.7766 10.5679 15.4987C10.5679 18.2208 12.7761 20.4273 15.5004 20.4273C18.2246 20.4273 20.4318 18.2208 20.4318 15.4987C20.4318 12.7766 18.2246 10.569 15.5004 10.569ZM15.5004 12.2989C19.7336 12.2989 19.7391 18.6985 15.5004 18.6985C11.2682 18.6985 11.2617 12.2989 15.5004 12.2989Z" fill="white"></path>
    <defs>
        <linearGradient id="paint0_linear" x1="2.08139" y1="28.9804" x2="30.805" y2="4.11552" gradientUnits="userSpaceOnUse">
            <stop stop-color="#FFDD55"></stop>
            <stop offset="0.5" stop-color="#FF543E"></stop>
            <stop offset="1" stop-color="#C837AB"></stop>
        </linearGradient>
    </defs>
</svg>