<svg width="35" height="35" viewBox="0 0 35 35" fill="none" xmlns="http://www.w3.org/2000/svg">
<path d="M16.9844 10.0625C18.3177 10.0625 19.4062 10.0781 20.25 10.1094C20.9688 10.1406 21.6094 10.2656 22.1719 10.4844C22.7135 10.6927 23.1823 10.9948 23.5781 11.3906C23.974 11.7865 24.276 12.2552 24.4844 12.7969C24.7031 13.3594 24.8281 14 24.8594 14.7188C24.8906 15.5625 24.9062 16.651 24.9062 17.9844C24.9062 19.3177 24.8906 20.4062 24.8594 21.25C24.8281 21.9688 24.7031 22.6094 24.4844 23.1719C24.276 23.7135 23.974 24.1823 23.5781 24.5781C23.1823 24.974 22.7135 25.276 22.1719 25.4844C21.6094 25.7031 20.9688 25.8281 20.25 25.8594C19.4062 25.8906 18.3177 25.9062 16.9844 25.9062C15.651 25.9062 14.5625 25.8906 13.7188 25.8594C13 25.8281 12.3594 25.7031 11.7969 25.4844C11.2552 25.276 10.7865 24.974 10.3906 24.5781C9.99479 24.1823 9.69271 23.7135 9.48438 23.1719C9.26562 22.6094 9.14062 21.9688 9.10938 21.25C9.07812 20.4062 9.0625 19.3177 9.0625 17.9844C9.0625 16.651 9.07812 15.5625 9.10938 14.7188C9.14062 14 9.26562 13.3594 9.48438 12.7969C9.69271 12.2552 9.99479 11.7865 10.3906 11.3906C10.7865 10.9948 11.2552 10.6927 11.7969 10.4844C12.3594 10.2656 13 10.1406 13.7188 10.1094C14.5625 10.0781 15.651 10.0625 16.9844 10.0625ZM16.9844 11.0938C15.599 11.0938 14.4688 11.1094 13.5938 11.1406C13.0312 11.1615 12.5104 11.2604 12.0312 11.4375C11.2812 11.75 10.75 12.2812 10.4375 13.0312C10.2604 13.5104 10.1615 14.0312 10.1406 14.5938C10.1094 15.4688 10.0938 16.599 10.0938 17.9844C10.0938 19.3698 10.1094 20.5 10.1406 21.375C10.1615 21.9375 10.2604 22.4583 10.4375 22.9375C10.75 23.6875 11.2812 24.2188 12.0312 24.5312C12.5104 24.7083 13.0312 24.8073 13.5938 24.8281C14.4688 24.8594 15.599 24.875 16.9844 24.875C18.3698 24.875 19.5 24.8594 20.375 24.8281C20.9375 24.8073 21.4583 24.7083 21.9375 24.5312C22.6875 24.2188 23.2188 23.6875 23.5312 22.9375C23.7083 22.4583 23.8073 21.9375 23.8281 21.375C23.8594 20.5 23.875 19.3698 23.875 17.9844C23.875 16.599 23.8594 15.4688 23.8281 14.5938C23.8073 14.0312 23.7083 13.5104 23.5312 13.0312C23.2188 12.2812 22.6875 11.75 21.9375 11.4375C21.4583 11.2604 20.9375 11.1615 20.375 11.1406C19.5 11.1094 18.3698 11.0938 16.9844 11.0938ZM16.9844 21.1562C17.8594 21.1562 18.6068 20.8464 19.2266 20.2266C19.8464 19.6068 20.1562 18.8594 20.1562 17.9844C20.1562 17.1094 19.8464 16.362 19.2266 15.7422C18.6068 15.1224 17.8594 14.8125 16.9844 14.8125C16.1094 14.8125 15.362 15.1224 14.7422 15.7422C14.1224 16.362 13.8125 17.1094 13.8125 17.9844C13.8125 18.8594 14.1224 19.6068 14.7422 20.2266C15.362 20.8464 16.1094 21.1562 16.9844 21.1562ZM16.9844 13.9219C18.1094 13.9219 19.0677 14.3177 19.8594 15.1094C20.651 15.901 21.0469 16.8594 21.0469 17.9844C21.0469 19.1094 20.651 20.0677 19.8594 20.8594C19.0677 21.651 18.1094 22.0469 16.9844 22.0469C15.8594 22.0469 14.901 21.651 14.1094 20.8594C13.3177 20.0677 12.9219 19.1094 12.9219 17.9844C12.9219 16.8594 13.3177 15.901 14.1094 15.1094C14.901 14.3177 15.8594 13.9219 16.9844 13.9219ZM22.1719 13.7656C22.1719 14.026 22.0781 14.2474 21.8906 14.4297C21.7031 14.612 21.474 14.7031 21.2031 14.7031C20.9427 14.7031 20.7214 14.612 20.5391 14.4297C20.3568 14.2474 20.2656 14.026 20.2656 13.7656C20.2656 13.4948 20.3568 13.2656 20.5391 13.0781C20.7214 12.8906 20.9427 12.7969 21.2031 12.7969C21.4635 12.7969 21.6901 12.8932 21.8828 13.0859C22.0755 13.2786 22.1719 13.5052 22.1719 13.7656Z" fill="white"/>
<circle cx="17.5" cy="17.5" r="17" stroke="white"/>
</svg>
