<svg width="35" height="35" viewBox="0 0 35 35" fill="none" xmlns="http://www.w3.org/2000/svg">
<circle cx="17.5" cy="17.5" r="16.5" stroke="#C673FC" stroke-width="2"/>
<path d="M13.3751 22.1252C15.2709 24.021 19.4563 26.5002 21.3959 26.5002C22.2467 26.5089 23.0744 26.2234 23.7389 25.6919C24.4033 25.1603 24.8636 24.4155 25.0418 23.5835V22.1252C25.0418 22.1252 23.248 21.2502 22.1251 20.6668C21.0022 20.0835 19.2084 22.1252 19.2084 22.1252C17.8436 21.6805 16.5972 20.9327 15.5626 19.9377C14.5676 18.9031 13.8197 17.6566 13.3751 16.2918C13.3751 16.2918 15.4168 14.4981 14.8334 13.3752C14.2501 12.2522 13.3751 10.4585 13.3751 10.4585H11.9168C11.0848 10.6367 10.3399 11.097 9.8084 11.7614C9.27687 12.4258 8.99131 13.2535 9.00009 14.1043C9.00009 16.0439 11.4793 20.2293 13.3751 22.1252Z" fill="#DBDCE0"/>
<path d="M18.4794 14.834C19.0595 14.834 19.6159 15.0645 20.0262 15.4747C20.4364 15.8849 20.6669 16.4413 20.6669 17.0215" stroke="#DBDCE0" stroke-linecap="round" stroke-linejoin="round"/>
<path d="M18.4797 9C20.607 9 22.6471 9.84505 24.1513 11.3492C25.6555 12.8534 26.5006 14.8936 26.5006 17.0208" stroke="#DBDCE0" stroke-linecap="round" stroke-linejoin="round"/>
<path d="M18.4794 11.917C19.8331 11.917 21.1313 12.4548 22.0886 13.412C23.0458 14.3692 23.5835 15.6674 23.5835 17.0212" stroke="#DBDCE0" stroke-linecap="round" stroke-linejoin="round"/>
</svg>
