<svg width="31" height="31" viewBox="0 0 31 31" fill="none" xmlns="http://www.w3.org/2000/svg">
<circle cx="15.5" cy="15.5" r="15.5" fill="#7B519C"/>
<path d="M19.7778 7H11.2222C10.8981 7 10.5872 7.12793 10.358 7.35566C10.1288 7.58338 10 7.89224 10 8.21429V22.7857C10 23.1078 10.1288 23.4166 10.358 23.6443C10.5872 23.8721 10.8981 24 11.2222 24H19.7778C20.1019 24 20.4128 23.8721 20.642 23.6443C20.8712 23.4166 21 23.1078 21 22.7857V8.21429C21 7.89224 20.8712 7.58338 20.642 7.35566C20.4128 7.12793 20.1019 7 19.7778 7V7ZM16.1111 22.7857H14.8889V21.5714H16.1111V22.7857ZM11.2222 20.3571V8.21429H19.7778V20.3571H11.2222Z" fill="white"/>
</svg>
