<svg width="35" height="35" viewBox="0 0 35 35" fill="none" xmlns="http://www.w3.org/2000/svg">
<g clip-path="url(#clip0)">
<path d="M-0.0136719 35L3.18591 26.6817C1.37466 23.8831 0.420911 20.6442 0.420911 17.2973C0.420911 7.75833 8.17924 0 17.7167 0C27.2528 0 35.0126 7.75833 35.0126 17.2973C35.0126 26.8333 27.2528 34.5931 17.7167 34.5931C14.4632 34.5931 11.2986 33.6788 8.54237 31.9492L-0.0136719 35ZM8.70133 30.5871L8.95654 30.7533C11.5699 32.461 14.5988 33.3638 17.7167 33.3638C26.5776 33.3638 33.7832 26.1581 33.7832 17.2973C33.7832 8.43646 26.5776 1.22792 17.7167 1.22792C8.85591 1.22792 1.64883 8.43646 1.64883 17.2973C1.64883 20.5085 2.59383 23.609 4.38174 26.2646L4.56112 26.53L2.09362 32.9452L8.70133 30.5871Z" fill="#67C15E"/>
<path d="M14.3752 20.6667C16.271 22.5625 20.4564 25.0417 22.396 25.0417C23.2468 25.0504 24.0746 24.7649 24.739 24.2334C25.4034 23.7018 25.8637 22.957 26.0419 22.125V20.6667C26.0419 20.6667 24.2481 19.7917 23.1252 19.2083C22.0023 18.625 20.2085 20.6667 20.2085 20.6667C18.8437 20.222 17.5973 19.4742 16.5627 18.4792C15.5677 17.4446 14.8198 16.1981 14.3752 14.8333C14.3752 14.8333 16.4169 13.0396 15.8335 11.9167C15.2502 10.7937 14.3752 9 14.3752 9H12.9169C12.0849 9.1782 11.34 9.63848 10.8085 10.3029C10.277 10.9673 9.99142 11.795 10.0002 12.6458C10.0002 14.5854 12.4794 18.7708 14.3752 20.6667Z" fill="#DBDCE0"/>
</g>
<defs>
<clipPath id="clip0">
<rect width="35" height="35" fill="white"/>
</clipPath>
</defs>
</svg>
